<?xml version="1.0" standalone="no"?>
<!DOCTYPE svg PUBLIC "-//W3C//DTD SVG 1.1//EN" "http://www.w3.org/Graphics/SVG/1.1/DTD/svg11.dtd" >
<svg xmlns="http://www.w3.org/2000/svg" width="100%" height="100%">
<metadata>
Created by FontXChange 20100429 at Sun Jan 12 15:40:06 2014
 By Matt Bieber
Copyright (c) 2000 by Henrik Kubel, A2/SW/HK. All rights reserved.
</metadata>
<defs>
<font id="Typewriter-Medium" horiz-adv-x="430" >
  <font-face 
    font-family="Typewriter"
    font-weight="600"
    font-stretch="normal"
    units-per-em="1000"
    panose-1="2 0 6 3 3 0 0 2 0 3"
    ascent="750"
    descent="-250"
    x-height="474"
    cap-height="700"
    bbox="-229 -443 1453 1050"
    underline-thickness="20"
    underline-position="-113"
    unicode-range="U+0020-FB06"
  />
<missing-glyph horiz-adv-x="220" 
 />
    <glyph glyph-name="fi" unicode="fi" horiz-adv-x="818" 
d="M245 399v-325h116q17 0 28 -10.5t11 -26.5t-11 -26.5t-28 -10.5h-302q-17 0 -27.5 10.5t-10.5 26.5t10.5 26.5t27.5 10.5h106v325h-96q-17 0 -27.5 11t-10.5 26q0 17 10.5 27.5t27.5 10.5h96v54q0 54 15.5 97t44 73t68.5 46t89 16q43 0 77 -11t57.5 -29t36 -42t12.5 -51
q0 -31 -22.5 -53.5t-50.5 -22.5q-30 0 -49.5 19.5t-19.5 45.5q0 14 7 29.5t21 26.5q-14 10 -32.5 13.5t-36.5 3.5q-29 0 -54 -9t-43.5 -29t-29 -51t-10.5 -76v-50h385q16 0 27 -10.5t11 -27.5v-362h106q16 0 26.5 -10.5t10.5 -26.5t-10.5 -26.5t-26.5 -10.5h-282
q-16 0 -27 10.5t-11 26.5t11 26.5t27 10.5h96v325h-343z" />
    <glyph glyph-name="fl" unicode="fl" horiz-adv-x="854" 
d="M396 474q17 0 28 -10.5t11 -27.5q0 -15 -11 -26t-28 -11h-151v-325h126q17 0 28 -10.5t11 -26.5t-11 -26.5t-29 -10.5h-311q-17 0 -27.5 10.5t-10.5 26.5t10.5 26.5t27.5 10.5h106v325h-96q-17 0 -27.5 11t-10.5 26q0 17 10.5 27.5t27.5 10.5h96v44q0 54 15.5 98
t44.5 74.5t69 47.5t90 17t89 -15t62 -40h119q17 0 28 -10.5t11 -27.5v-588h117q16 0 27 -10.5t11 -26.5t-11 -26.5t-27 -10.5h-320q-16 0 -26.5 10.5t-10.5 26.5t10.5 26.5t26.5 10.5h122v551h-47q0 -31 -20 -55t-52 -24q-29 0 -50 19t-21 48q0 14 6.5 29.5t23.5 26.5
q-14 10 -32 12.5t-32 2.5q-64 0 -103.5 -40.5t-39.5 -129.5v-40h151z" />
    <glyph glyph-name="ffi" unicode="ffi" horiz-adv-x="1190" 
d="M536 74v325h-291v-325h291zM456 702q5 -8 5 -16q0 -11 -8.5 -20.5t-22.5 -9.5q-11 0 -24.5 3.5t-25.5 3.5q-30 0 -54.5 -8.5t-42.5 -28t-28 -50t-10 -75.5v-27h291v54q0 54 16 97t44.5 73t68.5 46t89 16q43 0 76.5 -11t57 -29t36 -42t12.5 -51q0 -15 -6 -29t-16 -24.5
t-23 -16.5t-28 -6q-29 0 -48.5 18.5t-19.5 45.5q0 14 6.5 30t21.5 27q-14 10 -32.5 13.5t-36.5 3.5q-30 0 -55 -9t-43 -29t-28.5 -51t-10.5 -76v-50h384q17 0 28 -10.5t11 -27.5v-362h105q16 0 27 -10.5t11 -26.5t-11 -26.5t-27 -10.5h-282q-16 0 -26.5 10.5t-10.5 26.5
t10.5 26.5t26.5 10.5h96v325h-342v-325h116q17 0 27.5 -10.5t10.5 -26.5t-10.5 -26.5t-27.5 -10.5h-674q-17 0 -27.5 10.5t-10.5 26.5t10.5 26.5t27.5 10.5h106v325h-96q-17 0 -27.5 11t-10.5 26q0 17 10.5 27.5t27.5 10.5h96v32q0 109 55 169t155 60q26 0 48 -6.5t33 -26.5
z" />
    <glyph glyph-name="ffl" unicode="ffl" horiz-adv-x="1204" 
d="M515 399h-270v-325h270v325zM515 518q0 54 15.5 98t44.5 74.5t69 47.5t90 17t89 -15t62 -40h119q17 0 28 -10.5t11 -27.5v-588h117q16 0 27 -10.5t11 -26.5t-11 -26.5t-27 -10.5h-320q-16 0 -26.5 10.5t-10.5 26.5t10.5 26.5t26.5 10.5h122v551h-47q0 -31 -20 -55
t-52 -24q-29 0 -50 19t-21 48q0 14 6.5 29.5t23.5 26.5q-14 10 -32 12.5t-32 2.5q-64 0 -103.5 -40.5t-39.5 -129.5v-40h151q17 0 28 -10.5t11 -27.5q0 -15 -11 -26t-28 -11h-151v-325h146q17 0 28 -10.5t11 -26.5t-11 -26.5t-28 -10.5h-682q-17 0 -27.5 10.5t-10.5 26.5
t10.5 26.5t27.5 10.5h106v325h-96q-17 0 -27.5 11t-10.5 26q0 17 10.5 27.5t27.5 10.5h96v54q0 51 14.5 92.5t41.5 70t65 44t86 15.5q18 0 38 -2.5t39 -10.5q22 -10 22 -32q0 -14 -9 -24t-28 -10q-11 0 -27.5 3.5t-29.5 3.5q-59 0 -95.5 -37.5t-36.5 -126.5v-40h270v44z" />
    <glyph glyph-name="ff" unicode="ff" horiz-adv-x="819" 
d="M515 399h-270v-325h270v325zM595 474h151q17 0 28 -10.5t11 -27.5q0 -15 -11 -26t-28 -11h-151v-325h146q17 0 28 -10.5t11 -26.5t-11 -26.5t-28 -10.5h-682q-17 0 -27.5 10.5t-10.5 26.5t10.5 26.5t27.5 10.5h106v325h-96q-17 0 -27.5 11t-10.5 26q0 17 10.5 27.5
t27.5 10.5h96v54q0 51 14.5 92.5t41.5 70t65 44t86 15.5q18 0 38 -2.5t39 -10.5q22 -10 22 -32q0 -14 -9 -24t-28 -10q-11 0 -27.5 3.5t-29.5 3.5q-59 0 -95.5 -37.5t-36.5 -126.5v-40h270v54q0 54 15.5 97t43.5 73t67.5 46t88.5 16q43 0 77.5 -11t58.5 -29t36.5 -42
t12.5 -51q0 -33 -21.5 -54.5t-51.5 -21.5t-51 19.5t-21 46.5q0 16 8 31.5t23 23.5q-14 10 -33 13.5t-37 3.5q-29 0 -54 -9t-43 -29t-28.5 -51t-10.5 -76v-50z" />
    <glyph glyph-name=".notdef" horiz-adv-x="220" 
 />
    <glyph glyph-name="space" unicode=" " horiz-adv-x="220" 
 />
    <glyph glyph-name="exclam" unicode="!" horiz-adv-x="300" 
d="M65 75q0 35 25 59.5t60 24.5t59.5 -24.5t24.5 -59.5t-24.5 -60t-59.5 -25t-60 25t-25 60zM150 243q-11 0 -24 8t-15 31q-10 89 -17 164q-3 31 -6.5 62.5t-5.5 58.5l-3.5 46t-1.5 27q0 29 18.5 49.5t54.5 20.5q35 0 54 -20.5t19 -49.5q0 -8 -1.5 -27t-4 -46l-5.5 -58.5
l-6 -62.5l-17 -164q-2 -23 -15 -31t-24 -8z" />
    <glyph glyph-name="quotedbl" unicode="&#x22;" horiz-adv-x="418" 
d="M277 665q0 17 12 28.5t29 11.5t29 -11.5t12 -28.5v-293q0 -17 -12 -28.5t-29 -11.5t-29 11.5t-12 28.5v293zM59 665q0 17 12 28.5t29 11.5t29 -11.5t12 -28.5v-293q0 -17 -12 -28.5t-29 -11.5t-29 11.5t-12 28.5v293z" />
    <glyph glyph-name="numbersign" unicode="#" horiz-adv-x="661" 
d="M267 291h127v118h-127v-118zM79 217q-16 0 -27 10.5t-11 26.5q0 15 11 25t26 12h109v118h-108q-16 0 -27 10t-11 27q0 16 11 26.5t27 10.5h108v178q0 17 11.5 28t28.5 11t28.5 -11t11.5 -28v-178h127v178q0 17 11.5 28t28.5 11t29 -11t12 -28v-178h108q16 0 26.5 -10.5
t10.5 -26.5t-10.5 -26.5t-26.5 -10.5h-108v-118h108q16 0 26.5 -11t10.5 -26q0 -16 -10.5 -26.5t-26.5 -10.5h-108v-178q0 -17 -12 -28t-29 -11t-28.5 11t-11.5 28v178h-127v-178q0 -17 -11.5 -28t-28.5 -11t-28.5 11t-11.5 28v178h-108z" />
    <glyph glyph-name="dollar" unicode="$" horiz-adv-x="690" 
d="M186 532q0 -47 32 -73t79 -42v222q-48 -4 -79.5 -31.5t-31.5 -75.5zM515 182q0 28 -11.5 48.5t-31.5 35.5t-46 25.5t-56 19.5v-250h9q35 0 60.5 10t42.5 27t25 38.5t8 45.5zM601 187q0 -41 -14.5 -77t-42 -62.5t-68.5 -42t-95 -15.5h-11v-133q0 -15 -11 -25t-25 -10
t-25.5 10t-11.5 25v144q-38 11 -67 32t-48 47l3 -47q0 -19 -10.5 -31t-28.5 -12q-17 0 -28 10t-13 27l-17 197q-2 17 9 30.5t31 13.5q13 0 24 -7.5t16 -21.5l13.5 -36.5t23 -46t37 -45.5t55.5 -35v256q-38 11 -73 25t-62.5 36t-44 54t-16.5 78q0 40 14 73.5t39.5 58
t61.5 38.5t81 15v128q0 15 11.5 25.5t25.5 10.5t25 -10.5t11 -25.5v-137q29 -8 54 -24t42 -39l-4 32q-2 19 10.5 29t26.5 10q17 0 28.5 -9.5t13.5 -26.5l21 -180q0 -13 -9.5 -24.5t-31.5 -11.5q-14 0 -23.5 10t-18 26.5t-17.5 36t-21 39t-29 36t-42 25.5v-236
q42 -12 83 -26.5t74 -37t53.5 -57t20.5 -86.5z" />
    <glyph glyph-name="percent" unicode="%" horiz-adv-x="776" 
d="M127 528q0 -22 4.5 -42t13 -35.5t20.5 -24.5t27 -9q14 0 26 9t21 24.5t14 35.5t5 42t-5 42t-14 35.5t-21 24.5t-26 9q-15 0 -27 -9t-20.5 -24.5t-13 -35.5t-4.5 -42zM516 171q0 -22 5 -42t13.5 -35t20.5 -24t26 -9q15 0 27 9t21 24t14 35t5 42t-5 42.5t-14 36t-21 24.5
t-27 9q-14 0 -26 -9t-20.5 -24.5t-13.5 -36t-5 -42.5zM729 171q0 -39 -11.5 -72.5t-31 -57.5t-47 -37.5t-58.5 -13.5q-32 0 -58.5 13.5t-46 37.5t-30.5 57.5t-11 72.5q0 40 11 73.5t30.5 58t46 38t58.5 13.5q31 0 58.5 -13.5t47 -38t31 -58t11.5 -73.5zM340 528
q0 -39 -11.5 -72.5t-31.5 -58t-47 -38t-58 -13.5q-32 0 -58.5 13.5t-46.5 38t-31 58t-11 72.5t11 72.5t31 58t46.5 38t58.5 13.5q25 0 45 -9l43.5 -20.5t54 -20.5t77.5 -9q26 0 53 2.5t50 7t41.5 9t28.5 9.5l11 13q6 8 14.5 13t18.5 5q15 0 26.5 -10t11.5 -25q0 -13 -9 -25
l-466 -640q-10 -15 -31 -15q-20 0 -29.5 10.5t-9.5 24.5q0 12 8 23l408 553q-11 -6 -26 -10t-32 -6.5t-34.5 -3.5t-33.5 -1q-26 0 -47.5 5.5l-37.5 9.5q13 -34 13 -72z" />
    <glyph glyph-name="ampersand" unicode="&#x26;" horiz-adv-x="806" 
d="M216 571q0 -22 10.5 -47t28.5 -48l21 -27q44 35 60.5 64.5t16.5 58.5q0 28 -18 48t-49 20q-28 0 -49 -17.5t-21 -51.5zM433 576q0 -50 -27 -94.5t-85 -87.5l124 -143q10 19 30.5 51.5t48.5 64.5t62 55.5t71 23.5t59.5 -23t22.5 -52t-21 -50.5t-50 -21.5q-20 0 -37.5 11.5
t-25.5 28.5q-13 -8 -29 -27t-31.5 -41t-29 -44t-20.5 -35l49.5 -58t39.5 -39t34.5 -22t34.5 -7q29 0 40 17.5t16 38.5q7 26 13.5 41t29.5 15q17 0 28 -10.5t11 -27.5q0 -5 -3 -29t-17 -51t-42.5 -48.5t-79.5 -21.5q-32 0 -58 10t-50 28t-47 43.5l-48 55.5q-21 -28 -43.5 -53
t-50 -43.5t-61 -29.5t-76.5 -11t-78 12.5t-60 35t-39 53.5t-14 68q0 38 13 68.5t34.5 57t51 50.5l62.5 49l26 21q-13 15 -26.5 34t-25 40.5t-18.5 44t-7 45.5q0 31 11 56.5t31.5 44.5t48.5 29.5t63 10.5q31 0 57.5 -10t46 -28t30.5 -42.5t11 -53.5zM259 347l-27 -21
l-43 -34.5t-39.5 -38t-28.5 -43t-11 -49.5q0 -39 29 -68t80 -29q30 0 55 10t46.5 27t40 39t36.5 46z" />
    <glyph glyph-name="quotesingle" unicode="'" horiz-adv-x="200" 
d="M59 665q0 17 12 28.5t29 11.5t29 -11.5t12 -28.5v-293q0 -17 -12 -28.5t-29 -11.5t-29 11.5t-12 28.5v293z" />
    <glyph glyph-name="asterisk" unicode="*" horiz-adv-x="610" 
d="M269 549l-2 42q-1 18 -1.5 40t-0.5 42q0 25 9 40.5t31 15.5t31 -16.5t9 -39.5q0 -20 -1 -41.5t-2 -40t-1.5 -30.5l-0.5 -12l124 83q10 7 23 7q15 0 27.5 -10t12.5 -27q0 -11 -5 -21t-14 -15l-135 -82l135 -82q9 -6 14 -16t5 -19q0 -18 -12 -28.5t-27 -10.5q-11 0 -19 4.5
t-17 11.5l-112 75l0.5 -12t1.5 -30.5t2 -40.5t1 -41q0 -23 -9 -39.5t-31 -16.5t-31 15.5t-9 40.5q0 20 0.5 41t1.5 40l2 43l-123 -83q-13 -8 -25 -8q-15 0 -26.5 10.5t-11.5 28.5q0 9 4.5 19t13.5 16l136 82l-136 82q-18 13 -18 36q0 18 12.5 27.5t26.5 9.5q13 0 24 -7z" />
    <glyph glyph-name="plus" unicode="+" horiz-adv-x="610" 
d="M345 128q0 -17 -12 -29t-29 -12t-28.5 12t-11.5 29v178h-183q-15 0 -27 11t-12 26q0 16 11 26.5t28 10.5h183v178q0 17 11.5 29t28.5 12t29 -12t12 -29v-178h183q15 0 27 -11t12 -26q0 -16 -11 -26.5t-28 -10.5h-183v-178z" />
    <glyph glyph-name="comma" unicode="," horiz-adv-x="299" 
d="M59 76q0 35 24 59.5t62 24.5q41 0 68.5 -30t27.5 -83q0 -36 -14.5 -72t-38.5 -67.5t-55 -56.5t-63 -39q-15 -6 -24 -6q-14 0 -24.5 8t-10.5 24q0 20 21 30q42 20 76 52t43 78q-1 -1 -3 -1h-6q-38 0 -60.5 22t-22.5 57z" />
    <glyph glyph-name="hyphen" unicode="-" horiz-adv-x="478" 
d="M107 255q-16 0 -27 10.5t-11 26.5t11 26.5t27 10.5h264q15 0 26.5 -10.5t11.5 -26.5t-11.5 -26.5t-26.5 -10.5h-264z" />
    <glyph glyph-name="period" unicode="." horiz-adv-x="299" 
d="M65 75q0 35 25 59.5t60 24.5t59.5 -24.5t24.5 -59.5t-24.5 -60t-59.5 -25t-60 25t-25 60z" />
    <glyph glyph-name="slash" unicode="/" horiz-adv-x="462" 
d="M16 -143q-10 -20 -34 -20q-15 0 -27 9.5t-12 26.5q0 11 7 23l510 922q11 19 32 19q16 0 27.5 -10.5t11.5 -25.5q0 -13 -8 -27z" />
    <glyph glyph-name="zero" unicode="0" horiz-adv-x="605" 
d="M302 62q36 0 66.5 21.5t52.5 59.5t34 90.5t12 114.5t-12 115t-34 91.5t-52.5 60.5t-66.5 22t-66.5 -22t-52.5 -60.5t-34 -91.5t-12 -115t12 -114.5t34 -90.5t52.5 -59.5t66.5 -21.5zM302 710q54 0 99.5 -27.5t78.5 -76t51 -115t18 -143.5t-18 -142.5t-51 -113.5
t-78.5 -75t-99.5 -27t-99.5 27t-78.5 75t-51 113.5t-18 142.5t18 143.5t51 115t78.5 76t99.5 27.5z" />
    <glyph glyph-name="one" unicode="1" horiz-adv-x="605" 
d="M353 75h140q17 0 28 -10.5t11 -26.5q0 -17 -11 -27.5t-28 -10.5h-373q-17 0 -28 10.5t-11 27.5q0 16 11 26.5t28 10.5h151v490l-123 -169q-12 -16 -32 -16q-17 0 -29.5 11t-12.5 27q0 11 9 25l185 247q8 10 19 15t22 5q17 0 30.5 -12t13.5 -33v-590z" />
    <glyph glyph-name="two" unicode="2" horiz-adv-x="605" 
d="M454 153q0 16 12.5 28t29.5 12t29 -12t12 -28v-117q0 -17 -12 -26.5t-28 -9.5h-379q-43 0 -43 50q0 28 12.5 56.5t33 55.5t47.5 52.5t56 49.5q48 39 88 68t69 56t45 56t16 68q0 27 -10 50t-28.5 40.5t-44.5 27.5t-57 10q-42 0 -82 -17.5t-59 -51.5q23 -5 39 -23t16 -43
q0 -32 -21.5 -48.5t-48.5 -16.5q-29 0 -53.5 21t-24.5 64q0 39 18.5 73t50.5 59t75 39t93 14q47 0 87.5 -14.5t70.5 -40.5t47 -62.5t17 -80.5q0 -52 -23 -93.5t-58.5 -76t-79 -65l-84.5 -62t-74 -65.5t-48 -75h294v78z" />
    <glyph glyph-name="three" unicode="3" horiz-adv-x="605" 
d="M347 456q41 -8 76.5 -27t62 -47.5t42 -65.5t15.5 -82q0 -54 -19.5 -98.5t-54.5 -77t-83 -50.5t-105 -18q-44 0 -84 10t-70 29t-48 45t-18 59q0 41 24.5 60t51.5 19q31 0 50.5 -21t19.5 -49q0 -17 -9 -32t-20 -23q17 -14 43 -20.5t56 -6.5q39 0 72 12.5t57 35t37.5 54
t13.5 69.5q0 39 -14 68.5t-37.5 50t-53.5 31.5t-61 14l-56 -55q-13 -13 -30 -13t-27 12t-10 26q0 15 13 27l227 232h-281q-16 0 -27.5 10.5t-11.5 27.5q0 16 11.5 27t27.5 11h365q14 0 26.5 -9t12.5 -26q0 -18 -16 -35z" />
    <glyph glyph-name="four" unicode="4" horiz-adv-x="605" 
d="M589 242q0 -18 -12 -28t-29 -10h-101v-148q0 -23 -8 -40.5t-33 -17.5q-17 0 -28.5 11t-11.5 28v167h-306q-19 0 -29.5 12t-10.5 26q0 19 14 33q31 31 66.5 72t69.5 92t63 111t48 131q3 12 13 21.5t27 9.5q18 0 28 -10t10 -27q0 -4 -0.5 -9t-1.5 -10q-9 -38 -25.5 -80
t-39 -84.5t-49 -82.5t-54.5 -73l-26.5 -31.5l-23.5 -26.5h227v163q0 16 11.5 27t28.5 11t29 -11t12 -27v-163h101q17 0 29 -10t12 -26z" />
    <glyph glyph-name="five" unicode="5" horiz-adv-x="605" 
d="M277 60q39 0 72 13t57.5 36t38 55.5t13.5 71.5q0 40 -13.5 70.5t-37 51t-54.5 31t-66 10.5q-24 0 -56.5 -6t-59.5 -24l-4 -37q-2 -15 -13 -24t-27 -9q-20 0 -30 12.5t-10 29.5l24 325q1 16 12 25t28 9h336q17 0 28 -11t11 -27q0 -17 -11 -27.5t-28 -10.5h-301l-13 -178
q26 14 59 20.5t62 6.5q54 0 99.5 -17t79 -47.5t52 -74t18.5 -96.5q0 -54 -19.5 -99.5t-54.5 -78.5t-83 -51.5t-105 -18.5q-44 0 -84 10t-70 29t-48 45t-18 59q0 41 24.5 60t51.5 19q31 0 50.5 -21t19.5 -49q0 -17 -9 -32t-20 -23q17 -14 43 -20.5t56 -6.5z" />
    <glyph glyph-name="six" unicode="6" horiz-adv-x="605" 
d="M303 63q38 0 69 12.5t53 34t34 51.5t12 66t-12.5 66t-34 51.5t-52 33.5t-66.5 12t-66.5 -11.5t-53 -33t-35 -52t-12.5 -67.5q0 -35 11.5 -65t33 -52t51.5 -34t68 -12zM556 227q0 -52 -19 -95.5t-52.5 -75t-80 -49t-101.5 -17.5q-54 0 -101 18t-81 53t-53.5 85.5
t-19.5 115.5q0 69 20.5 130t55 112t78.5 91.5t91.5 69t94.5 43.5t87 15q26 0 36.5 -10.5t10.5 -26.5q0 -17 -10.5 -25t-25.5 -10q-38 -5 -85.5 -22.5t-95 -49t-88 -77.5t-62.5 -108q22 27 66 48t98 21q52 0 96 -18t75 -49.5t48.5 -74.5t17.5 -94z" />
    <glyph glyph-name="seven" unicode="7" horiz-adv-x="605" 
d="M553 660q0 -12 -4.5 -22t-15.5 -26l-83 -127t-93 -174q-17 -37 -29 -71.5t-21 -68t-15.5 -68t-10.5 -72.5q-2 -13 -12.5 -24t-30.5 -11t-32 11t-12 30q0 34 8.5 73.5t22.5 84.5q17 54 39.5 105.5t51 104t63 106.5l73.5 113h-313v-117q0 -17 -12.5 -28t-29.5 -11
q-16 0 -28.5 11t-12.5 28v153q0 17 12.5 28.5t28.5 11.5h416q18 0 29 -12.5t11 -27.5z" />
    <glyph glyph-name="eight" unicode="8" horiz-adv-x="605" 
d="M302 64q37 0 68.5 11.5t55 31t37 46t13.5 57.5q0 30 -13 57.5t-36.5 48t-55.5 32.5t-69 12q-38 0 -69.5 -12t-54.5 -32.5t-36 -48t-13 -57.5q0 -31 13 -57.5t36.5 -46t55 -31t68.5 -11.5zM181 535q0 -21 8.5 -40t24.5 -33.5t38.5 -23t49.5 -8.5t49.5 8.5t38.5 23t25 33.5
t9 40t-9 40t-25.5 33.5t-38.5 22.5t-49 8t-49 -8t-38 -22.5t-25 -33.5t-9 -40zM302 710q43 0 80.5 -13t65 -36t43.5 -54.5t16 -67.5q0 -42 -22.5 -80t-69.5 -59q33 -11 60 -30.5t46 -45t29.5 -55.5t10.5 -62q0 -44 -18 -83.5t-51.5 -69t-81.5 -47t-108 -17.5t-108 17.5
t-81 47t-51 69t-18 83.5q0 32 10.5 62t29.5 55.5t46 45t60 30.5q-47 21 -69.5 59t-22.5 80q0 36 16 67.5t43.5 54.5t64.5 36t80 13z" />
    <glyph glyph-name="nine" unicode="9" horiz-adv-x="605" 
d="M301 637q-38 0 -69 -12.5t-53 -34t-34 -51.5t-12 -66t12.5 -66t34 -51.5t52 -33.5t66.5 -12t66.5 11.5t53 33t35 52t12.5 67.5q0 35 -11.5 65t-33 51.5t-52 34t-67.5 12.5zM48 473q0 52 19 95.5t52.5 75t80 49t101.5 17.5q54 0 101 -18t81 -53t53.5 -85.5t19.5 -115.5
q0 -69 -20.5 -130t-55 -112t-78.5 -91.5t-91.5 -69t-94.5 -43.5t-87 -15q-26 0 -36.5 10.5t-10.5 26.5q0 17 10.5 25t25.5 10q37 5 85 22.5t95.5 49t87.5 77.5t63 108q-22 -27 -66 -48t-98 -21q-53 0 -96.5 18t-74.5 49.5t-48.5 74.5t-17.5 94z" />
    <glyph glyph-name="colon" unicode=":" horiz-adv-x="299" 
d="M65 399q0 35 25 60t60 25t59.5 -25t24.5 -60t-24.5 -60t-59.5 -25t-60 25t-25 60zM65 74q0 36 25 60.5t60 24.5t59.5 -24.5t24.5 -60.5q0 -35 -24.5 -59.5t-59.5 -24.5t-60 24.5t-25 59.5z" />
    <glyph glyph-name="semicolon" unicode=";" horiz-adv-x="310" 
d="M71 399q0 35 25 60t60 25t60 -25t25 -60t-25 -60t-60 -25t-60 25t-25 60zM71 73q0 35 24 59.5t62 24.5q40 0 67.5 -29.5t27.5 -82.5q0 -36 -14 -73t-38 -69t-55 -56.5t-64 -36.5q-5 -3 -11.5 -5t-10.5 -2q-15 0 -25.5 7.5t-10.5 24.5q0 20 21 30q43 20 76.5 53.5
t41.5 76.5q-2 0 -4.5 -0.5t-4.5 -0.5q-38 0 -60 22t-22 57z" />
    <glyph glyph-name="less" unicode="&#x3c;" horiz-adv-x="673" 
d="M649 285q0 -17 -11 -27.5t-28 -10.5h-448l180 -178q4 -3 10 -10.5t6 -21.5q0 -17 -11 -29t-30 -12q-8 0 -16 3t-15 10l-245 245q-14 14 -14 31t14 31l245 245q7 7 15 10t16 3q19 0 30 -12t11 -29q0 -14 -6 -21.5t-10 -10.5l-180 -178h448q17 0 28 -10.5t11 -27.5z" />
    <glyph glyph-name="equal" unicode="=" horiz-adv-x="610" 
d="M131 400q-17 0 -27.5 11t-10.5 26q0 16 10.5 26.5t27.5 10.5h348q16 0 26.5 -10.5t10.5 -26.5q0 -15 -10.5 -26t-26.5 -11h-348zM131 213q-17 0 -27.5 10.5t-10.5 26.5q0 15 10.5 25.5t27.5 10.5h348q16 0 26.5 -10.5t10.5 -25.5q0 -16 -10.5 -26.5t-26.5 -10.5h-348z
" />
    <glyph glyph-name="greater" unicode="&#x3e;" horiz-adv-x="673" 
d="M27 285q0 17 11 27.5t28 10.5h448l-180 178q-4 3 -10 10.5t-6 21.5q0 17 11 29t30 12q8 0 16 -3t15 -10l245 -245q14 -14 14 -31t-14 -31l-245 -245q-7 -7 -15 -10t-16 -3q-19 0 -30 12t-11 29q0 14 6 21.5t10 10.5l180 178h-448q-17 0 -28 10.5t-11 27.5z" />
    <glyph glyph-name="question" unicode="?" horiz-adv-x="506" 
d="M149 75q0 35 25 59.5t60 24.5t59.5 -24.5t24.5 -59.5t-24.5 -60t-59.5 -25t-60 25t-25 60zM267 278q0 -17 -11.5 -28t-28.5 -11t-28.5 11t-11.5 28v75q0 19 8.5 28t26.5 12q24 4 51.5 10.5t50.5 20t38 36t15 59.5q0 58 -36.5 89.5t-93.5 31.5q-22 0 -40 -5t-32 -12.5
t-23.5 -15.5t-14.5 -14q19 -7 31 -23t12 -39q0 -29 -20 -47.5t-49 -18.5q-18 0 -32.5 7t-24.5 18.5t-15.5 25.5t-5.5 29q0 35 16.5 65.5t45.5 52.5t68 34.5t84 12.5q50 0 89.5 -14.5t67.5 -40t42.5 -60.5t14.5 -75q0 -76 -48.5 -127.5t-145.5 -64.5v-50z" />
    <glyph glyph-name="at" unicode="@" horiz-adv-x="1042" 
d="M637 314q0 16 -4 33t-16 31.5t-33.5 23.5t-56.5 9q-38 0 -67.5 -9t-47.5 -19l-24 -11.5t-15 -3.5q-19 0 -28.5 11t-9.5 25q0 24 31 42q26 15 72 26.5t94 11.5q86 0 135.5 -43.5t49.5 -124.5v-178q0 -46 19.5 -62.5t49.5 -16.5q60 0 89 56t29 152q0 78 -25.5 143.5
t-73 113t-115 73.5t-151.5 26q-81 0 -154 -26t-129 -76.5t-89 -125t-33 -170.5q0 -82 26 -151.5t76 -120t124.5 -79t172.5 -28.5q66 0 120.5 13t97.5 30l25 10t18 4q15 0 24 -10.5t9 -25.5q0 -10 -5.5 -19.5t-19.5 -17.5q-18 -11 -47.5 -21.5t-66.5 -19t-78.5 -14
t-83.5 -5.5q-103 0 -190.5 32.5t-151 92t-99.5 143.5t-36 187t36 189.5t100 149.5t153 98t196 35q93 0 175 -28t144 -82t98 -133t36 -181q0 -58 -12.5 -109.5t-38.5 -90t-65 -61t-92 -22.5q-56 0 -84 19.5t-44 49.5q-31 -35 -77.5 -52t-91.5 -17q-36 0 -67 9t-54.5 27
t-37 45t-13.5 63q0 47 21 77t54.5 47t74.5 23.5t81 6.5h96v26zM637 219q-14 1 -29 1h-29q-29 0 -61.5 -1.5t-60.5 -10t-46.5 -25.5t-18.5 -48q0 -38 28 -57.5t68 -19.5q23 0 46 5.5t43.5 15t36 23t23.5 29.5v88z" />
    <glyph glyph-name="A" unicode="A" horiz-adv-x="722" 
d="M267 324h185l-92 276zM475 253h-230l-61 -178h85q17 0 28 -10.5t11 -26.5q0 -17 -11 -27.5t-28 -10.5h-233q-17 0 -28 10.5t-11 27.5q0 16 11 26.5t28 10.5h65l217 619q5 12 15 22t28 10q17 0 27.5 -9.5t14.5 -20.5l218 -621h65q17 0 28 -10.5t11 -26.5q0 -17 -11 -27.5
t-28 -10.5h-233q-17 0 -28.5 10.5t-11.5 27.5q0 16 11.5 26.5t28.5 10.5h82z" />
    <glyph glyph-name="B" unicode="B" horiz-adv-x="662" 
d="M243 322v-247h117q33 0 64 6t54 20.5t37 38t14 58.5q0 33 -13.5 56.5t-36.5 38.5t-52.5 22t-60.5 7h-123zM243 397h120q30 0 54 10t41.5 26.5t26.5 38.5t9 46q0 21 -7.5 40.5t-24 34t-43 23t-65.5 8.5h-111v-227zM75 0q-17 0 -28 10.5t-11 27.5q0 16 11 26.5t28 10.5h86
v549h-86q-17 0 -28 11t-11 27t11 27t28 11h282q61 0 103.5 -15.5t68.5 -40t37.5 -56t11.5 -62.5q0 -29 -8.5 -54t-23.5 -45.5t-34.5 -35t-41.5 -21.5q30 -8 56.5 -23t46 -37t31 -51t11.5 -64q0 -49 -20 -85.5t-53.5 -61t-78.5 -36.5t-96 -12h-292z" />
    <glyph glyph-name="C" unicode="C" horiz-adv-x="640" 
d="M587 208q0 -11 -5.5 -31.5t-17.5 -44.5t-31.5 -49.5t-48 -46t-66 -33.5t-85.5 -13q-64 0 -115.5 26t-87.5 72.5t-55.5 112t-19.5 144.5q0 84 20.5 151.5t57 115t86 73t106.5 25.5q43 0 85.5 -15.5t70.5 -55.5l-3 33q-2 16 9 27t27 11q17 0 27.5 -9.5t12.5 -25.5l24 -216
q2 -16 -9 -27t-31 -11q-30 0 -39 32q-10 37 -22 70t-30 58.5t-44.5 40.5t-66.5 15q-46 0 -82.5 -21.5t-62 -59.5t-39 -91.5t-13.5 -117.5q0 -63 14 -115t40 -89.5t63 -58.5t84 -21q40 0 68 13.5t47.5 36t33 51t24.5 58.5q9 25 35 25q20 0 29.5 -11t9.5 -28z" />
    <glyph glyph-name="D" unicode="D" horiz-adv-x="744" 
d="M340 700q81 0 145.5 -23t110 -66.5t70 -108t24.5 -146.5t-24.5 -148t-70 -112t-110 -71t-145.5 -25h-265q-17 0 -28 10.5t-11 27.5q0 16 11 26.5t28 10.5h86v549h-86q-17 0 -28 11t-11 27t11 27t28 11h265zM606 356q0 21 -3 49t-12.5 57.5t-27 58.5t-47.5 52t-74 37
t-105 14h-94v-549h94q61 0 105 15t74 39.5t47.5 55t27 61.5t12.5 60t3 50z" />
    <glyph glyph-name="E" unicode="E" horiz-adv-x="701" 
d="M370 471q0 17 12 28.5t29 11.5t29 -11.5t12 -28.5v-213q0 -17 -12 -28.5t-29 -11.5t-29 11.5t-12 28.5v68h-127v-251h315l23 120q3 17 15 25.5t26 8.5q17 0 30.5 -12.5t9.5 -32.5l-28 -152q-3 -14 -15.5 -23t-26.5 -9h-517q-17 0 -28 10.5t-11 27.5q0 16 11 26.5t28 10.5
h86v549h-86q-17 0 -28 11t-11 27t11 27t28 11h492q16 0 28 -10t13 -27l8 -138q1 -18 -11.5 -29.5t-29.5 -11.5t-28 10.5t-13 26.5l-7 103h-284v-222h127v69z" />
    <glyph glyph-name="F" unicode="F" horiz-adv-x="658" 
d="M249 624v-242h137v59q0 17 12 28.5t29 11.5t29.5 -11.5t12.5 -28.5v-199q0 -17 -12.5 -28.5t-29.5 -11.5t-29 11.5t-12 28.5v64h-137v-231h120q17 0 28 -10.5t11 -26.5q0 -17 -11 -27.5t-28 -10.5h-288q-17 0 -28 10.5t-11 27.5q0 16 11 26.5t28 10.5h86v549h-86
q-17 0 -28 11t-11 27t11 27t28 11h502q16 0 28 -10t13 -27l8 -138q1 -18 -11.5 -29.5t-29.5 -11.5t-28 10.5t-13 26.5l-7 103h-294z" />
    <glyph glyph-name="G" unicode="G" horiz-adv-x="677" 
d="M536 -1q-19 0 -30 11.5t-11 28.5v28q-29 -37 -73 -57t-96 -20q-63 0 -113.5 26t-85 73t-53 112t-18.5 144q0 85 20.5 152.5t57 115t86 72.5t106.5 25q42 0 84.5 -15.5t70.5 -55.5l-2 16q-1 6 -1.5 12t-0.5 8q0 16 12 25.5t26 9.5q17 0 27.5 -9.5t12.5 -25.5l23 -216
q2 -16 -9 -27t-31 -11q-31 0 -38 32q-9 37 -21 70.5t-31 58.5t-46.5 40t-67.5 15q-45 0 -81 -21.5t-61 -60t-38.5 -91.5t-13.5 -117q0 -62 13.5 -114t38.5 -89.5t61 -58.5t81 -21q32 0 58 9t46 23t33.5 31t21.5 33v78h-146q-17 0 -28 11t-11 27t11 27t28 11h284q17 0 28 -11
t11 -27t-11 -27t-28 -11h-55v-199q0 -17 -11 -28.5t-29 -11.5z" />
    <glyph glyph-name="H" unicode="H" horiz-adv-x="844" 
d="M601 326h-358v-251h86q17 0 28 -10.5t11 -26.5q0 -17 -11 -27.5t-28 -10.5h-254q-17 0 -28 10.5t-11 27.5q0 16 11 26.5t28 10.5h86v549h-86q-17 0 -28 11t-11 27t11 27t28 11h254q17 0 28 -11t11 -27t-11 -27t-28 -11h-86v-222h358v222h-86q-17 0 -28 11t-11 27t11 27
t28 11h254q17 0 28 -11t11 -27t-11 -27t-28 -11h-86v-549h86q17 0 28 -10.5t11 -26.5q0 -17 -11 -27.5t-28 -10.5h-254q-17 0 -28 10.5t-11 27.5q0 16 11 26.5t28 10.5h86v251z" />
    <glyph glyph-name="I" unicode="I" horiz-adv-x="476" 
d="M197 624h-132q-16 0 -27 11t-11 27t11 27t27 11h346q16 0 27 -11t11 -27t-11 -27t-27 -11h-132v-549h132q16 0 27 -10.5t11 -26.5q0 -17 -11 -27.5t-27 -10.5h-346q-16 0 -27 10.5t-11 27.5q0 16 11 26.5t27 10.5h132v549z" />
    <glyph glyph-name="J" unicode="J" horiz-adv-x="623" 
d="M401 624h-269q-16 0 -27 11t-11 27t11 27t27 11h422q17 0 28 -11t11 -27t-11 -27t-28 -11h-71v-396q0 -52 -14.5 -96t-44.5 -75.5t-75.5 -49t-107.5 -17.5q-56 0 -95 15.5t-64 39t-36.5 51.5t-11.5 53q0 41 23.5 65.5t59.5 24.5q29 0 52 -18.5t23 -53.5q0 -5 -1 -13.5
t-5.5 -18.5t-13 -19.5t-23.5 -17.5q11 -14 34 -25t60 -11q43 0 73 12.5t49 35t27.5 53t8.5 67.5v394z" />
    <glyph glyph-name="K" unicode="K" horiz-adv-x="776" 
d="M648 624l-237 -221l260 -328h59q17 0 28 -10.5t11 -26.5q0 -17 -11 -27.5t-28 -10.5h-223q-17 0 -28 10.5t-11 27.5q0 16 11 26.5t28 10.5h63l-217 276l-110 -104v-172h86q16 0 27 -10.5t11 -26.5q0 -17 -11 -27.5t-27 -10.5h-254q-17 0 -28 10.5t-11 27.5q0 16 11 26.5
t28 10.5h86v549h-86q-17 0 -28 11t-11 27t11 27t28 11h244q16 0 27 -11t11 -27t-11 -27t-27 -11h-76v-283l296 283h-62q-17 0 -28 11t-11 27t11 27t28 11h223q17 0 28 -11t11 -27t-11 -27t-28 -11h-52z" />
    <glyph glyph-name="L" unicode="L" horiz-adv-x="671" 
d="M571 195q3 17 15 25.5t26 8.5q17 0 30.5 -12.5t9.5 -32.5l-28 -152q-3 -14 -15.5 -23t-26.5 -9h-507q-17 0 -28 10.5t-11 27.5q0 16 11 26.5t28 10.5h86v549h-86q-17 0 -28 11t-11 27t11 27t28 11h279q17 0 28 -11t11 -27t-11 -27t-28 -11h-111v-549h305z" />
    <glyph glyph-name="M" unicode="M" horiz-adv-x="971" 
d="M523 118q-6 -14 -16.5 -20t-21.5 -6q-14 0 -24.5 6t-15.5 19l-205 486v-528h86q17 0 28 -10.5t11 -26.5q0 -17 -11 -27.5t-28 -10.5h-251q-17 0 -28 10.5t-11 27.5q0 16 11 26.5t28 10.5h86v549h-86q-17 0 -28 11t-11 27t11 27t28 11h178q14 0 26 -7t17 -20l190 -461
l190 460q5 14 18 21t27 7h175q16 0 27 -11t11 -27t-11 -27t-27 -11h-86v-549h86q16 0 27 -10.5t11 -26.5q0 -17 -11 -27.5t-27 -10.5h-254q-17 0 -28 10.5t-11 27.5q0 16 11 26.5t28 10.5h85v528z" />
    <glyph glyph-name="N" unicode="N" horiz-adv-x="799" 
d="M652 42q0 -19 -11.5 -31.5t-34.5 -12.5q-29 0 -49 32l-317 571v-526h106q16 0 27 -10.5t11 -26.5q0 -17 -11 -27.5t-27 -10.5h-271q-17 0 -28 10.5t-11 27.5q0 16 11 26.5t28 10.5h86v549h-86q-17 0 -28 11t-11 27t11 27t28 11h163q14 0 26 -5t20 -19l289 -526v474h-85
q-17 0 -28 11t-11 27t11 27t28 11h230q17 0 28 -11t11 -27t-11 -27t-28 -11h-66v-582z" />
    <glyph glyph-name="O" unicode="O" horiz-adv-x="670" 
d="M335 63q43 0 79.5 22.5t62 61t40 90.5t14.5 112t-14.5 112.5t-40.5 91t-62 61t-79 22.5q-44 0 -80 -22.5t-62 -61t-40.5 -91t-14.5 -112.5t14.5 -112t40.5 -90.5t62 -61t80 -22.5zM335 710q62 0 113.5 -28.5t88.5 -77.5t57.5 -114.5t20.5 -140.5t-20.5 -140t-57.5 -114
t-88.5 -77t-113.5 -28q-63 0 -114.5 28t-88.5 77t-57.5 114t-20.5 140t20.5 140.5t57.5 114.5t88.5 77.5t114.5 28.5z" />
    <glyph glyph-name="P" unicode="P" horiz-adv-x="626" 
d="M507 510q0 21 -7.5 41.5t-24 36.5t-43 26t-65.5 10h-124v-238h133q34 0 59 11t41 29t23.5 40t7.5 44zM369 700q61 0 104 -17t69 -44t38 -61t12 -67q0 -36 -13 -72t-39 -64.5t-66.5 -46.5t-95.5 -18h-135v-235h119q17 0 28 -10.5t11 -26.5q0 -17 -11 -27.5t-28 -10.5h-287
q-17 0 -28 10.5t-11 27.5q0 16 11 26.5t28 10.5h86v549h-86q-17 0 -28 11t-11 27t11 27t28 11h294z" />
    <glyph glyph-name="Q" unicode="Q" horiz-adv-x="670" 
d="M335 63q43 0 79.5 22.5t62 61t40 91t14.5 112.5t-14.5 112t-40.5 90.5t-62 61t-79 22.5q-44 0 -80 -22.5t-62 -61t-40.5 -90.5t-14.5 -112t14.5 -112.5t40.5 -91t62 -61t80 -22.5zM335 710q62 0 113.5 -28.5t88.5 -77t57.5 -114t20.5 -140.5q0 -69 -17 -130t-48.5 -108
t-75.5 -78t-98 -40v-52q0 -39 13.5 -62t49.5 -23q32 0 44.5 17t12.5 37q0 23 9 38.5t32 15.5q15 0 27.5 -9t12.5 -42q0 -23 -7.5 -46t-24.5 -41.5t-44 -30t-66 -11.5q-71 0 -106 42.5t-35 105.5v61q-54 9 -98.5 40t-76 78t-48.5 108t-17 130q0 75 20.5 140.5t57.5 114
t88.5 77t114.5 28.5z" />
    <glyph glyph-name="R" unicode="R" horiz-adv-x="734" 
d="M517 512q0 20 -7.5 40t-24 36t-43 26t-65.5 10h-134v-238h137q34 0 59.5 11t42.5 29t26 40.5t9 45.5zM492 179q-24 53 -54 86t-56 45h-139v-235h108q17 0 28.5 -10.5t11.5 -26.5q0 -17 -11.5 -27.5t-28.5 -10.5h-276q-17 0 -28 10.5t-11 27.5q0 16 11 26.5t28 10.5h86
v549h-86q-17 0 -28 11t-11 27t11 27t28 11h304q61 0 104 -16.5t69.5 -43t38.5 -59t12 -64.5q0 -25 -7.5 -52t-24 -51t-43 -44t-65.5 -30q29 -17 55.5 -47t53.5 -88l61 -130h78q17 0 28.5 -10.5t11.5 -26.5q0 -17 -11.5 -27.5t-28.5 -10.5h-112q-13 0 -23.5 7t-15.5 18z" />
    <glyph glyph-name="S" unicode="S" horiz-adv-x="625" 
d="M574 187q0 -41 -14.5 -77t-42 -62.5t-68.5 -42t-95 -15.5q-69 0 -119.5 25.5t-79.5 64.5l3 -47q0 -19 -10.5 -31t-28.5 -12q-17 0 -28 10t-13 27l-17 197q-2 17 9 30.5t31 13.5q13 0 24 -7.5t16 -21.5l18.5 -48t35 -59t61 -50t96.5 -21q35 0 60.5 10t42.5 27t25 38.5
t8 45.5q0 36 -18 59t-47 39t-66 27l-76 22t-76 25.5t-66 36t-47 54t-18 80.5q0 40 14.5 74t41 59t64 38.5t83.5 13.5q48 0 92 -17.5t70 -54.5l-4 32q-2 19 10.5 29t26.5 10q17 0 28.5 -9.5t13.5 -26.5l21 -180q0 -13 -9.5 -24.5t-31.5 -11.5q-16 0 -26.5 13.5t-20.5 34
l-21 44t-28.5 44t-44 34t-66.5 13.5q-54 0 -91 -27.5t-37 -80.5q0 -35 18 -57.5t47 -38t66.5 -26.5l76 -22.5t76 -26t66.5 -37t47 -55.5t18 -82z" />
    <glyph glyph-name="T" unicode="T" horiz-adv-x="665" 
d="M125 624l-12 -113q-2 -16 -12 -25.5t-29 -9.5q-18 0 -31 11.5t-11 29.5l16 149q2 17 13 25.5t27 8.5h493q16 0 27 -8.5t13 -25.5l16 -149q2 -18 -11 -29.5t-31 -11.5q-19 0 -29 9.5t-12 25.5l-12 113h-166v-549h124q17 0 28.5 -10.5t11.5 -26.5q0 -17 -11.5 -27.5
t-28.5 -10.5h-331q-17 0 -28.5 10.5t-11.5 27.5q0 16 11.5 26.5t28.5 10.5h124v549h-166z" />
    <glyph glyph-name="U" unicode="U" horiz-adv-x="805" 
d="M665 259q0 -84 -28 -137t-68.5 -82t-86 -39.5t-81.5 -10.5q-38 0 -83.5 10.5t-85 39.5t-66 80.5t-26.5 133.5v370h-76q-17 0 -28 11t-11 27t11 27t28 11h244q17 0 28 -11t11 -27t-11 -27t-28 -11h-86v-368q0 -96 50 -145.5t131 -49.5t132 50.5t51 146.5v366h-89
q-17 0 -28 11t-11 27t11 27t28 11h244q17 0 28 -11t11 -27t-11 -27t-28 -11h-76v-365z" />
    <glyph glyph-name="V" unicode="V" horiz-adv-x="730" 
d="M540 624h-79q-17 0 -28 11t-11 27t11 27t28 11h234q17 0 28 -11t11 -27t-11 -27t-28 -11h-70l-219 -603q-5 -11 -14.5 -20.5t-26.5 -9.5q-18 0 -28 9t-14 20l-219 604h-70q-16 0 -27 11t-11 27t11 27t27 11h235q17 0 28 -11t11 -27t-11 -27t-28 -11h-77l174 -494z" />
    <glyph glyph-name="W" unicode="W" horiz-adv-x="1097" 
d="M366 130l141 396l-36 98h-278zM908 624h-80q-17 0 -28 11t-11 27t11 27t28 11h234q17 0 28 -11t11 -27t-11 -27t-28 -11h-70l-219 -603q-5 -11 -14.5 -20.5t-26.5 -9.5q-18 0 -28 9t-14 20l-143 401l-140 -400q-4 -11 -14.5 -20.5t-27.5 -9.5t-27 9t-14 20l-219 604h-70
q-16 0 -27.5 11t-11.5 27t11.5 27t27.5 11h616q17 0 28 -11t11 -27t-11 -27t-28 -11h-92l174 -494z" />
    <glyph glyph-name="X" unicode="X" horiz-adv-x="724" 
d="M368 403l141 221h-68q-17 0 -28 11t-11 27t11 27t28 11h220q17 0 28 -11t11 -27t-11 -27t-28 -11h-63l-184 -281l190 -268h68q16 0 27 -10.5t11 -26.5q0 -17 -11 -27.5t-27 -10.5h-228q-17 0 -28 10.5t-11 27.5q0 16 11 26.5t28 10.5h62l-150 217l-141 -217h87
q16 0 27 -10.5t11 -26.5q0 -17 -11 -27.5t-27 -10.5h-248q-17 0 -28 10.5t-11 27.5q0 16 11 26.5t28 10.5h67l188 281l-185 268h-64q-16 0 -27 11t-11 27t11 27t27 11h224q17 0 28 -11t11 -27t-11 -27t-28 -11h-64z" />
    <glyph glyph-name="Y" unicode="Y" horiz-adv-x="712" 
d="M358 326l172 298h-75q-17 0 -28 11t-11 27t11 27t28 11h220q17 0 28 -11t11 -27t-11 -27t-28 -11h-58l-221 -375v-174h95q17 0 28 -10.5t11 -26.5q0 -17 -11 -27.5t-28 -10.5h-274q-16 0 -27 10.5t-11 27.5q0 16 11 26.5t27 10.5h96v177l-218 372h-58q-17 0 -27.5 11
t-10.5 27t10.5 27t27.5 11h223q17 0 28 -11t11 -27t-11 -27t-28 -11h-72z" />
    <glyph glyph-name="Z" unicode="Z" horiz-adv-x="650" 
d="M505 216q0 17 11.5 28.5t29.5 11.5q17 0 28.5 -11.5t11.5 -28.5v-178q0 -17 -11.5 -27.5t-28.5 -10.5h-458q-19 0 -28.5 11t-9.5 25q0 7 2.5 15.5t7.5 14.5l420 558h-331v-110q0 -17 -12 -28.5t-29 -11.5t-28.5 11.5t-11.5 28.5v146q0 17 12 28.5t29 11.5h442
q18 0 29.5 -11.5t11.5 -27.5q0 -7 -2.5 -15t-7.5 -15l-417 -556h340v141z" />
    <glyph glyph-name="backslash" unicode="\" horiz-adv-x="462" 
d="M-49 774q-8 14 -8 27q0 15 11.5 25.5t27.5 10.5q21 0 32 -19l510 -922q7 -12 7 -23q0 -17 -12 -26.5t-27 -9.5q-24 0 -34 20z" />
    <glyph glyph-name="asciicircum" unicode="^" horiz-adv-x="610" 
d="M305 710q23 0 33 -21l170 -357q3 -7 6.5 -16t3.5 -17q0 -18 -11.5 -27.5t-27.5 -9.5q-26 0 -35 22l-139 308l-139 -308q-11 -22 -35 -22q-16 0 -27.5 9.5t-11.5 27.5q0 8 3.5 17t6.5 16l170 357q10 21 33 21z" />
    <glyph glyph-name="underscore" unicode="_" horiz-adv-x="426" 
d="M76 -156q-16 0 -27 10.5t-11 26.5t11 26.5t27 10.5h274q15 0 26.5 -10.5t11.5 -26.5t-11.5 -26.5t-26.5 -10.5h-274z" />
    <glyph glyph-name="grave" unicode="`" horiz-adv-x="450" 
d="M94 668q-11 6 -15.5 15.5t-4.5 18.5q0 17 11.5 27t26.5 10q11 0 19 -4l224 -125q10 -5 14.5 -14t4.5 -18q0 -14 -10.5 -25t-26.5 -11q-5 0 -10.5 1t-12.5 5z" />
    <glyph glyph-name="a" unicode="a" horiz-adv-x="541" 
d="M362 219q-14 1 -29 1h-29q-29 0 -61.5 -1.5t-60.5 -10t-46.5 -25.5t-18.5 -48q0 -38 28 -57.5t68 -19.5q23 0 46 5.5t43.5 15t36 23t23.5 29.5v88zM365 55q-31 -35 -73 -50t-84 -15q-36 0 -67 9t-54.5 27t-37 45t-13.5 63q0 47 21 77t54.5 47t74.5 23.5t81 6.5l95 -2v28
q0 16 -4 33t-16 31.5t-33.5 23.5t-56.5 9q-38 0 -68 -9t-48 -19l-24 -11.5t-15 -3.5q-19 0 -28.5 11t-9.5 25q0 24 31 42q13 7 31.5 14t40.5 12.5t46.5 8.5t48.5 3q86 0 136 -43.5t50 -124.5v-242h53q15 0 27 -10t12 -26q0 -14 -10 -26t-31 -12h-90q-17 0 -28 10.5t-11 26.5
v18z" />
    <glyph glyph-name="b" unicode="b" horiz-adv-x="578" 
d="M452 236q0 35 -9.5 66.5t-28 55.5t-46 38t-62.5 14t-62.5 -14t-46.5 -38t-29 -55.5t-10 -66.5t9.5 -66t28.5 -55t46.5 -38t62.5 -14t62.5 14t46 38t28.5 55t10 66zM120 700q16 0 27 -11t11 -26v-255q24 35 65 55.5t91 20.5q52 0 93 -19.5t69.5 -52.5t43.5 -78t15 -96
q0 -53 -15.5 -98t-45 -78.5t-70.5 -52.5t-92 -19t-90.5 19.5t-62.5 55.5v-36q0 -17 -12 -28t-29 -11t-28.5 11t-11.5 28v597h-75q-16 1 -27 11t-11 26q0 15 11.5 26t26.5 11h117z" />
    <glyph glyph-name="c" unicode="c" horiz-adv-x="519" 
d="M283 484q38 0 72 -10t59 -28t39.5 -41.5t14.5 -50.5q0 -34 -20.5 -55t-51.5 -21q-29 0 -50 19t-21 48q0 16 7 30t20 22q-10 7 -28.5 12.5t-39.5 5.5q-30 0 -59 -12t-51 -34.5t-35.5 -55.5t-13.5 -75q0 -36 10 -67.5t30 -55.5t50 -38t70 -14q26 0 46 6.5t35.5 17.5
t27.5 24t21 27q12 18 33 18q14 0 25.5 -10t11.5 -27q0 -15 -9.5 -30t-17.5 -24q-18 -22 -40 -36.5t-46 -23t-48 -12t-47 -3.5q-54 0 -98 18.5t-74.5 51.5t-47 78t-16.5 98q0 58 19.5 104.5t53 78t77.5 48.5t92 17z" />
    <glyph glyph-name="d" unicode="d" horiz-adv-x="619" 
d="M126 236q0 -35 9.5 -66t28 -55t46 -38t62.5 -14t62.5 14t46 38t28.5 55t10 66t-10 66.5t-28.5 55.5t-46 38t-62.5 14t-62.5 -14t-46 -38t-28 -55.5t-9.5 -66.5zM419 68q-24 -39 -65 -58.5t-91 -19.5q-51 0 -92 19t-69.5 52t-44 78t-15.5 97t15.5 97t44.5 78.5t70.5 53
t93.5 19.5q50 0 89.5 -20.5t63.5 -55.5v218h-73q-17 0 -28 10.5t-11 26.5q0 15 11 26t28 11h115q17 0 28 -11t11 -26v-589h75q16 -1 26.5 -11.5t10.5 -25.5q0 -16 -10.5 -26.5t-26.5 -10.5h-119q-16 0 -26.5 9.5t-10.5 25.5v33z" />
    <glyph glyph-name="e" unicode="e" horiz-adv-x="528" 
d="M272 415q-54 0 -90.5 -33t-47.5 -82h267q-8 51 -42.5 83t-86.5 32zM456 65q-35 -40 -83.5 -57.5t-96.5 -17.5q-53 0 -96.5 19t-74 52t-47 78t-16.5 96q0 56 17.5 102t49 78.5t73.5 50.5t92 18t89.5 -18.5t67 -48.5t42 -68t14.5 -77q0 -20 -9.5 -31.5t-33.5 -11.5h-318
q0 -31 10.5 -60.5t30 -53t47.5 -37.5t64 -14q50 0 82 21t53 52q13 19 34 19q14 0 25 -10t11 -27q0 -15 -9 -29.5t-18 -24.5z" />
    <glyph glyph-name="f" unicode="f" horiz-adv-x="469" 
d="M245 474h151q17 0 28 -10t11 -27q0 -15 -11 -26t-28 -11h-151v-326h146q17 0 28 -10.5t11 -26.5t-11 -26.5t-28 -10.5h-332q-17 0 -27.5 10.5t-10.5 26.5t10.5 26.5t27.5 10.5h106v326h-96q-17 0 -27.5 11t-10.5 26q0 17 10.5 27t27.5 10h96v54q0 54 16 97t44.5 73
t68.5 46t89 16q42 0 75.5 -11t57 -29t36.5 -42t13 -51q0 -33 -21.5 -54.5t-51.5 -21.5t-51 19.5t-21 46.5q0 16 8 31.5t23 23.5q-14 10 -30.5 14t-34.5 4q-29 0 -55 -9t-45 -29t-30 -51.5t-11 -76.5v-50z" />
    <glyph glyph-name="g" unicode="g" horiz-adv-x="565" 
d="M158 303q0 -54 34.5 -83t86.5 -29t86 29t34 82q0 54 -34 83.5t-86 29.5t-86.5 -29t-34.5 -83zM96 -103q0 -21 14 -37t38.5 -27t59 -16.5t76.5 -5.5t77.5 5.5t62 16.5t41 27.5t14.5 38.5q0 42 -51 61.5t-138 19.5q-43 0 -78.5 -5t-61 -15t-40 -25.5t-14.5 -37.5zM519 529
q5 5 11.5 9t17.5 4q15 0 26.5 -11t11.5 -25q0 -11 -6.5 -21t-17.5 -22l-92 -102q4 -14 6 -27.5t2 -30.5q0 -41 -15.5 -74.5t-42.5 -56.5t-63.5 -35.5t-78.5 -12.5q-23 0 -39.5 2.5t-29.5 5t-23.5 5t-20.5 2.5q-13 0 -28.5 -9.5t-15.5 -30.5q0 -14 5.5 -24t14.5 -17t19.5 -11
t20.5 -7q27 5 51.5 7t56.5 2q141 0 207.5 -40.5t66.5 -106.5q0 -69 -73 -113.5t-214 -44.5q-67 0 -117 11.5t-83 31.5t-49.5 47.5t-16.5 59.5q0 38 26 70.5t71 44.5q-10 4 -21 11.5t-20 18.5t-14.5 25.5t-5.5 32.5q0 21 9 37.5t21.5 27.5t27 16.5t26.5 6.5q-22 18 -37.5 51
t-15.5 67q0 40 14.5 73t41 57t64 37.5t82.5 13.5q42 0 81.5 -13.5t67.5 -42.5z" />
    <glyph glyph-name="h" unicode="h" horiz-adv-x="643" 
d="M115 625h-66q-17 0 -28 11t-11 26q0 17 11 27.5t28 10.5h108q16 0 27 -10.5t11 -27.5v-269q26 46 70 68.5t92 22.5q37 0 69 -10.5t55 -32.5t36 -54.5t13 -75.5v-237h65q17 0 28 -11.5t11 -25.5q0 -16 -11 -26.5t-28 -10.5h-198q-16 0 -27 10.5t-11 26.5t11 26.5t27 10.5
h53v239q0 28 -9 47t-23.5 30.5t-32 16.5t-34.5 5q-29 0 -57 -12t-50 -36t-35.5 -59.5t-13.5 -81.5v-149h71q17 0 27.5 -11t10.5 -26q0 -16 -11 -26.5t-27 -10.5h-216q-14 0 -26 10.5t-12 26.5t11 26.5t27 10.5h65v551z" />
    <glyph glyph-name="i" unicode="i" horiz-adv-x="421" 
d="M129 631q0 32 23.5 55.5t55.5 23.5t55.5 -23.5t23.5 -55.5t-23.5 -55.5t-55.5 -23.5t-55.5 23.5t-23.5 55.5zM259 74h118q16 0 26.5 -10.5t10.5 -26.5t-10.5 -26.5t-26.5 -10.5h-316q-16 0 -26.5 10.5t-10.5 26.5t10.5 26.5t26.5 10.5h118v326h-112q-16 0 -27 11t-11 26
q0 17 11 27t27 10h154q16 0 27 -10.5t11 -27.5v-362z" />
    <glyph glyph-name="j" unicode="j" horiz-adv-x="326" 
d="M117 631q0 32 23.5 55.5t55.5 23.5t55.5 -23.5t23.5 -55.5t-23.5 -55.5t-55.5 -23.5t-55.5 23.5t-23.5 55.5zM247 -64q0 -44 -14 -78.5t-39.5 -58.5t-60.5 -36.5t-77 -12.5q-30 0 -58.5 7.5t-50 21.5t-35 35.5t-13.5 49.5q0 36 22.5 58t53.5 22q35 0 52 -20.5t17 -44.5
q0 -14 -7 -28t-18 -22q7 -5 19 -7.5t22 -2.5q20 0 39 6.5t34 20.5t24.5 37t9.5 56v461h-124q-16 0 -27 11t-11 26q0 17 11 27t27 10h166q17 0 27.5 -10.5t10.5 -27.5v-500z" />
    <glyph glyph-name="k" unicode="k" horiz-adv-x="657" 
d="M295 233l-96 -83v-76h71q16 0 26.5 -11t10.5 -26q0 -16 -10.5 -26.5t-27.5 -10.5h-220q-17 0 -28 10.5t-11 26.5t11 26.5t28 10.5h69v551h-71q-16 0 -27 11t-11 26q0 17 11 27.5t27 10.5h113q17 0 28 -10.5t11 -27.5v-428l193 166h-77q-16 0 -27 11t-11 26q0 17 11 27
t27 10h271q17 0 27.5 -10t10.5 -27q0 -15 -10.5 -26t-27.5 -11h-88l-141 -120l151 -206h93q16 0 27 -10.5t11 -26.5t-11 -26.5t-27 -10.5h-101q-23 0 -35 5.5t-20 16.5z" />
    <glyph glyph-name="l" unicode="l" horiz-adv-x="403" 
d="M242 74h117q16 0 27 -10.5t11 -26.5t-11 -26.5t-27 -10.5h-315q-16 0 -27 10.5t-11 26.5t11 26.5t27 10.5h117v551h-112q-16 0 -27 11t-11 26q0 17 11 27.5t27 10.5h154q17 0 28 -10.5t11 -27.5v-588z" />
    <glyph glyph-name="m" unicode="m" horiz-adv-x="972" 
d="M520 380q26 51 70 77.5t98 26.5q37 0 68 -10.5t54 -32t36 -54t13 -75.5v-238h65q17 0 28 -11.5t11 -25.5q0 -16 -11 -26.5t-28 -10.5h-198q-16 0 -27 10.5t-11 26.5t11 26.5t27 10.5h53v239q0 28 -9 47t-23 30.5t-31.5 16.5t-34.5 5q-29 0 -54.5 -11.5t-45 -34.5t-31 -57
t-11.5 -79v-156h64q17 0 28 -11.5t11 -25.5q0 -16 -11 -26.5t-28 -10.5h-196q-17 0 -27.5 10.5t-10.5 26.5t10.5 26.5t27.5 10.5h52v239q0 28 -8.5 47t-22 30.5t-31 16.5t-35.5 5q-30 0 -56.5 -12t-47 -36t-32.5 -59.5t-12 -81.5v-149h66q17 0 27.5 -11.5t10.5 -25.5
q0 -16 -11 -26.5t-27 -10.5h-211q-16 0 -27 10.5t-11 26.5t11 26.5t27 10.5h65v326h-66q-17 0 -28 11t-11 26q0 17 11 27t28 10h105q17 0 28 -10.5t11 -27.5v-44q23 45 66 68.5t91 23.5q57 0 95.5 -26.5t55.5 -77.5z" />
    <glyph glyph-name="n" unicode="n" horiz-adv-x="662" 
d="M134 74v326h-66q-14 0 -26.5 11t-12.5 26q0 17 11 27t28 10h105q17 0 28 -10.5t11 -27.5v-44q26 47 71 69.5t93 22.5q37 0 69 -10.5t55 -32.5t36 -54.5t13 -75.5v-237h65q14 0 26.5 -11t12.5 -26q0 -16 -11 -26.5t-28 -10.5h-198q-14 0 -26 10.5t-12 26.5t11 26.5
t27 10.5h53v239q0 28 -9 47t-23.5 30.5t-32 16.5t-34.5 5q-29 0 -57 -12t-50 -36t-35.5 -59.5t-13.5 -81.5v-149h71q17 0 27.5 -11t10.5 -26q0 -16 -11 -26.5t-27 -10.5h-216q-14 0 -26 10.5t-12 26.5t11 26.5t27 10.5h65z" />
    <glyph glyph-name="o" unicode="o" horiz-adv-x="541" 
d="M270 63q36 0 63 14t46 38t28.5 55t9.5 66t-9.5 66.5t-28.5 55.5t-46 38t-63 14q-35 0 -62.5 -14t-46 -38t-28 -55.5t-9.5 -66.5t9.5 -66t28 -55t46 -38t62.5 -14zM270 484q52 0 94 -19t72 -52.5t46 -79t16 -97.5t-16 -97t-46 -78t-72 -52t-94 -19q-51 0 -93 19t-72 52
t-46.5 78t-16.5 97t16.5 97.5t46.5 79t72 52.5t93 19z" />
    <glyph glyph-name="p" unicode="p" horiz-adv-x="619" 
d="M347 63q35 0 62.5 14t46 38t28 55t9.5 66t-9.5 66.5t-28 55.5t-46 38t-62.5 14t-62.5 -14t-46.5 -38t-28.5 -55.5t-9.5 -66.5t9.5 -66t28.5 -55t46.5 -38t62.5 -14zM198 405q25 37 66.5 58t91.5 21q52 0 93 -19.5t69.5 -52.5t43.5 -78t15 -96q0 -53 -15.5 -98t-45 -78.5
t-71 -52.5t-92.5 -19t-90 19.5t-63 55.5v-231h103q17 -1 28 -11t11 -26t-11 -26.5t-28 -10.5h-253q-17 0 -27.5 10.5t-10.5 26.5t10.5 26.5t27.5 10.5h70v566h-71q-17 1 -28 11.5t-11 25.5q0 17 11 27t28 10h111q16 0 27 -11t11 -26v-32z" />
    <glyph glyph-name="q" unicode="q" horiz-adv-x="577" 
d="M126 236q0 -35 9.5 -66t28 -55t46 -38t62.5 -14t62.5 14t46 38t28.5 55t10 66t-10 66.5t-28.5 55.5t-46 38t-62.5 14t-62.5 -14t-46 -38t-28 -55.5t-9.5 -66.5zM419 446q0 15 11.5 26.5t28.5 11.5t28.5 -11.5t11.5 -26.5v-612h68q16 0 27 -10.5t11 -25.5q0 -17 -11 -27.5
t-27 -10.5h-259q-17 0 -28 10.5t-11 27.5q0 15 11 25.5t28 10.5h111v234q-24 -39 -65 -58.5t-91 -19.5q-51 0 -92 19t-69.5 52t-44 78t-15.5 97t15.5 97t44.5 78.5t70.5 53t93.5 19.5q50 0 89.5 -20.5t63.5 -55.5v38z" />
    <glyph glyph-name="r" unicode="r" horiz-adv-x="520" 
d="M70 400q-14 0 -26.5 11t-12.5 26q0 17 11 27t28 10h105q17 0 28 -10.5t11 -27.5v-38q22 38 62.5 62t93.5 24q27 0 51 -7.5t41.5 -21.5t28 -33.5t10.5 -42.5q0 -37 -22 -57t-51 -20q-28 0 -49 16.5t-21 46.5q0 29 23 44q-16 8 -39 8t-45.5 -11t-40 -33.5t-28.5 -57
t-11 -80.5v-161h116q17 0 27.5 -11t10.5 -26q0 -16 -11 -26.5t-27 -10.5h-266q-14 0 -26 10.5t-12 26.5t11 26.5t27 10.5h69v326h-66z" />
    <glyph glyph-name="s" unicode="s" horiz-adv-x="501" 
d="M479 136q0 -31 -12 -58t-35.5 -46.5t-58 -30.5t-79.5 -11q-65 0 -106.5 21t-62.5 44v-27q0 -17 -12.5 -26.5t-26.5 -9.5q-17 0 -28.5 10.5t-11.5 27.5v119q0 15 8.5 27.5t28.5 12.5q15 0 26 -12q9 -9 21.5 -28.5t33 -40t51.5 -36t76 -15.5q57 0 80.5 23t23.5 52
q0 23 -14 37t-37.5 21.5t-53.5 11.5l-61.5 8.5t-62 11.5t-54.5 21q-26 15 -42 39.5t-16 65.5q0 59 43 97.5t125 38.5q42 0 82 -14.5t64 -44.5l-1 19q0 16 8.5 28t30.5 12q17 0 28.5 -11t11.5 -27v-99q0 -16 -10 -27.5t-27 -11.5q-14 0 -23.5 7t-14.5 15q-3 6 -13 21
t-27.5 30.5t-43.5 27.5t-62 12q-46 0 -67.5 -19t-21.5 -48q0 -27 20 -40.5t51 -20t69 -10.5t75 -12q26 -6 49 -16t40.5 -26t28 -39t10.5 -54z" />
    <glyph glyph-name="t" unicode="t" horiz-adv-x="476" 
d="M209 474h183q16 0 26.5 -10t10.5 -27q0 -15 -10.5 -26t-26.5 -11h-183v-264q0 -32 22 -52t54 -20q33 0 53.5 20.5t20.5 51.5v53q0 17 12.5 28t29.5 11t28 -11t11 -28v-53q0 -32 -11.5 -58.5t-32.5 -46t-50 -30.5t-63 -11q-33 0 -61 9.5t-48.5 28t-32.5 46t-12 62.5v264
h-86q-16 0 -27 11t-11 26q0 17 11 27t27 10h86v180q0 16 11.5 27.5t28.5 11.5t28.5 -11.5t11.5 -27.5v-180z" />
    <glyph glyph-name="u" unicode="u" horiz-adv-x="650" 
d="M527 74h74q17 0 28 -10.5t11 -26.5t-11 -26.5t-28 -10.5h-114q-17 0 -28 10.5t-11 26.5v41q-27 -44 -72 -66t-93 -22q-74 0 -120 43t-46 130v237h-70q-17 0 -28 11t-11 26q0 17 11 27t28 10h112q16 0 27 -10t11 -27v-277q0 -29 8.5 -48t21.5 -30t29.5 -15.5t33.5 -4.5
q29 0 57 11.5t50 34.5t35.5 58.5t13.5 82.5v151h-76q-16 0 -26.5 11t-10.5 26q0 17 10.5 27t27.5 10h117q17 0 28 -10.5t11 -27.5v-362z" />
    <glyph glyph-name="v" unicode="v" horiz-adv-x="617" 
d="M308 -11q-15 0 -27 6.5t-18 20.5l-171 384h-50q-16 0 -27 11t-11 26q0 17 11 27t27 10h196q16 0 27 -10t11 -27q0 -15 -11 -26t-27 -11h-57l129 -300l129 300h-56q-16 0 -27.5 11t-11.5 26q0 17 11.5 27t27.5 10h192q16 0 26.5 -10t10.5 -27q0 -15 -10.5 -26t-26.5 -11
h-51l-172 -384q-12 -27 -44 -27z" />
    <glyph glyph-name="w" unicode="w" horiz-adv-x="894" 
d="M619 104l98 296h-69q-16 0 -27 11t-11 26q0 17 11 27t27 10h204q16 0 27 -10t11 -27q0 -15 -11 -26t-27 -11h-50l-140 -384q-5 -13 -17.5 -20t-26.5 -7q-15 0 -27.5 7t-17.5 21l-125 333l-128 -333q-5 -14 -17 -21t-27 -7q-16 0 -28 6.5t-17 20.5l-139 384h-51
q-16 0 -26.5 11t-10.5 26q0 17 10.5 27t26.5 10h207q15 0 26.5 -10t11.5 -27q0 -15 -11.5 -26t-26.5 -11h-69l98 -296l131 341q5 14 16 21t25 7q13 0 24.5 -7t16.5 -21z" />
    <glyph glyph-name="x" unicode="x" horiz-adv-x="610" 
d="M105 74l144 169l-144 157h-40q-17 0 -27.5 11t-10.5 26q0 16 11 26.5t27 10.5h183q14 0 26 -10.5t12 -26.5t-11 -26.5t-27 -10.5h-44l110 -122l101 122h-42q-17 0 -27.5 11t-10.5 26q0 16 11 26.5t27 10.5h175q14 0 26 -10.5t12 -26.5t-11 -26.5t-27 -10.5h-44l-143 -169
l145 -157h42q16 2 27 -9.5t11 -27.5t-12 -26.5t-26 -10.5h-175q-16 0 -27 10t-11 26q0 15 10.5 27t27.5 11h33l-110 122l-101 -122h53q16 0 27 -11t11 -27t-12 -26t-26 -10h-183q-16 0 -27 10t-11 26q0 15 10.5 26.5t27.5 11.5h40z" />
    <glyph glyph-name="y" unicode="y" horiz-adv-x="620" 
d="M98 -250q-30 0 -55.5 8t-44 23t-29.5 35.5t-11 44.5q0 35 22.5 56.5t52.5 21.5q29 0 48.5 -18.5t19.5 -49.5q0 -13 -6.5 -26.5t-16.5 -21.5q5 -2 13.5 -3t16.5 -1q34 0 59 17.5t44.5 44.5t34 59.5t26.5 62.5l-176 397h-55q-16 0 -27 10.5t-11 25.5q0 17 11 27.5t27 10.5
h202q16 0 27 -10.5t11 -27.5q0 -15 -11 -25.5t-27 -10.5h-57l132 -308l130 308h-61q-16 0 -27.5 10.5t-11.5 25.5q0 17 11.5 27.5t27.5 10.5h192q16 0 26.5 -10.5t10.5 -27.5q0 -15 -10.5 -25.5t-26.5 -10.5h-51l-208 -481q-36 -84 -90.5 -126.5t-131.5 -42.5z" />
    <glyph glyph-name="z" unicode="z" horiz-adv-x="545" 
d="M415 172q0 17 11.5 28t28.5 11t28.5 -11t11.5 -28v-135q0 -17 -11 -27t-28 -10h-373q-18 0 -29.5 11.5t-11.5 28.5q0 20 18 38l314 322h-239v-89q0 -17 -12 -28t-29 -11t-28.5 11t-11.5 28v126q0 17 11.5 27t28.5 10h352q21 0 33 -11.5t12 -28.5q0 -19 -19 -40l-312 -320
h255v98z" />
    <glyph glyph-name="asciitilde" unicode="~" horiz-adv-x="610" 
d="M198 335q-14 0 -21 -6.5l-12 -11.5q-11 -17 -19 -25t-24 -8t-25.5 11t-9.5 27q0 12 7 27.5t20.5 29t34 23t48.5 9.5q25 0 54.5 -8t58.5 -18t54.5 -18t42.5 -8q16 0 24.5 8t15 17.5t14 17.5t21.5 8q19 0 27.5 -10.5t8.5 -27.5q0 -14 -7.5 -29.5t-22 -29t-35 -22
t-45.5 -8.5q-26 0 -57 8t-60 18l-54 18t-39 8z" />
    <glyph glyph-name="dagger" unicode="&#x2020;" horiz-adv-x="505" 
d="M252 -79q-17 0 -28.5 11t-11.5 28v444h-169q-17 0 -27.5 11t-10.5 26q0 16 10.5 27t27.5 11h169v257q0 17 11.5 28t28.5 11t28.5 -11t11.5 -28v-257h169q17 0 28 -11t11 -27q0 -15 -11 -26t-28 -11h-169v-444q0 -17 -11.5 -28t-28.5 -11z" />
    <glyph glyph-name="degree" unicode="&#xb0;" horiz-adv-x="426" 
d="M115 531q0 -21 5.5 -39.5t17.5 -32.5t30.5 -22t44.5 -8q25 0 43.5 8t30.5 22t18 32.5t6 39.5q0 42 -24 73t-74 31q-51 0 -74.5 -31t-23.5 -73zM390 532q0 -36 -12 -67.5t-35 -55t-55.5 -37t-74.5 -13.5t-75 13.5t-56 37t-35 55t-12 67.5t12 67.5t35 55t56 37t75 13.5
t74.5 -13.5t55.5 -37t35 -55t12 -67.5z" />
    <glyph glyph-name="cent" unicode="&#xa2;" horiz-adv-x="690" 
d="M206 238q0 -53 21.5 -96t65.5 -64l31 331q-48 -14 -83 -57.5t-35 -113.5zM286 0q-39 10 -69.5 32t-51.5 53t-32 69t-11 82q0 53 16.5 96t45 74.5t66.5 51t81 24.5l16 185q2 13 11 23.5t27 10.5q19 0 29.5 -11.5t8.5 -25.5l-17 -184q31 -5 57 -16.5t45 -28.5t30 -37.5
t11 -43.5q0 -34 -20.5 -55t-51.5 -21q-29 0 -50 19t-21 48q0 16 7 30t20 22q-13 8 -33 14l-33 -348q26 0 46 6.5t35 17.5t27 24t21 27q12 18 33 18q14 0 25.5 -10t11.5 -27q0 -15 -9.5 -30t-17.5 -24q-37 -43 -85 -58.5t-94 -16.5l-16 -175q-2 -13 -12.5 -22t-24.5 -9
q-17 0 -28.5 10t-9.5 24z" />
    <glyph glyph-name="sterling" unicode="&#xa3;" horiz-adv-x="690" 
d="M208 142q-15 11 -33 20.5t-41 9.5q-29 0 -46.5 -15.5t-17.5 -39.5q0 -21 14.5 -38t43.5 -17q31 0 50 21.5t30 58.5zM455 391q16 0 26.5 -10.5t10.5 -26.5t-10.5 -26.5t-26.5 -10.5h-152q1 -17 1 -34v-35q0 -20 -1 -39.5t-5 -36.5l55.5 -38t57 -34t57.5 -24.5t58 -9.5
q45 0 68 20.5t23 51.5q0 26 -14.5 41t-31.5 18q-22 4 -39.5 12t-17.5 29q0 16 9.5 28.5t38.5 12.5q27 0 52 -10.5t44.5 -29.5t31.5 -44.5t12 -56.5q0 -27 -9.5 -53.5t-30.5 -48t-55.5 -34.5t-83.5 -13q-37 0 -67.5 8t-57.5 20.5t-51.5 29l-49.5 33.5l-26 18
q-14 -32 -31.5 -52.5t-37 -32.5t-40.5 -16.5t-40 -4.5q-32 0 -56.5 10t-41.5 26.5t-26 39t-9 48.5q0 27 10 50.5t28 41t44 27.5t58 10q18 0 33.5 -4t28 -8.5t21 -9.5t12.5 -6q2 8 2 18v19q0 12 -1 29l-2 34h-83q-16 0 -26.5 10.5t-10.5 26.5t10.5 26.5t26.5 10.5h79
q-1 14 -2 32.5t-1 35.5q0 48 12 92.5t38 79t68 55.5t102 21q40 0 73 -10.5t57 -28.5t37 -41.5t13 -49.5q0 -34 -20.5 -55t-50.5 -21q-29 0 -49.5 18t-20.5 48q0 33 26 50q-10 8 -26.5 14t-38.5 6q-39 0 -65.5 -16.5t-42.5 -44.5t-23 -64.5t-7 -75.5q0 -11 0.5 -22.5
t0.5 -22.5h156z" />
    <glyph glyph-name="section" unicode="&#xa7;" horiz-adv-x="603" 
d="M478 306q0 26 -22 43t-55.5 28.5t-73 20t-74.5 17.5h-23q-50 0 -76.5 -22.5t-26.5 -52.5q0 -32 25 -50t61 -30t76.5 -20t72.5 -19q36 5 58.5 15t35 22t17.5 24.5t5 23.5zM562 311q0 -17 -5.5 -36.5t-19 -37.5t-35.5 -33.5t-54 -24.5q30 -21 43.5 -51t13.5 -64
q0 -36 -15 -63t-40 -46t-57 -28.5t-65 -9.5q-42 0 -81.5 15.5t-66.5 42.5v-13q0 -17 -10 -29.5t-31 -12.5q-17 0 -28 11t-11 28v114q0 17 10 29.5t28 12.5q13 0 23.5 -8t15.5 -19q4 -10 14.5 -26.5t27.5 -33t42 -28.5t59 -12q17 0 35 4t33 13.5t25 24.5t10 36q0 27 -16 44.5
t-42.5 29t-60.5 19l-69.5 15.5t-69.5 18.5t-60.5 27.5t-42.5 43t-16 64q0 47 26.5 81.5t81.5 52.5q-27 14 -48.5 44.5t-21.5 72.5q0 40 16.5 68t42 46t57.5 26.5t64 8.5q43 0 79 -15.5t62 -39.5v8q0 42 40 42q23 0 32.5 -16t9.5 -39v-96q0 -17 -10 -29.5t-29 -12.5
q-13 0 -22.5 8t-14.5 19q-2 3 -11 19.5t-27 35t-45 33.5t-64 15q-19 0 -36.5 -4.5t-31.5 -14t-22.5 -24t-8.5 -34.5q0 -36 29.5 -55.5t73.5 -32t95.5 -23t95.5 -29t73.5 -49t29.5 -82.5z" />
    <glyph glyph-name="bullet" unicode="&#x2022;" horiz-adv-x="390" 
d="M345 363q0 -31 -12 -58.5t-32.5 -47.5t-47.5 -32t-58 -12t-58.5 12t-47.5 32t-32 47.5t-12 58.5t12 58t32 47t47.5 32t58.5 12t58 -12t47.5 -32t32.5 -47t12 -58z" />
    <glyph glyph-name="paragraph" unicode="&#xb6;" horiz-adv-x="821" 
d="M317 210q-53 0 -100.5 18.5t-82.5 51.5t-55.5 77.5t-20.5 96.5q0 54 21.5 99t58 78t85 51t103.5 18h420q16 0 27 -11t11 -27q0 -15 -11 -26.5t-27 -11.5h-117v-549h117q16 0 27 -11t11 -26q0 -16 -11 -27t-27 -11h-162q-16 0 -26.5 10.5t-10.5 26.5v587h-148v-625
q0 -56 -11 -103t-36.5 -80.5t-66 -52.5t-99.5 -19q-51 0 -86.5 13.5t-57.5 34t-31.5 44.5t-9.5 45q0 35 22 60t52 25q29 0 51 -18.5t22 -52.5q0 -14 -7 -32t-30 -29q11 -9 31.5 -14t42.5 -5q62 0 97 39t35 112v244z" />
    <glyph glyph-name="germandbls" unicode="&#xdf;" horiz-adv-x="670" 
d="M396 121q4 -9 9.5 -19t14.5 -18.5t23 -14.5t35 -6q32 0 55 18t23 56q0 33 -20.5 61.5t-45.5 56t-45.5 57.5t-20.5 67q0 26 10.5 52.5t23.5 52.5t23.5 52.5t10.5 52.5q0 17 -6.5 34t-20 30.5t-34.5 21.5t-50 8q-62 0 -100 -39.5t-38 -129.5v-477q0 -16 -11 -26.5
t-28 -10.5h-143q-16 0 -26.5 10.5t-10.5 26.5t10.5 26.5t26.5 10.5h101v325h-100q-17 0 -27.5 11t-10.5 26q0 17 10.5 27.5t27.5 10.5h100v43q0 54 15.5 98t44 75t69 48t91.5 17q45 0 80 -13.5t59 -36t37 -52t13 -62.5q0 -30 -10 -59.5t-22 -55.5l-22 -48.5t-10 -40.5
q0 -25 20.5 -50l45 -53.5t45 -62.5t20.5 -77q0 -21 -7 -48t-25 -50t-50 -39t-83 -16q-38 0 -66 10.5t-47 27t-28 35.5t-9 37q0 20 11 30.5t28 10.5q12 0 20.5 -6t13.5 -15z" />
    <glyph glyph-name="trademark" unicode="&#x2122;" horiz-adv-x="1188" 
d="M108 576q-3 -14 -11.5 -24t-25.5 -10q-15 0 -26 9.5t-11 23.5q-1 8 2.5 31t5.5 46q2 24 10 36t28 12h357q16 0 25 -13.5t13.5 -33t5.5 -40.5t1 -37t-10 -25t-27 -9t-26 9.5t-11 24.5l-6 54h-106v-303h61q12 0 23.5 -10.5t11.5 -24.5t-10.5 -24.5t-24.5 -10.5h-196
q-17 0 -26.5 10.5t-9.5 24.5t9.5 24.5t26.5 10.5h59v303h-106zM869 341q-5 -11 -14.5 -15.5t-19.5 -4.5q-24 0 -34 21l-116 261v-276h41q11 0 23.5 -11.5t12.5 -23.5q0 -14 -11 -24.5t-25 -10.5h-151q-17 0 -26.5 10.5t-9.5 24.5t9.5 24.5t26.5 10.5h37v303h-37
q-17 0 -26.5 10.5t-9.5 24.5t9.5 24.5t26.5 10.5h119q27 0 38 -26l104 -242l53.5 121.5l53.5 120.5q5 11 14 18.5t26 7.5h114q13 0 25 -11t12 -24q0 -12 -11.5 -23.5t-25.5 -11.5h-38v-303h38q11 0 24 -11.5t13 -23.5q0 -14 -11.5 -24.5t-25.5 -10.5h-154q-13 0 -24.5 10
t-11.5 25q0 10 11 22.5t25 12.5h42v276z" />
    <glyph glyph-name="acute" unicode="&#xb4;" horiz-adv-x="450" 
d="M134 548q-7 -4 -12.5 -5t-10.5 -1q-16 0 -26.5 11t-10.5 25q0 9 4.5 18t14.5 14l224 125q8 4 19 4q15 0 26.5 -10t11.5 -27q0 -9 -4.5 -18.5t-15.5 -15.5z" />
    <glyph glyph-name="dieresis" unicode="&#xa8;" horiz-adv-x="450" 
d="M251 633q0 16 6 30t16.5 24.5t25 16.5t30.5 6q32 0 54.5 -22.5t22.5 -54.5q0 -16 -6 -30.5t-16.5 -25t-24.5 -16.5t-30 -6q-32 0 -55 23t-23 55zM43 633q0 16 6 30t16.5 24.5t25 16.5t30.5 6q32 0 54.5 -22.5t22.5 -54.5q0 -16 -6 -30.5t-16.5 -25t-24.5 -16.5t-30 -6
q-32 0 -55 23t-23 55z" />
    <glyph glyph-name="notequal" unicode="&#x2260;" horiz-adv-x="610" 
d="M269 213l-113 -201q-6 -10 -15.5 -14.5t-18.5 -4.5q-16 0 -26.5 10t-10.5 24q0 11 7 23l92 163h-53q-17 0 -27.5 10.5t-10.5 26.5q0 15 10.5 25.5t27.5 10.5h94l65 114h-159q-17 0 -27.5 11t-10.5 26q0 16 10.5 26.5t27.5 10.5h201l119 211q5 9 14 15t20 6
q17 0 27.5 -8.5t10.5 -22.5q0 -6 -2 -12.5t-4 -11.5l-100 -177h62q16 0 26.5 -10.5t10.5 -26.5q0 -15 -10.5 -26t-26.5 -11h-104l-64 -114h168q16 0 26.5 -10.5t10.5 -25.5q0 -16 -10.5 -26.5t-26.5 -10.5h-210z" />
    <glyph glyph-name="AE" unicode="&#xc6;" horiz-adv-x="1073" 
d="M514 624l-177 -289h198v289h-21zM734 402v74q0 17 12 28.5t29 11.5t29 -11.5t12 -28.5v-223q0 -17 -12 -28.5t-29 -11.5t-29 11.5t-12 28.5v73h-118v-251h316l22 120q3 17 15 25.5t27 8.5q16 0 27.5 -10t11.5 -28v-7q-2 -9 -6 -30.5l-8.5 -45.5l-8.5 -45.5t-5 -30.5
q-3 -14 -15 -23t-26 -9h-517q-17 0 -28.5 10.5t-11.5 27.5q0 16 11.5 26.5t28.5 10.5h86v185h-240l-112 -185h111q17 0 28 -10.5t11 -26.5q0 -17 -11 -27.5t-28 -10.5h-269q-17 0 -27.5 10.5t-10.5 27.5q0 16 10.5 26.5t27.5 10.5h67l342 549h-96q-17 0 -28 11t-11 27t11 27
t28 11h603q15 0 27 -10t14 -27l9 -139q0 -18 -12.5 -29t-29.5 -11q-18 0 -28.5 10.5t-12.5 26.5l-8 103h-284v-222h118z" />
    <glyph glyph-name="Oslash" unicode="&#xd8;" horiz-adv-x="671" 
d="M138 349q0 -78 23.5 -141.5t65.5 -100.5l144 524q-20 5 -37 5q-43 0 -79 -22.5t-62 -61t-40.5 -91t-14.5 -112.5zM334 63q44 0 80 22t62 60.5t40.5 90.5t14.5 112q0 79 -24.5 143t-66.5 101l-144 -523q18 -6 38 -6zM335 710q14 0 28 -2t28 -5l37 136q4 13 14 19t21 6
q16 0 28.5 -9t12.5 -26q0 -8 -2 -16l-39 -140q71 -44 111.5 -130t40.5 -194q0 -75 -20.5 -140t-57.5 -114t-88.5 -77t-113.5 -28q-30 0 -60 8l-38 -141q-8 -26 -37 -26q-18 0 -28 10.5t-10 24.5q0 8 2 14l40 147q-35 22 -62.5 55.5t-47 75t-30 90t-10.5 101.5
q0 75 20.5 140.5t57.5 114.5t88.5 77.5t114.5 28.5z" />
    <glyph glyph-name="infinity" unicode="&#x221e;" horiz-adv-x="1031" 
d="M876 357q0 30 -9 56t-25.5 45.5t-41.5 31t-56 11.5q-57 0 -101.5 -36t-81.5 -108q37 -71 81.5 -107t101.5 -36q31 0 56 11t41.5 30.5t25.5 45.5t9 56zM470 357q-37 72 -81.5 108t-101.5 36q-32 0 -56.5 -11t-41 -30.5t-25.5 -46t-9 -56.5t9 -56t25.5 -45.5t41 -30.5
t56.5 -11q57 0 101.5 36t81.5 107zM69 357q0 52 16.5 94t45.5 71t68.5 45t84.5 16q73 0 134.5 -41.5t97.5 -112.5q35 71 96.5 112.5t134.5 41.5q45 0 84.5 -16t68.5 -45t45.5 -71t16.5 -94t-16.5 -93.5t-45.5 -71t-68.5 -45t-84.5 -15.5q-73 0 -134.5 41.5t-96.5 111.5
q-36 -70 -97.5 -111.5t-134.5 -41.5q-45 0 -84.5 15.5t-68.5 45t-45.5 71t-16.5 93.5z" />
    <glyph glyph-name="lessequal" unicode="&#x2264;" horiz-adv-x="563" 
d="M86 393q0 19 17 31l293 203q13 9 27 9q17 0 28.5 -12.5t11.5 -28.5q0 -22 -20 -35l-248 -168l248 -167q20 -13 20 -35q0 -16 -11.5 -28.5t-28.5 -12.5q-14 0 -27 9l-293 203q-17 12 -17 32zM445 75q16 0 26.5 -11t10.5 -27t-10.5 -26.5t-26.5 -10.5h-329q-16 0 -27 10.5
t-11 26.5t11 27t27 11h329z" />
    <glyph glyph-name="greaterequal" unicode="&#x2265;" horiz-adv-x="563" 
d="M447 75q16 0 27 -11t11 -27t-11 -26.5t-27 -10.5h-329q-16 0 -26.5 10.5t-10.5 26.5t10.5 27t26.5 11h329zM477 393q0 -20 -17 -32l-293 -203q-14 -9 -27 -9q-17 0 -28.5 12.5t-11.5 28.5q0 22 20 35l248 167l-248 168q-20 12 -20 35q0 16 11.5 28.5t28.5 12.5
q13 0 27 -9l293 -203q17 -12 17 -31z" />
    <glyph glyph-name="yen" unicode="&#xa5;" horiz-adv-x="690" 
d="M347 326l172 298h-75q-17 0 -28 11t-11 27t11 27t28 11h207q17 0 28 -11t11 -27t-11 -27t-28 -11h-45l-85 -143h72q15 0 26 -10.5t11 -26.5q0 -15 -10.5 -26t-26.5 -11h-115l-63 -106h178q15 0 26 -10.5t11 -25.5q0 -16 -10.5 -26.5t-26.5 -10.5h-208v-153h95
q17 0 28 -10.5t11 -26.5q0 -17 -11 -27.5t-28 -10.5h-274q-16 0 -27 10.5t-11 27.5q0 16 11 26.5t27 10.5h96v153h-204q-14 0 -26 10t-12 27q0 15 11 25.5t27 10.5h175l-62 106h-113q-13 0 -25.5 10.5t-12.5 26.5t11 26.5t27 10.5h69l-83 143h-46q-17 0 -27.5 11t-10.5 27
t10.5 27t27.5 11h211q17 0 28 -11t11 -27t-11 -27t-28 -11h-72z" />
    <glyph glyph-name="mu" unicode="&#xb5;" horiz-adv-x="648" 
d="M195 -206q0 -17 -11.5 -28t-28.5 -11t-28.5 11t-11.5 28v606h-65q-17 0 -28 10.5t-11 25.5q0 17 11 27.5t28 10.5h107q16 0 27 -10.5t11 -27.5v-278q0 -29 9.5 -47.5t23.5 -30t31.5 -16t34.5 -4.5q28 0 55 11t48 34t34 57.5t13 81.5v156h-76q-16 0 -26.5 10.5t-10.5 25.5
q0 17 10.5 27.5t27.5 10.5h117q17 0 28 -10.5t11 -27.5v-362h74q17 0 28 -10.5t11 -26.5t-11 -26.5t-28 -10.5h-114q-17 0 -28 10.5t-11 26.5v39q-52 -86 -151 -86q-29 0 -55 6.5t-45 23.5v-226z" />
    <glyph glyph-name="summation" unicode="&#x2211;" horiz-adv-x="640" 
d="M387 293q10 -15 10 -27q0 -15 -9 -27l-246 -379h381v139q0 16 12 27t29 11t28.5 -11t11.5 -27v-176q0 -17 -11.5 -27t-28.5 -10h-496q-20 0 -29 10.5t-9 24.5q0 8 3 15.5t6 12.5l269 412l-269 375q-9 12 -9 26q0 16 9.5 27t29.5 11h475q17 0 28.5 -10t11.5 -27v-176
q0 -16 -11.5 -27t-28.5 -11t-29 11t-12 27v139h-356z" />
    <glyph glyph-name="product" unicode="&#x220f;" horiz-adv-x="867" 
d="M780 700q17 0 28 -11t11 -27t-11 -27t-28 -11h-85v-743h85q17 0 28 -11t11 -27t-11 -27t-28 -11h-254q-16 0 -27 11t-11 27t11 27t27 11h86v743h-357v-743h85q17 0 28 -11t11 -27t-11 -27t-28 -11h-253q-17 0 -28 11t-11 27t11 27t28 11h85v743h-85q-17 0 -28 11t-11 27
t11 27t28 11h693z" />
    <glyph glyph-name="pi" unicode="&#x3c0;" horiz-adv-x="864" 
d="M772 474q16 0 26.5 -10.5t10.5 -27.5q0 -15 -10.5 -26t-26.5 -11h-183v-263q0 -32 22 -52t54 -20q33 0 53.5 20.5t20.5 51.5v53q0 17 12.5 28t29.5 11t28 -11t11 -28v-53q0 -32 -11.5 -58.5t-32.5 -46t-50 -30.5t-63 -11q-33 0 -61 9.5t-48.5 28t-32.5 46t-12 62.5v263
h-249v-325h117q16 0 27 -10.5t11 -26.5t-11 -26.5t-27 -10.5h-315q-16 0 -27 10.5t-11 26.5t11 26.5t27 10.5h117v325h-112q-16 0 -27 11t-11 26q0 17 11 27.5t27 10.5h705z" />
    <glyph glyph-name="integral" unicode="&#x222b;" horiz-adv-x="662" 
d="M259 518q10 63 32 108.5t53 75t69.5 44t81.5 14.5q44 0 76.5 -13t53.5 -33t31.5 -43.5t10.5 -44.5q0 -32 -21.5 -56t-54.5 -24q-31 0 -51.5 20t-20.5 49q0 14 7 29t23 24q-10 10 -25.5 14t-30.5 4q-63 0 -100 -44.5t-51 -138.5l-81 -526q-9 -62 -31 -107t-53.5 -74
t-71 -43.5t-83.5 -14.5t-76 12.5t-53.5 31.5t-32 42.5t-10.5 46.5q0 33 21.5 57t54.5 24q31 0 52 -20t21 -48q0 -14 -7 -29.5t-24 -23.5q11 -10 25.5 -14t31.5 -4q58 0 98 42t55 138z" />
    <glyph glyph-name="Omega" unicode="&#x2126;" horiz-adv-x="762" 
d="M619 436q0 47 -17.5 84t-49 63t-75.5 40t-96 14q-53 0 -96.5 -14t-75.5 -40t-49.5 -63.5t-17.5 -84.5q0 -27 6.5 -54.5t22.5 -51t43.5 -41.5t69.5 -27q17 -4 28.5 -10.5t13.5 -31.5v-181q0 -17 -11 -27.5t-28 -10.5h-165q-17 0 -25.5 13t-13 33.5t-6 44t-3.5 44.5v6
q0 17 10.5 27t27.5 10q18 0 27 -10.5t13 -26.5t4.5 -33.5t2.5 -32.5h84v120q-87 21 -136 86t-49 156q0 66 26.5 116.5t71 85.5t103 53t122.5 18t122.5 -18t103 -53t71 -85.5t26.5 -116.5q0 -91 -49 -156t-136 -86v-120h84q1 15 2 32.5t5 33.5t13 26.5t27 10.5q17 0 27.5 -10
t10.5 -27q0 -21 -1.5 -46t-7 -46t-15 -35t-24.5 -14h-165q-17 0 -28 10.5t-11 27.5v181q0 25 12.5 31.5t29.5 10.5q42 8 69 26t43 42t22.5 51.5t6.5 55.5z" />
    <glyph glyph-name="oslash" unicode="&#xf8;" horiz-adv-x="541" 
d="M416 236q0 41 -13 76.5t-38 59.5l-123 -306q5 -2 12 -2.5t13 -0.5q36 0 63.5 13.5t46.5 37t29 55t10 67.5zM124 236q0 -41 12.5 -76t38.5 -58l122 304q-6 1 -11 2t-12 1q-36 0 -64 -13.5t-47 -37t-29 -55t-10 -67.5zM396 447q48 -33 75 -88t27 -123q0 -52 -16 -97
t-46 -78t-72 -52t-93 -19q-31 0 -58 8l-46 -114q-10 -23 -35 -23q-15 0 -26.5 9.5t-11.5 25.5q0 8 3 17l47 114q-48 32 -75 87t-27 122q0 52 16.5 97.5t46.5 79t72 52.5t93 19q15 0 28.5 -2t27.5 -5l53 131q9 24 35 24q16 0 27.5 -9.5t11.5 -26.5q0 -8 -5 -20z" />
    <glyph glyph-name="questiondown" unicode="&#xbf;" horiz-adv-x="511" 
d="M356 399q0 -35 -25 -59.5t-60 -24.5t-59.5 24.5t-24.5 59.5t24.5 60t59.5 25t60 -25t25 -60zM238 196q0 17 11.5 28t28.5 11t28.5 -11t11.5 -28v-75q0 -19 -8.5 -28t-26.5 -12q-24 -4 -51.5 -10.5t-50.5 -20t-38 -36t-15 -59.5q0 -58 36.5 -89.5t93.5 -31.5q22 0 40 5
t32 12.5t23.5 15.5t14.5 14q-19 7 -31 23t-12 39q0 29 20 47.5t49 18.5q18 0 32.5 -7t24.5 -18.5t15.5 -25.5t5.5 -29q0 -35 -16.5 -65.5t-45.5 -52.5t-68 -34.5t-84 -12.5q-50 0 -89.5 14.5t-67.5 40t-42.5 60.5t-14.5 75q0 76 48.5 127.5t145.5 64.5v50z" />
    <glyph glyph-name="exclamdown" unicode="&#xa1;" horiz-adv-x="300" 
d="M65 399q0 35 25 60t60 25t59.5 -25t24.5 -60t-24.5 -59.5t-59.5 -24.5t-60 24.5t-25 59.5zM150 231q11 0 24 -8t15 -31l17 -164l6 -63.5l5.5 -58t4 -46t1.5 -26.5q0 -29 -19 -49.5t-54 -20.5q-36 0 -54.5 20.5t-18.5 49.5q0 7 1.5 26.5l3.5 46t5.5 58t6.5 63.5
q7 74 17 164q2 23 15 31t24 8z" />
    <glyph glyph-name="logicalnot" unicode="&#xac;" horiz-adv-x="610" 
d="M516 284q0 -16 -11.5 -27t-28.5 -11t-28 11t-11 27v128h-306q-17 0 -27.5 10.5t-10.5 26.5t10.5 26.5t27.5 10.5h348q16 0 26.5 -10.5t10.5 -26.5v-165z" />
    <glyph glyph-name="radical" unicode="&#x221a;" horiz-adv-x="773" 
d="M299 -206q-32 0 -44 27l-170 383h-46q-16 0 -26.5 11t-10.5 26q0 17 10.5 27.5t26.5 10.5h212q15 0 26.5 -10.5t11.5 -27.5q0 -15 -11.5 -26t-26.5 -11h-77l129 -299l308 720h-116q-16 0 -27.5 11t-11.5 26q0 17 11.5 27.5t27.5 10.5h252q16 0 26.5 -10.5t10.5 -27.5
q0 -15 -10.5 -26t-26.5 -11h-51l-352 -804q-6 -14 -18 -20.5t-27 -6.5z" />
    <glyph glyph-name="florin" unicode="&#x192;" horiz-adv-x="512" 
d="M203 280h-150q-17 0 -28 10.5t-11 26.5t11 26.5t28 10.5h161l10.5 70l11.5 70q22 136 83.5 201t155.5 65q44 0 76.5 -13t53.5 -33t31.5 -43.5t10.5 -44.5q0 -15 -6 -29.5t-16 -25.5t-23.5 -18t-29.5 -7q-31 0 -50.5 20t-19.5 46q0 14 6 29.5t21 26.5q-10 10 -25 14t-30 4
q-64 0 -100.5 -45.5t-51.5 -137.5l-24 -149h162q16 0 27 -10.5t11 -26.5t-11 -26.5t-27 -10.5h-173l-45 -303q-9 -62 -31.5 -107t-54.5 -74.5t-71.5 -43.5t-82.5 -14t-75 12.5t-53.5 31.5t-32 42.5t-10.5 46.5q0 16 6 30.5t16 26t24 18t29 6.5q31 0 52 -20t21 -48
q0 -14 -7 -29.5t-23 -23.5q11 -10 25.5 -14t30.5 -4q28 0 53 9.5t45 31t34 56t22 83.5z" />
    <glyph glyph-name="approxequal" unicode="&#x2248;" horiz-adv-x="610" 
d="M198 425q-14 0 -21 -6.5l-12 -11.5q-11 -17 -19 -25t-24 -8t-25.5 11t-9.5 27q0 12 7 27.5t20.5 29t34 23t48.5 9.5q25 0 54.5 -8t58.5 -18t54.5 -18t42.5 -8q16 0 24.5 8t15 17.5t14 17.5t21.5 8q19 0 27.5 -10.5t8.5 -27.5q0 -14 -7.5 -29.5t-22 -29t-35 -22
t-45.5 -8.5q-26 0 -57 8t-60 18l-54 18t-39 8zM198 245q-14 0 -21 -6.5l-12 -11.5q-11 -17 -19 -25t-24 -8t-25.5 11t-9.5 27q0 12 7 27.5t20.5 29t34 23t48.5 9.5q25 0 54.5 -8t58.5 -18t54.5 -18t42.5 -8q16 0 24.5 8t15 17.5t14 17.5t21.5 8q19 0 27.5 -10.5t8.5 -27.5
q0 -14 -7.5 -29.5t-22 -29t-35 -22t-45.5 -8.5q-26 0 -57 8t-60 18l-54 18t-39 8z" />
    <glyph glyph-name="Delta" unicode="&#x2206;" horiz-adv-x="734" 
d="M367 588l-260 -514h519zM50 0q-19 0 -31 10t-12 29q0 7 2 15.5t10 22.5l307 604q5 10 14 19.5t27 9.5q17 0 26 -9.5t14 -19.5l307 -603q8 -15 10.5 -23.5t2.5 -15.5q0 -19 -12 -29t-31 -10h-634z" />
    <glyph glyph-name="guillemotleft" unicode="&#xab;" horiz-adv-x="531" 
d="M234 241q0 8 3.5 14.5t9.5 14.5l170 200q6 7 14.5 12t19.5 5q20 0 30 -12.5t10 -24.5q0 -17 -11 -31l-149 -178l149 -178q6 -7 8.5 -14.5t2.5 -15.5q0 -13 -10 -25.5t-30 -12.5q-11 0 -19.5 5t-14.5 13l-170 200q-13 15 -13 28zM17 241q0 8 3.5 14.5t9.5 14.5l170 200
q6 7 14.5 12t19.5 5q20 0 30 -12.5t10 -24.5q0 -17 -11 -31l-149 -178l149 -178q6 -7 8.5 -14.5t2.5 -15.5q0 -13 -10 -25.5t-30 -12.5q-11 0 -19.5 5t-14.5 13l-170 200q-13 15 -13 28z" />
    <glyph glyph-name="guillemotright" unicode="&#xbb;" horiz-adv-x="531" 
d="M514 241q0 -13 -13 -28l-170 -200q-6 -8 -14.5 -13t-19.5 -5q-20 0 -30 12.5t-10 25.5q0 8 2.5 15.5t8.5 14.5l149 178l-149 178q-11 14 -11 31q0 12 10 24.5t30 12.5q11 0 19.5 -5t14.5 -12l170 -200q6 -8 9.5 -14.5t3.5 -14.5zM297 241q0 -13 -13 -28l-170 -200
q-6 -8 -14.5 -13t-19.5 -5q-20 0 -30 12.5t-10 25.5q0 8 2.5 15.5t8.5 14.5l149 178l-149 178q-11 14 -11 31q0 12 10 24.5t30 12.5q11 0 19.5 -5t14.5 -12l170 -200q6 -8 9.5 -14.5t3.5 -14.5z" />
    <glyph glyph-name="endash" unicode="&#x2013;" horiz-adv-x="640" 
d="M103 301q-17 0 -28 10.5t-11 26.5t11 26.5t28 10.5h434q16 0 27 -10.5t11 -26.5t-11 -26.5t-27 -10.5h-434z" />
    <glyph glyph-name="emdash" unicode="&#x2014;" horiz-adv-x="1057" 
d="M103 301q-17 0 -28 10.5t-11 26.5t11 26.5t28 10.5h851q16 0 27 -10.5t11 -26.5t-11 -26.5t-27 -10.5h-851z" />
    <glyph glyph-name="quotedblleft" unicode="&#x201c;" horiz-adv-x="553" 
d="M221 450q0 -35 -24 -59.5t-62 -24.5q-41 0 -68.5 30t-27.5 83q0 36 14.5 72t38.5 67.5t55 56.5t63 39q15 6 24 6q14 0 24.5 -8t10.5 -24q0 -20 -21 -30q-42 -20 -76 -52t-43 -78h3q2 0 3 0.5t3 0.5q38 0 60.5 -22t22.5 -57zM462 450q0 -35 -24 -59.5t-62 -24.5
q-41 0 -68.5 30t-27.5 83q0 36 14.5 72t38.5 67.5t55 56.5t63 39q15 6 24 6q14 0 24.5 -8t10.5 -24q0 -20 -21 -30q-42 -20 -76 -52t-43 -78h3q2 0 3 0.5t3 0.5q38 0 60.5 -22t22.5 -57z" />
    <glyph glyph-name="quotedblright" unicode="&#x201d;" horiz-adv-x="557" 
d="M323 626q0 35 24 59.5t62 24.5q41 0 68.5 -30t27.5 -83q0 -36 -14.5 -72t-38.5 -67.5t-55 -56.5t-63 -39q-15 -6 -24 -6q-14 0 -24.5 8t-10.5 24q0 20 21 30q42 20 76 52t43 78q-1 -1 -3 -1h-6q-38 0 -60.5 22t-22.5 57zM82 626q0 35 24 59.5t62 24.5q41 0 68.5 -30
t27.5 -83q0 -36 -14.5 -72t-38.5 -67.5t-55 -56.5t-63 -39q-15 -6 -24 -6q-14 0 -24.5 8t-10.5 24q0 20 21 30q42 20 76 52t43 78q-1 -1 -3 -1h-6q-38 0 -60.5 22t-22.5 57z" />
    <glyph glyph-name="quoteleft" unicode="&#x2018;" horiz-adv-x="310" 
d="M221 450q0 -35 -24 -59.5t-62 -24.5q-41 0 -68.5 30t-27.5 83q0 36 14.5 72t38.5 67.5t55 56.5t63 39q15 6 24 6q14 0 24.5 -8t10.5 -24q0 -20 -21 -30q-42 -20 -76 -52t-43 -78h3q2 0 3 0.5t3 0.5q38 0 60.5 -22t22.5 -57z" />
    <glyph glyph-name="quoteright" unicode="&#x2019;" horiz-adv-x="305" 
d="M65 626q0 35 24 59.5t62 24.5q41 0 68.5 -30t27.5 -83q0 -36 -14.5 -72t-38.5 -67.5t-55 -56.5t-63 -39q-15 -6 -24 -6q-14 0 -24.5 8t-10.5 24q0 20 21 30q42 20 76 52t43 78q-1 -1 -3 -1h-6q-38 0 -60.5 22t-22.5 57z" />
    <glyph glyph-name="lozenge" unicode="&#x25ca;" horiz-adv-x="575" 
d="M327 -184q-5 -12 -16 -18.5t-24 -6.5q-28 0 -39 25l-214 486l214 486q5 11 15.5 17.5t23.5 6.5t24 -6.5t16 -17.5l214 -486zM288 -63l157 365l-157 364l-158 -364z" />
    <glyph glyph-name="fraction" unicode="&#x2044;" horiz-adv-x="220" 
d="M-172 4q-12 -14 -28 -14q-13 0 -21 8t-8 19q0 5 1.5 10.5t6.5 10.5l616 660q10 12 25 12q12 0 21 -8.5t9 -19.5t-8 -21z" />
    <glyph glyph-name="guilsinglleft" unicode="&#x2039;" horiz-adv-x="314" 
d="M17 238q0 8 3.5 14.5t9.5 14.5l170 200q6 7 14.5 12t19.5 5q20 0 30 -12.5t10 -24.5q0 -17 -11 -31l-149 -178l149 -178q6 -7 8.5 -14.5t2.5 -15.5q0 -13 -10 -25.5t-30 -12.5q-11 0 -19.5 5t-14.5 13l-170 200q-13 15 -13 28z" />
    <glyph glyph-name="guilsinglright" unicode="&#x203a;" horiz-adv-x="314" 
d="M295 238q0 -13 -13 -28l-170 -200q-6 -8 -14.5 -13t-19.5 -5q-20 0 -30 12.5t-10 25.5q0 8 2.5 15.5t8.5 14.5l149 178l-149 178q-11 14 -11 31q0 12 10 24.5t30 12.5q11 0 19.5 -5t14.5 -12l170 -200q6 -8 9.5 -14.5t3.5 -14.5z" />
    <glyph glyph-name="daggerdbl" unicode="&#x2021;" horiz-adv-x="564" 
d="M282 -138q-17 0 -28.5 11t-11.5 28v251h-170q-16 0 -27 11t-11 27q0 15 11 26t27 11h170v177h-170q-16 0 -27 11t-11 26q0 16 11 27t27 11h170v257q0 17 11.5 28t28.5 11q16 0 28 -11t12 -28v-257h169q17 0 27.5 -11t10.5 -27q0 -15 -10.5 -26t-27.5 -11h-169v-177h169
q17 0 27.5 -11t10.5 -26q0 -16 -10.5 -27t-27.5 -11h-169v-251q0 -17 -12 -28t-28 -11z" />
    <glyph glyph-name="periodcentered" unicode="&#xb7;" horiz-adv-x="319" 
d="M65 354q0 35 25 59.5t60 24.5t59.5 -24.5t24.5 -59.5t-24.5 -60t-59.5 -25t-60 25t-25 60z" />
    <glyph glyph-name="quotesinglbase" unicode="&#x201a;" horiz-adv-x="299" 
d="M59 76q0 35 24 59.5t62 24.5q41 0 68.5 -30t27.5 -83q0 -36 -14.5 -72t-38.5 -67.5t-55 -56.5t-63 -39q-15 -6 -24 -6q-14 0 -24.5 8t-10.5 24q0 20 21 30q42 20 76 52t43 78q-1 -1 -3 -1h-6q-38 0 -60.5 22t-22.5 57z" />
    <glyph glyph-name="quotedblbase" unicode="&#x201e;" horiz-adv-x="540" 
d="M300 76q0 35 24 59.5t62 24.5q41 0 68.5 -30t27.5 -83q0 -36 -14.5 -72t-38.5 -67.5t-55 -56.5t-63 -39q-15 -6 -24 -6q-14 0 -24.5 8t-10.5 24q0 20 21 30q42 20 76 52t43 78q-1 -1 -3 -1h-6q-38 0 -60.5 22t-22.5 57zM59 76q0 35 24 59.5t62 24.5q41 0 68.5 -30
t27.5 -83q0 -36 -14.5 -72t-38.5 -67.5t-55 -56.5t-63 -39q-15 -6 -24 -6q-14 0 -24.5 8t-10.5 24q0 20 21 30q42 20 76 52t43 78q-1 -1 -3 -1h-6q-38 0 -60.5 22t-22.5 57z" />
    <glyph glyph-name="perthousand" unicode="&#x2030;" horiz-adv-x="1097" 
d="M127 528q0 -22 4.5 -42t13 -35.5t20.5 -24.5t27 -9q14 0 26 9t21 24.5t14 35.5t5 42t-5 42t-14 35.5t-21 24.5t-26 9q-15 0 -27 -9t-20.5 -24.5t-13 -35.5t-4.5 -42zM516 171q0 -22 5 -42t13.5 -35t20.5 -24t26 -9q15 0 27 9t21 24t14 35t5 42t-5 42.5t-14 36t-21 24.5
t-27 9q-14 0 -26 -9t-20.5 -24.5t-13.5 -36t-5 -42.5zM729 171q0 -39 -11.5 -72.5t-31 -57.5t-47 -37.5t-58.5 -13.5q-32 0 -58.5 13.5t-46 37.5t-30.5 57.5t-11 72.5q0 40 11 73.5t30.5 58t46 38t58.5 13.5q31 0 58.5 -13.5t47 -38t31 -58t11.5 -73.5zM340 528
q0 -39 -11.5 -72.5t-31.5 -58t-47 -38t-58 -13.5q-32 0 -58.5 13.5t-46.5 38t-31 58t-11 72.5t11 72.5t31 58t46.5 38t58.5 13.5q25 0 45 -9l43.5 -20.5t54 -20.5t77.5 -9q26 0 53 2.5t50 7t41.5 9t28.5 9.5l11 13q6 8 14.5 13t18.5 5q15 0 26.5 -10t11.5 -25q0 -13 -9 -25
l-466 -640q-10 -15 -31 -15q-20 0 -29.5 10.5t-9.5 24.5q0 12 8 23l408 553q-11 -6 -26 -10t-32 -6.5t-34.5 -3.5t-33.5 -1q-26 0 -47.5 5.5l-37.5 9.5q13 -34 13 -72zM857 171q0 -22 5 -42t13.5 -35t20.5 -24t26 -9q15 0 27 9t21 24t14 35t5 42t-5 42.5t-14 36t-21 24.5
t-27 9q-14 0 -26 -9t-20.5 -24.5t-13.5 -36t-5 -42.5zM1070 171q0 -39 -11.5 -72.5t-31 -57.5t-47 -37.5t-58.5 -13.5q-32 0 -58.5 13.5t-46 37.5t-30.5 57.5t-11 72.5q0 40 11 73.5t30.5 58t46 38t58.5 13.5q31 0 58.5 -13.5t47 -38t31 -58t11.5 -73.5z" />
    <glyph glyph-name="circumflex" unicode="&#x2c6;" horiz-adv-x="450" 
d="M225 750q12 0 23 -10l150 -124q10 -8 17.5 -16.5t7.5 -21.5q0 -16 -11.5 -27.5t-26.5 -11.5q-6 0 -13.5 2.5t-14.5 8.5l-132 110l-132 -110q-7 -6 -14.5 -8.5t-13.5 -2.5q-15 0 -26.5 11.5t-11.5 27.5q0 13 7.5 21.5t17.5 16.5l150 124q11 10 23 10z" />
    <glyph glyph-name="tilde" unicode="&#x2dc;" horiz-adv-x="450" 
d="M144 602q-13 0 -22 -6.5t-20 -22.5q-5 -6 -11.5 -11t-18.5 -5q-16 0 -26 11.5t-10 26.5q0 12 7 27t20 28t32 22t43 9q22 0 45.5 -7t46 -15l42.5 -15t35 -7q16 0 23 7t12 16t11.5 16t22.5 7q14 0 26 -9t12 -26q0 -12 -6 -27.5t-18.5 -29t-32 -23t-46.5 -9.5
q-24 0 -48.5 6.5t-46 15t-40.5 15t-32 6.5z" />
    <glyph glyph-name="macron" unicode="&#xaf;" horiz-adv-x="464" 
d="M107 576q-16 0 -26.5 10.5t-10.5 26.5t10.5 26.5t26.5 10.5h250q16 0 26.5 -10.5t10.5 -26.5t-10.5 -26.5t-26.5 -10.5h-250z" />
    <glyph glyph-name="breve" unicode="&#x2d8;" horiz-adv-x="450" 
d="M225 541q-39 0 -66.5 13t-44.5 33.5t-25 44.5t-9 47q-1 26 10.5 35.5t27.5 9.5q32 0 38 -45q1 -9 4 -21t10.5 -22.5t20.5 -17.5t34 -7q20 0 33 7t20.5 17.5t10.5 22.5t4 21q6 45 38 45q17 0 28 -9.5t10 -35.5q0 -23 -8 -47t-25 -44.5t-44.5 -33.5t-66.5 -13z" />
    <glyph glyph-name="dotaccent" unicode="&#x2d9;" horiz-adv-x="450" 
d="M143 628q0 33 24 57.5t58 24.5q16 0 31 -6.5t26.5 -18t18 -26.5t6.5 -31q0 -34 -24.5 -58t-57.5 -24q-34 0 -58 24t-24 58z" />
    <glyph glyph-name="ring" unicode="&#x2da;" horiz-adv-x="450" 
d="M225 597q33 0 56 24t23 57t-23 57t-56 24t-56 -24t-23 -57t23 -57t56 -24zM225 824q31 0 58 -11.5t47.5 -31t32 -46.5t11.5 -57t-11.5 -57t-32 -46.5t-47.5 -31t-58 -11.5t-58 11.5t-47.5 31t-32 46.5t-11.5 57t11.5 57t32 46.5t47.5 31t58 11.5z" />
    <glyph glyph-name="cedilla" unicode="&#xb8;" horiz-adv-x="423" 
d="M234 13l-16 -38l-16 -39q29 0 55.5 -5t46.5 -17.5t32 -33t12 -51.5q0 -32 -13 -54.5t-34 -37t-49 -21.5t-58 -7q-42 0 -69 8.5t-35 12.5q-14 7 -18 17t-4 17q0 16 10 26.5t26 10.5q6 0 13.5 -3l17 -7t22 -7t29.5 -3q44 0 61.5 13.5t17.5 32.5q0 24 -18.5 33t-47.5 9
q-13 0 -23.5 -1t-19.5 -1q-18 0 -28 10t-10 24q0 4 1 11t6 16l39 85h70z" />
    <glyph glyph-name="hungarumlaut" unicode="&#x2dd;" horiz-adv-x="450" 
d="M255 548q-7 -4 -12.5 -5t-10.5 -1q-16 0 -26.5 11t-10.5 25q0 9 4.5 18t14.5 14l224 125q8 4 19 4q15 0 26.5 -10t11.5 -27q0 -9 -4.5 -18.5t-15.5 -15.5zM14 548q-7 -4 -12.5 -5t-10.5 -1q-16 0 -26.5 11t-10.5 25q0 9 4.5 18t14.5 14l224 125q8 4 19 4q15 0 26.5 -10
t11.5 -27q0 -9 -4.5 -18.5t-15.5 -15.5z" />
    <glyph glyph-name="ogonek" unicode="&#x2db;" horiz-adv-x="450" 
d="M92 -131q0 38 20.5 67t48.5 48.5t56.5 29.5t45.5 10q10 0 15.5 -4.5t5.5 -10.5q0 -5 -3 -6.5t-6 -3.5q-17 -7 -34.5 -19t-32 -27.5t-23.5 -34t-9 -37.5q0 -20 13.5 -39t48.5 -19q15 0 27.5 3.5t22.5 7t18 7t16 3.5q11 0 23 -7.5t12 -27.5q0 -7 -5.5 -17t-20 -19.5
t-38.5 -16t-61 -6.5q-69 0 -104.5 32.5t-35.5 86.5z" />
    <glyph glyph-name="caron" unicode="&#x2c7;" horiz-adv-x="450" 
d="M225 539q-12 0 -23 10l-150 124q-10 8 -17.5 16.5t-7.5 21.5q0 16 11.5 27.5t26.5 11.5q6 0 13.5 -2.5t14.5 -8.5l132 -110l132 110q7 6 14.5 8.5t13.5 2.5q15 0 26.5 -11.5t11.5 -27.5q0 -13 -7.5 -21.5t-17.5 -16.5l-150 -124q-11 -10 -23 -10z" />
    <glyph glyph-name="plusminus" unicode="&#xb1;" horiz-adv-x="610" 
d="M345 167q0 -17 -12 -29t-29 -12t-28.5 12t-11.5 29v178h-183q-15 0 -27 11t-12 26q0 16 11 26.5t28 10.5h183v178q0 17 11.5 29t28.5 12t29 -12t12 -29v-178h183q15 0 27 -11t12 -26q0 -16 -11 -26.5t-28 -10.5h-183v-178zM81 0q-17 0 -28 11t-11 27q0 15 11 26t28 11
h447q17 0 28 -11t11 -26q0 -16 -11 -27t-28 -11h-447z" />
    <glyph glyph-name="divide" unicode="&#xf7;" horiz-adv-x="610" 
d="M126 306q-16 0 -27 10.5t-11 26.5t11 26.5t27 10.5h358q15 0 26.5 -10.5t11.5 -26.5t-11.5 -26.5t-26.5 -10.5h-358zM224 515q0 35 23.5 58.5t57.5 23.5q35 0 58 -23.5t23 -58.5q0 -34 -23 -57.5t-58 -23.5q-34 0 -57.5 23.5t-23.5 57.5zM224 169q0 35 23.5 58t57.5 23
q35 0 58 -23t23 -58t-23 -58t-58 -23q-34 0 -57.5 23t-23.5 58z" />
    <glyph glyph-name="ellipsis" unicode="&#x2026;" horiz-adv-x="1000" 
d="M764 75q0 35 25 59.5t60 24.5t59.5 -24.5t24.5 -59.5t-24.5 -60t-59.5 -25t-60 25t-25 60zM415 75q0 35 25 59.5t60 24.5t59.5 -24.5t24.5 -59.5t-24.5 -60t-59.5 -25t-60 25t-25 60zM67 75q0 35 25 59.5t60 24.5t59.5 -24.5t24.5 -59.5t-24.5 -60t-59.5 -25t-60 25
t-25 60z" />
    <glyph glyph-name="ordmasculine" unicode="&#xba;" horiz-adv-x="421" 
d="M103 524q0 -26 7 -49t20.5 -40t33.5 -27.5t46 -10.5t46 10.5t33.5 27.5t20.5 40t7 49q0 25 -7 48.5t-20.5 41t-33.5 28t-46 10.5t-46 -10.5t-33.5 -28t-20.5 -41t-7 -48.5zM384 524q0 -39 -12.5 -73.5t-35 -60t-55 -40t-71.5 -14.5t-71 14.5t-54.5 40t-35 60t-12.5 73.5
t12.5 73.5t35 60t54.5 40t71 14.5t71.5 -14.5t55 -40t35 -60t12.5 -73.5z" />
    <glyph glyph-name="ordfeminine" unicode="&#xaa;" horiz-adv-x="462" 
d="M285 582q0 12 -3 24.5t-11.5 23t-24.5 17t-41 6.5q-23 0 -41.5 -4.5t-32.5 -10l-25 -10t-19 -4.5q-14 0 -21.5 8t-7.5 19q0 12 12.5 23t33.5 19.5t48.5 13.5t56.5 5q66 0 103.5 -32t37.5 -94v-183h42q14 0 22.5 -8.5t8.5 -20.5q0 -14 -8.5 -22.5t-22.5 -8.5h-62
q-13 0 -27.5 11.5t-14.5 28.5q-24 -25 -55 -36.5t-63 -11.5q-54 0 -91.5 28t-37.5 83q0 43 21 67t52.5 36t68 14.5t67.5 2.5h35v16zM285 511h-27q-27 0 -54 -1.5t-48.5 -7.5t-35 -19t-13.5 -36q0 -27 19.5 -40.5t48.5 -13.5q33 0 65.5 14.5t44.5 37.5v66z" />
    <glyph glyph-name="partialdiff" unicode="&#x2202;" horiz-adv-x="559" 
d="M134 237q0 -35 9.5 -66.5t28 -55t46 -37.5t62.5 -14q36 0 63 14t46 38t28.5 55t9.5 66t-10 66.5t-28.5 55t-46 37.5t-62.5 14q-36 0 -63 -14t-45.5 -37.5t-28 -55t-9.5 -66.5zM508 256q0 -65 -18 -114.5t-49.5 -83.5t-73 -51t-87.5 -17q-52 0 -94 19t-71.5 52.5
t-45.5 78.5t-16 97t16 97t45 78.5t69.5 52.5t90.5 19q31 0 60 -10.5t49 -27.5q-16 31 -36.5 60.5t-50.5 56.5t-70.5 50.5t-95.5 43.5q-16 6 -26.5 9.5t-17 7.5t-9.5 10t-3 17q0 16 11 25.5t29 9.5q13 0 34.5 -5.5t70.5 -26.5q60 -26 112.5 -71t92 -104t62 -128.5
t22.5 -144.5z" />
    <glyph glyph-name="ae" unicode="&#xe6;" horiz-adv-x="866" 
d="M740 307q-7 54 -44 80t-87 26q-32 0 -58 -10.5t-45 -27.5t-30 -39.5t-13 -46.5zM376 214q-73 -4 -122 -7.5t-78.5 -11.5t-42 -23t-12.5 -42q0 -36 27 -53t65 -17q24 0 49.5 5.5t49 15.5t44.5 24t37 31q-7 17 -11 37.5t-6 40.5zM258 411q-32 0 -57.5 -6.5t-45 -14.5
t-32 -14.5t-19.5 -6.5q-17 0 -27 11t-10 25q0 16 16 30t43 25t62 17.5t74 6.5q57 0 103 -20t68 -64q31 42 76.5 63t98.5 21q47 0 86.5 -15.5t68 -42.5t44 -63.5t15.5 -78.5q0 -25 -10 -34.5t-28 -10.5l-325 -20q2 -32 14 -60t33 -49t51 -33.5t67 -12.5q27 0 47.5 7t36 17.5
t27 23.5t20.5 26q12 18 33 18q14 0 25.5 -10t11.5 -27q0 -15 -9.5 -30t-17.5 -24q-36 -42 -85 -58.5t-97 -16.5q-64 0 -110.5 22t-78.5 64q-27 -26 -56.5 -42.5t-58 -26t-55.5 -13.5t-50 -4q-37 0 -68.5 9t-54.5 26.5t-36 43t-13 59.5q0 42 20 70t50 44.5t66 23.5t68 7
q9 1 44.5 3.5l92.5 6.5v34q0 16 -5.5 33t-19 30.5t-36.5 22t-57 8.5z" />
    <glyph glyph-name="braceleft" unicode="{" horiz-adv-x="350" 
d="M140 307q26 -7 43.5 -21t28 -32t14.5 -37.5t4 -37.5q0 -22 -4 -48t-9 -53t-9 -54t-4 -51q0 -31 8 -48.5t20.5 -27.5t26.5 -14.5t26.5 -9.5t20.5 -12.5t8 -23.5q0 -14 -10 -24.5t-36 -10.5q-25 0 -52 9.5t-49.5 30t-37 51.5t-14.5 73q0 24 4.5 52t10.5 56.5t10.5 57
t4.5 54.5q0 25 -5.5 40t-15.5 23.5t-23.5 12.5t-29.5 7q-22 5 -29 15t-7 23t7 23t29 15q16 3 29.5 7t23.5 12.5t15.5 23.5t5.5 40q0 26 -4.5 54.5t-10.5 57t-10.5 56.5t-4.5 52q0 42 14.5 73t37 51.5t49.5 30t52 9.5q26 0 36 -10.5t10 -24.5q0 -16 -8 -23.5t-20.5 -12.5
t-26.5 -9.5t-26.5 -14.5t-20.5 -27.5t-8 -48.5q0 -24 4 -51t9 -54t9 -53t4 -48q0 -18 -4 -37.5t-14.5 -37.5t-28 -32t-43.5 -21z" />
    <glyph glyph-name="bar" unicode="|" horiz-adv-x="350" 
d="M135 826q0 16 11.5 27.5t28.5 11.5q16 0 28 -11.5t12 -27.5v-1012q0 -17 -12 -28t-28 -11q-17 0 -28.5 11t-11.5 28v1012z" />
    <glyph glyph-name="braceright" unicode="}" horiz-adv-x="350" 
d="M209 307q-26 7 -43.5 21t-28 32t-14.5 37.5t-4 37.5q0 22 4 48t9 53t9 54t4 51q0 31 -8 48.5t-20.5 27.5t-26.5 14.5t-26.5 9.5t-20.5 12.5t-8 23.5q0 14 10 24.5t36 10.5q25 0 52 -9.5t49.5 -30t37 -51.5t14.5 -73q0 -24 -4.5 -52t-10.5 -56.5t-10.5 -57t-4.5 -54.5
q0 -25 5.5 -40t15.5 -23.5t23.5 -12.5t29.5 -7q22 -5 29 -15t7 -23t-7 -23t-29 -15q-16 -3 -29.5 -7t-23.5 -12.5t-15.5 -23.5t-5.5 -40q0 -26 4.5 -54.5t10.5 -57t10.5 -56.5t4.5 -52q0 -42 -14.5 -73t-37 -51.5t-49.5 -30t-52 -9.5q-26 0 -36 10.5t-10 24.5q0 16 8 23.5
t20.5 12.5t26.5 9.5t26.5 14.5t20.5 27.5t8 48.5q0 24 -4 51t-9 54t-9 53t-4 48q0 18 4 37.5t14.5 37.5t28 32t43.5 21z" />
    <glyph glyph-name="bracketleft" unicode="[" horiz-adv-x="350" 
d="M44 762q0 16 11 27t27 11h185q17 0 28 -11t11 -27t-11 -27t-28 -11h-141v-823h141q17 0 28 -11t11 -27t-11 -27t-28 -11h-185q-16 0 -27 11t-11 27v899z" />
    <glyph glyph-name="bracketright" unicode="]" horiz-adv-x="350" 
d="M306 -137q0 -16 -11 -27t-27 -11h-185q-17 0 -28 11t-11 27t11 27t28 11h141v823h-141q-17 0 -28 11t-11 27t11 27t28 11h185q16 0 27 -11t11 -27v-899z" />
    <glyph glyph-name="parenleft" unicode="(" horiz-adv-x="350" 
d="M110 292q0 -99 20 -172t50 -126t65.5 -90t65.5 -64q8 -7 11.5 -13.5t3.5 -17.5q0 -19 -11 -28.5t-24 -9.5q-8 1 -15 3t-15 7q-37 25 -79 67.5t-77.5 104.5t-59 146t-23.5 193q0 104 20 181.5t52 139.5q21 40 49 76.5t55.5 64.5t52.5 44.5t40 16.5q13 0 24 -10t11 -29
q0 -11 -3.5 -17.5t-11.5 -13.5q-30 -27 -65.5 -64t-65.5 -91t-50 -127t-20 -171z" />
    <glyph glyph-name="parenright" unicode=")" horiz-adv-x="350" 
d="M238 292q0 98 -20 171t-50 127t-65 91t-65 64q-8 7 -12 13.5t-4 17.5q0 19 11.5 29t24.5 10t30 -11q36 -25 77.5 -67t77.5 -104t59.5 -146.5t23.5 -194.5q0 -103 -20 -180.5t-52 -139.5q-21 -39 -48.5 -75.5t-55 -64.5t-52 -44.5t-40.5 -16.5q-13 0 -24.5 9.5t-11.5 28.5
q0 11 4 17.5t12 13.5q30 27 65 64t65 90t50 126t20 172z" />
    <glyph glyph-name="registered" unicode="&#xae;" horiz-adv-x="880" 
d="M535 479q0 28 -20.5 51t-69.5 23h-86v-160h85q22 0 39 7.5t28.5 19.5t17.5 27.5t6 31.5zM243 103q-9 0 -13 2q42 -36 95 -56t115 -20q59 0 111 20t94 54h-40q-21 0 -31 20l-60 124h-1q-15 30 -32.5 51t-34.5 29h-87v-157h58q15 0 24.5 -9.5t9.5 -24.5q0 -14 -9.5 -23.5
t-24.5 -9.5h-174zM118 357q0 -69 24.5 -129t68.5 -105q-2 8 -2 13q0 15 9.5 24.5t24.5 9.5h46v383h-42q-15 0 -24.5 9.5t-9.5 24.5v6q-45 -45 -70 -105.5t-25 -130.5zM440 685q-57 0 -106.5 -17t-89.5 -48h202q44 0 75 -13t50 -33t27.5 -45t8.5 -49q0 -34 -23.5 -71
t-65.5 -56q14 -14 31.5 -35.5t33.5 -53.5l46 -94h76q27 40 41.5 86.5t14.5 100.5q0 68 -24.5 128t-67 104.5t-101.5 70t-128 25.5zM829 357q0 -82 -29.5 -153t-82 -124t-123.5 -83.5t-154 -30.5t-154.5 30.5t-124 83.5t-82 124t-29.5 153t29.5 153t82 124t124 83.5
t154.5 30.5t154 -30.5t123.5 -83.5t82 -124t29.5 -153z" />
    <glyph glyph-name="copyright" unicode="&#xa9;" horiz-adv-x="880" 
d="M118 357q0 -68 24.5 -128t67.5 -104.5t102 -70t128 -25.5t128 25.5t101.5 70t67 104.5t24.5 128t-24.5 128t-67 104.5t-101.5 70t-128 25.5t-128 -25.5t-102 -70t-67.5 -104.5t-24.5 -128zM829 357q0 -82 -29.5 -153t-82 -124t-123.5 -83.5t-154 -30.5t-154.5 30.5
t-124 83.5t-82 124t-29.5 153t29.5 153t82 124t124 83.5t154.5 30.5t154 -30.5t123.5 -83.5t82 -124t29.5 -153zM627 265q0 -13 -9.5 -40t-32 -54t-60 -47.5t-92.5 -20.5q-49 0 -88.5 18.5t-67.5 51.5t-43 79.5t-15 103.5q0 58 15.5 105.5t43.5 81.5t66.5 53t85.5 19
q29 0 57 -9.5t51 -29.5v9q0 10 8.5 20t23.5 10q13 0 22 -6t11 -18q4 -33 7 -61.5t5 -49.5t3.5 -32.5l1.5 -11.5q0 -14 -8.5 -22t-24.5 -8q-9 0 -19 5t-14 22q-16 51 -44.5 83.5t-72.5 32.5q-69 0 -107.5 -51.5t-38.5 -140.5q0 -87 38 -138t107 -51q31 0 52 9.5t35 25
t23.5 34.5t16.5 38q5 13 13.5 17.5t18.5 4.5q16 0 24 -9t8 -23z" />
    <glyph glyph-name="ydieresis" unicode="&#xff;" horiz-adv-x="620" 
d="M336 633q0 16 6 30t16.5 24.5t25 16.5t30.5 6q32 0 54.5 -22.5t22.5 -54.5q0 -16 -6 -30.5t-16.5 -25t-24.5 -16.5t-30 -6q-32 0 -55 23t-23 55zM128 633q0 16 6 30t16.5 24.5t25 16.5t30.5 6q32 0 54.5 -22.5t22.5 -54.5q0 -16 -6 -30.5t-16.5 -25t-24.5 -16.5t-30 -6
q-32 0 -55 23t-23 55zM98 -250q-30 0 -55.5 8t-44 23t-29.5 35.5t-11 44.5q0 35 22.5 56.5t52.5 21.5q29 0 48.5 -18.5t19.5 -49.5q0 -13 -6.5 -26.5t-16.5 -21.5q5 -2 13.5 -3t16.5 -1q34 0 59 17.5t44.5 44.5t34 59.5t26.5 62.5l-176 397h-55q-16 0 -27 10.5t-11 25.5
q0 17 11 27.5t27 10.5h202q16 0 27 -10.5t11 -27.5q0 -15 -11 -25.5t-27 -10.5h-57l132 -308l130 308h-61q-16 0 -27.5 10.5t-11.5 25.5q0 17 11.5 27.5t27.5 10.5h192q16 0 26.5 -10.5t10.5 -27.5q0 -15 -10.5 -25.5t-26.5 -10.5h-51l-208 -481q-36 -84 -90.5 -126.5
t-131.5 -42.5z" />
    <glyph glyph-name="oe" unicode="&#x153;" horiz-adv-x="900" 
d="M124 236q0 -35 9.5 -66t28 -55t46 -38t62.5 -14q36 0 63 14t46 38t28.5 55t9.5 66t-9.5 66.5t-28.5 55.5t-46 38t-63 14q-35 0 -62.5 -14t-46 -38t-28 -55.5t-9.5 -66.5zM645 415q-54 0 -90.5 -33t-47.5 -82h267q-8 51 -43 83t-86 32zM829 64q-36 -40 -86 -57t-98 -17
q-67 0 -115.5 28t-73.5 77q-28 -48 -75 -76.5t-111 -28.5q-51 0 -93 19t-72 52t-46.5 78t-16.5 97t16.5 97.5t46.5 79t72 52.5t93 19q64 0 111.5 -29.5t74.5 -78.5q30 51 80.5 79.5t111.5 28.5q50 0 89.5 -18.5t66.5 -48.5t41.5 -68t14.5 -77q0 -20 -8 -31.5t-34 -11.5h-320
q0 -10 5 -25q3 -28 14.5 -53.5t30 -45t44 -31t58.5 -11.5q51 0 83 21.5t53 52.5q12 18 33 18q14 0 25.5 -10t11.5 -27q0 -15 -9.5 -29.5t-17.5 -24.5z" />
    <glyph glyph-name="Aring" unicode="&#xc5;" horiz-adv-x="722" 
d="M267 324h185l-92 276zM293 626q-37 17 -59.5 51.5t-22.5 77.5q0 31 11.5 57.5t32 46.5t47.5 31.5t58 11.5t58 -11.5t47 -31.5t32 -46.5t12 -57.5q0 -43 -22.5 -77.5t-58.5 -51.5l193 -551h65q17 0 28 -10.5t11 -26.5q0 -17 -11 -27.5t-28 -10.5h-233q-17 0 -28.5 10.5
t-11.5 27.5q0 16 11.5 26.5t28.5 10.5h82l-60 178h-230l-61 -178h85q17 0 28 -10.5t11 -26.5q0 -17 -11 -27.5t-28 -10.5h-233q-17 0 -28 10.5t-11 27.5q0 16 11 26.5t28 10.5h65zM281 756q0 -17 6.5 -31.5t17 -25.5t25 -17.5t30.5 -6.5t30.5 6.5t25 17.5t17 25.5t6.5 31.5
q0 16 -6.5 31t-17 26t-25 17.5t-30.5 6.5t-30.5 -6.5t-25 -17.5t-17 -26t-6.5 -31z" />
    <glyph glyph-name="Ydieresis" unicode="&#x178;" horiz-adv-x="712" 
d="M382 859q0 16 6 30t16.5 24.5t25 16.5t30.5 6q32 0 54.5 -22.5t22.5 -54.5q0 -16 -6 -30.5t-16.5 -25t-24.5 -16.5t-30 -6q-32 0 -55 23t-23 55zM174 859q0 16 6 30t16.5 24.5t25 16.5t30.5 6q32 0 54.5 -22.5t22.5 -54.5q0 -16 -6 -30.5t-16.5 -25t-24.5 -16.5t-30 -6
q-32 0 -55 23t-23 55zM358 326l172 298h-75q-17 0 -28 11t-11 27t11 27t28 11h220q17 0 28 -11t11 -27t-11 -27t-28 -11h-58l-221 -375v-174h95q17 0 28 -10.5t11 -26.5q0 -17 -11 -27.5t-28 -10.5h-274q-16 0 -27 10.5t-11 27.5q0 16 11 26.5t27 10.5h96v177l-218 372h-58
q-17 0 -27.5 11t-10.5 27t10.5 27t27.5 11h223q17 0 28 -11t11 -27t-11 -27t-28 -11h-72z" />
    <glyph glyph-name="OE" unicode="&#x152;" horiz-adv-x="1050" 
d="M139 356q0 -21 3.5 -50t13 -60t28 -61.5t48 -55t72.5 -39.5t103 -15h104v549h-91q-85 0 -139.5 -26t-86 -66t-43.5 -87t-12 -89zM400 0q-81 0 -145.5 25t-109 71t-68 110.5t-23.5 143.5q0 81 23.5 145.5t71 110t118 70t164.5 24.5h486q16 0 28 -10t13 -27l8 -138
q1 -18 -11.5 -29.5t-29.5 -11.5t-28 10.5t-13 26.5l-7 103h-284v-222h127v69q0 17 12 28.5t29 11.5t29 -11.5t12 -28.5v-213q0 -17 -12 -28.5t-29 -11.5t-29 11.5t-12 28.5v68h-127v-251h315l23 120q3 17 15 25.5t26 8.5q17 0 30.5 -12.5t9.5 -32.5l-28 -152
q-3 -14 -15.5 -23t-26.5 -9h-542z" />
    <glyph glyph-name="dotlessi" unicode="&#x131;" horiz-adv-x="421" 
d="M259 74h118q16 0 26.5 -10.5t10.5 -26.5t-10.5 -26.5t-26.5 -10.5h-316q-16 0 -26.5 10.5t-10.5 26.5t10.5 26.5t26.5 10.5h118v325h-112q-16 0 -27 11t-11 26q0 17 11 27.5t27 10.5h154q16 0 27 -10.5t11 -27.5v-362z" />
    <glyph glyph-name="Ccedilla" unicode="&#xc7;" horiz-adv-x="640" 
d="M587 208q0 -11 -5.5 -31.5t-17.5 -44.5t-31.5 -49t-47 -45.5t-65 -33.5t-84.5 -14l-11.5 -27t-10.5 -27q29 0 55.5 -5t46.5 -17.5t32 -33t12 -51.5q0 -32 -13 -54.5t-34 -37t-49 -21.5t-58 -7q-42 0 -69 8.5t-35 12.5q-14 7 -18 17t-4 17q0 16 10 26.5t26 10.5
q6 0 13.5 -3l17 -7t22 -7t29.5 -3q44 0 61.5 13.5t17.5 32.5q0 24 -18.5 33t-47.5 9q-13 0 -23.5 -1t-19.5 -1q-18 0 -28 10t-10 24q0 4 1 11t6 16l32 70q-50 12 -89.5 41.5t-67.5 74.5t-42.5 103.5t-14.5 127.5q0 84 20.5 151.5t57 115t86 73t106.5 25.5q43 0 85.5 -15.5
t70.5 -55.5l-3 33q-2 16 9 27t27 11q17 0 27.5 -9.5t12.5 -25.5l24 -216q2 -16 -9 -27t-31 -11q-30 0 -39 32q-10 37 -22 70t-30 58.5t-44.5 40.5t-66.5 15q-46 0 -82.5 -21.5t-62 -59.5t-39 -91.5t-13.5 -117.5q0 -63 14 -115t40 -89.5t63 -58.5t84 -21q40 0 68 13.5
t47.5 36t33 51t24.5 58.5q9 25 35 25q20 0 29.5 -11t9.5 -28z" />
    <glyph glyph-name="Agrave" unicode="&#xc0;" horiz-adv-x="722" 
d="M231 894q-11 6 -15.5 15.5t-4.5 18.5q0 17 11.5 27t26.5 10q11 0 19 -4l224 -125q10 -5 14.5 -14t4.5 -18q0 -14 -10.5 -25t-26.5 -11q-5 0 -10.5 1t-12.5 5zM267 324h185l-92 276zM475 253h-230l-61 -178h85q17 0 28 -10.5t11 -26.5q0 -17 -11 -27.5t-28 -10.5h-233
q-17 0 -28 10.5t-11 27.5q0 16 11 26.5t28 10.5h65l217 619q5 12 15 22t28 10q17 0 27.5 -9.5t14.5 -20.5l218 -621h65q17 0 28 -10.5t11 -26.5q0 -17 -11 -27.5t-28 -10.5h-233q-17 0 -28.5 10.5t-11.5 27.5q0 16 11.5 26.5t28.5 10.5h82z" />
    <glyph glyph-name="Aacute" unicode="&#xc1;" horiz-adv-x="722" 
d="M271 774q-7 -4 -12.5 -5t-10.5 -1q-16 0 -26.5 11t-10.5 25q0 9 4.5 18t14.5 14l224 125q8 4 19 4q15 0 26.5 -10t11.5 -27q0 -9 -4.5 -18.5t-15.5 -15.5zM267 324h185l-92 276zM475 253h-230l-61 -178h85q17 0 28 -10.5t11 -26.5q0 -17 -11 -27.5t-28 -10.5h-233
q-17 0 -28 10.5t-11 27.5q0 16 11 26.5t28 10.5h65l217 619q5 12 15 22t28 10q17 0 27.5 -9.5t14.5 -20.5l218 -621h65q17 0 28 -10.5t11 -26.5q0 -17 -11 -27.5t-28 -10.5h-233q-17 0 -28.5 10.5t-11.5 27.5q0 16 11.5 26.5t28.5 10.5h82z" />
    <glyph glyph-name="Acircumflex" unicode="&#xc2;" horiz-adv-x="722" 
d="M362 976q12 0 23 -10l150 -124q10 -8 17.5 -16.5t7.5 -21.5q0 -16 -11.5 -27.5t-26.5 -11.5q-6 0 -13.5 2.5t-14.5 8.5l-132 110l-132 -110q-7 -6 -14.5 -8.5t-13.5 -2.5q-15 0 -26.5 11.5t-11.5 27.5q0 13 7.5 21.5t17.5 16.5l150 124q11 10 23 10zM267 324h185l-92 276
zM475 253h-230l-61 -178h85q17 0 28 -10.5t11 -26.5q0 -17 -11 -27.5t-28 -10.5h-233q-17 0 -28 10.5t-11 27.5q0 16 11 26.5t28 10.5h65l217 619q5 12 15 22t28 10q17 0 27.5 -9.5t14.5 -20.5l218 -621h65q17 0 28 -10.5t11 -26.5q0 -17 -11 -27.5t-28 -10.5h-233
q-17 0 -28.5 10.5t-11.5 27.5q0 16 11.5 26.5t28.5 10.5h82z" />
    <glyph glyph-name="Atilde" unicode="&#xc3;" horiz-adv-x="722" 
d="M281 828q-13 0 -22 -6.5t-20 -22.5q-5 -6 -11.5 -11t-18.5 -5q-16 0 -26 11.5t-10 26.5q0 12 7 27t20 28t32 22t43 9q22 0 45.5 -7t46 -15l42.5 -15t35 -7q16 0 23 7t12 16t11.5 16t22.5 7q14 0 26 -9t12 -26q0 -12 -6 -27.5t-18.5 -29t-32 -23t-46.5 -9.5
q-24 0 -48.5 6.5t-46 15t-40.5 15t-32 6.5zM267 324h185l-92 276zM475 253h-230l-61 -178h85q17 0 28 -10.5t11 -26.5q0 -17 -11 -27.5t-28 -10.5h-233q-17 0 -28 10.5t-11 27.5q0 16 11 26.5t28 10.5h65l217 619q5 12 15 22t28 10q17 0 27.5 -9.5t14.5 -20.5l218 -621h65
q17 0 28 -10.5t11 -26.5q0 -17 -11 -27.5t-28 -10.5h-233q-17 0 -28.5 10.5t-11.5 27.5q0 16 11.5 26.5t28.5 10.5h82z" />
    <glyph glyph-name="Adieresis" unicode="&#xc4;" horiz-adv-x="722" 
d="M387 859q0 16 6 30t16.5 24.5t25 16.5t30.5 6q32 0 54.5 -22.5t22.5 -54.5q0 -16 -6 -30.5t-16.5 -25t-24.5 -16.5t-30 -6q-32 0 -55 23t-23 55zM179 859q0 16 6 30t16.5 24.5t25 16.5t30.5 6q32 0 54.5 -22.5t22.5 -54.5q0 -16 -6 -30.5t-16.5 -25t-24.5 -16.5t-30 -6
q-32 0 -55 23t-23 55zM267 324h185l-92 276zM475 253h-230l-61 -178h85q17 0 28 -10.5t11 -26.5q0 -17 -11 -27.5t-28 -10.5h-233q-17 0 -28 10.5t-11 27.5q0 16 11 26.5t28 10.5h65l217 619q5 12 15 22t28 10q17 0 27.5 -9.5t14.5 -20.5l218 -621h65q17 0 28 -10.5
t11 -26.5q0 -17 -11 -27.5t-28 -10.5h-233q-17 0 -28.5 10.5t-11.5 27.5q0 16 11.5 26.5t28.5 10.5h82z" />
    <glyph glyph-name="Egrave" unicode="&#xc8;" horiz-adv-x="701" 
d="M220 894q-11 6 -15.5 15.5t-4.5 18.5q0 17 11.5 27t26.5 10q11 0 19 -4l224 -125q10 -5 14.5 -14t4.5 -18q0 -14 -10.5 -25t-26.5 -11q-5 0 -10.5 1t-12.5 5zM370 471q0 17 12 28.5t29 11.5t29 -11.5t12 -28.5v-213q0 -17 -12 -28.5t-29 -11.5t-29 11.5t-12 28.5v68h-127
v-251h315l23 120q3 17 15 25.5t26 8.5q17 0 30.5 -12.5t9.5 -32.5l-28 -152q-3 -14 -15.5 -23t-26.5 -9h-517q-17 0 -28 10.5t-11 27.5q0 16 11 26.5t28 10.5h86v549h-86q-17 0 -28 11t-11 27t11 27t28 11h492q16 0 28 -10t13 -27l8 -138q1 -18 -11.5 -29.5t-29.5 -11.5
t-28 10.5t-13 26.5l-7 103h-284v-222h127v69z" />
    <glyph glyph-name="Eacute" unicode="&#xc9;" horiz-adv-x="701" 
d="M260 774q-7 -4 -12.5 -5t-10.5 -1q-16 0 -26.5 11t-10.5 25q0 9 4.5 18t14.5 14l224 125q8 4 19 4q15 0 26.5 -10t11.5 -27q0 -9 -4.5 -18.5t-15.5 -15.5zM370 471q0 17 12 28.5t29 11.5t29 -11.5t12 -28.5v-213q0 -17 -12 -28.5t-29 -11.5t-29 11.5t-12 28.5v68h-127
v-251h315l23 120q3 17 15 25.5t26 8.5q17 0 30.5 -12.5t9.5 -32.5l-28 -152q-3 -14 -15.5 -23t-26.5 -9h-517q-17 0 -28 10.5t-11 27.5q0 16 11 26.5t28 10.5h86v549h-86q-17 0 -28 11t-11 27t11 27t28 11h492q16 0 28 -10t13 -27l8 -138q1 -18 -11.5 -29.5t-29.5 -11.5
t-28 10.5t-13 26.5l-7 103h-284v-222h127v69z" />
    <glyph glyph-name="Ecircumflex" unicode="&#xca;" horiz-adv-x="701" 
d="M351 976q12 0 23 -10l150 -124q10 -8 17.5 -16.5t7.5 -21.5q0 -16 -11.5 -27.5t-26.5 -11.5q-6 0 -13.5 2.5t-14.5 8.5l-132 110l-132 -110q-7 -6 -14.5 -8.5t-13.5 -2.5q-15 0 -26.5 11.5t-11.5 27.5q0 13 7.5 21.5t17.5 16.5l150 124q11 10 23 10zM370 471
q0 17 12 28.5t29 11.5t29 -11.5t12 -28.5v-213q0 -17 -12 -28.5t-29 -11.5t-29 11.5t-12 28.5v68h-127v-251h315l23 120q3 17 15 25.5t26 8.5q17 0 30.5 -12.5t9.5 -32.5l-28 -152q-3 -14 -15.5 -23t-26.5 -9h-517q-17 0 -28 10.5t-11 27.5q0 16 11 26.5t28 10.5h86v549h-86
q-17 0 -28 11t-11 27t11 27t28 11h492q16 0 28 -10t13 -27l8 -138q1 -18 -11.5 -29.5t-29.5 -11.5t-28 10.5t-13 26.5l-7 103h-284v-222h127v69z" />
    <glyph glyph-name="Edieresis" unicode="&#xcb;" horiz-adv-x="701" 
d="M377 859q0 16 6 30t16.5 24.5t25 16.5t30.5 6q32 0 54.5 -22.5t22.5 -54.5q0 -16 -6 -30.5t-16.5 -25t-24.5 -16.5t-30 -6q-32 0 -55 23t-23 55zM169 859q0 16 6 30t16.5 24.5t25 16.5t30.5 6q32 0 54.5 -22.5t22.5 -54.5q0 -16 -6 -30.5t-16.5 -25t-24.5 -16.5t-30 -6
q-32 0 -55 23t-23 55zM370 471q0 17 12 28.5t29 11.5t29 -11.5t12 -28.5v-213q0 -17 -12 -28.5t-29 -11.5t-29 11.5t-12 28.5v68h-127v-251h315l23 120q3 17 15 25.5t26 8.5q17 0 30.5 -12.5t9.5 -32.5l-28 -152q-3 -14 -15.5 -23t-26.5 -9h-517q-17 0 -28 10.5t-11 27.5
q0 16 11 26.5t28 10.5h86v549h-86q-17 0 -28 11t-11 27t11 27t28 11h492q16 0 28 -10t13 -27l8 -138q1 -18 -11.5 -29.5t-29.5 -11.5t-28 10.5t-13 26.5l-7 103h-284v-222h127v69z" />
    <glyph glyph-name="Igrave" unicode="&#xcc;" horiz-adv-x="476" 
d="M108 894q-11 6 -15.5 15.5t-4.5 18.5q0 17 11.5 27t26.5 10q11 0 19 -4l224 -125q10 -5 14.5 -14t4.5 -18q0 -14 -10.5 -25t-26.5 -11q-5 0 -10.5 1t-12.5 5zM197 624h-132q-16 0 -27 11t-11 27t11 27t27 11h346q16 0 27 -11t11 -27t-11 -27t-27 -11h-132v-549h132
q16 0 27 -10.5t11 -26.5q0 -17 -11 -27.5t-27 -10.5h-346q-16 0 -27 10.5t-11 27.5q0 16 11 26.5t27 10.5h132v549z" />
    <glyph glyph-name="Iacute" unicode="&#xcd;" horiz-adv-x="476" 
d="M148 774q-7 -4 -12.5 -5t-10.5 -1q-16 0 -26.5 11t-10.5 25q0 9 4.5 18t14.5 14l224 125q8 4 19 4q15 0 26.5 -10t11.5 -27q0 -9 -4.5 -18.5t-15.5 -15.5zM197 624h-132q-16 0 -27 11t-11 27t11 27t27 11h346q16 0 27 -11t11 -27t-11 -27t-27 -11h-132v-549h132
q16 0 27 -10.5t11 -26.5q0 -17 -11 -27.5t-27 -10.5h-346q-16 0 -27 10.5t-11 27.5q0 16 11 26.5t27 10.5h132v549z" />
    <glyph glyph-name="Icircumflex" unicode="&#xce;" horiz-adv-x="476" 
d="M239 976q12 0 23 -10l150 -124q10 -8 17.5 -16.5t7.5 -21.5q0 -16 -11.5 -27.5t-26.5 -11.5q-6 0 -13.5 2.5t-14.5 8.5l-132 110l-132 -110q-7 -6 -14.5 -8.5t-13.5 -2.5q-15 0 -26.5 11.5t-11.5 27.5q0 13 7.5 21.5t17.5 16.5l150 124q11 10 23 10zM197 624h-132
q-16 0 -27 11t-11 27t11 27t27 11h346q16 0 27 -11t11 -27t-11 -27t-27 -11h-132v-549h132q16 0 27 -10.5t11 -26.5q0 -17 -11 -27.5t-27 -10.5h-346q-16 0 -27 10.5t-11 27.5q0 16 11 26.5t27 10.5h132v549z" />
    <glyph glyph-name="Idieresis" unicode="&#xcf;" horiz-adv-x="476" 
d="M264 859q0 16 6 30t16.5 24.5t25 16.5t30.5 6q32 0 54.5 -22.5t22.5 -54.5q0 -16 -6 -30.5t-16.5 -25t-24.5 -16.5t-30 -6q-32 0 -55 23t-23 55zM56 859q0 16 6 30t16.5 24.5t25 16.5t30.5 6q32 0 54.5 -22.5t22.5 -54.5q0 -16 -6 -30.5t-16.5 -25t-24.5 -16.5t-30 -6
q-32 0 -55 23t-23 55zM197 624h-132q-16 0 -27 11t-11 27t11 27t27 11h346q16 0 27 -11t11 -27t-11 -27t-27 -11h-132v-549h132q16 0 27 -10.5t11 -26.5q0 -17 -11 -27.5t-27 -10.5h-346q-16 0 -27 10.5t-11 27.5q0 16 11 26.5t27 10.5h132v549z" />
    <glyph glyph-name="Ograve" unicode="&#xd2;" horiz-adv-x="670" 
d="M205 894q-11 6 -15.5 15.5t-4.5 18.5q0 17 11.5 27t26.5 10q11 0 19 -4l224 -125q10 -5 14.5 -14t4.5 -18q0 -14 -10.5 -25t-26.5 -11q-5 0 -10.5 1t-12.5 5zM335 63q43 0 79.5 22.5t62 61t40 90.5t14.5 112t-14.5 112.5t-40.5 91t-62 61t-79 22.5q-44 0 -80 -22.5
t-62 -61t-40.5 -91t-14.5 -112.5t14.5 -112t40.5 -90.5t62 -61t80 -22.5zM335 710q62 0 113.5 -28.5t88.5 -77.5t57.5 -114.5t20.5 -140.5t-20.5 -140t-57.5 -114t-88.5 -77t-113.5 -28q-63 0 -114.5 28t-88.5 77t-57.5 114t-20.5 140t20.5 140.5t57.5 114.5t88.5 77.5
t114.5 28.5z" />
    <glyph glyph-name="Oacute" unicode="&#xd3;" horiz-adv-x="670" 
d="M245 774q-7 -4 -12.5 -5t-10.5 -1q-16 0 -26.5 11t-10.5 25q0 9 4.5 18t14.5 14l224 125q8 4 19 4q15 0 26.5 -10t11.5 -27q0 -9 -4.5 -18.5t-15.5 -15.5zM335 63q43 0 79.5 22.5t62 61t40 90.5t14.5 112t-14.5 112.5t-40.5 91t-62 61t-79 22.5q-44 0 -80 -22.5t-62 -61
t-40.5 -91t-14.5 -112.5t14.5 -112t40.5 -90.5t62 -61t80 -22.5zM335 710q62 0 113.5 -28.5t88.5 -77.5t57.5 -114.5t20.5 -140.5t-20.5 -140t-57.5 -114t-88.5 -77t-113.5 -28q-63 0 -114.5 28t-88.5 77t-57.5 114t-20.5 140t20.5 140.5t57.5 114.5t88.5 77.5t114.5 28.5z
" />
    <glyph glyph-name="Ocircumflex" unicode="&#xd4;" horiz-adv-x="670" 
d="M336 976q12 0 23 -10l150 -124q10 -8 17.5 -16.5t7.5 -21.5q0 -16 -11.5 -27.5t-26.5 -11.5q-6 0 -13.5 2.5t-14.5 8.5l-132 110l-132 -110q-7 -6 -14.5 -8.5t-13.5 -2.5q-15 0 -26.5 11.5t-11.5 27.5q0 13 7.5 21.5t17.5 16.5l150 124q11 10 23 10zM335 63
q43 0 79.5 22.5t62 61t40 90.5t14.5 112t-14.5 112.5t-40.5 91t-62 61t-79 22.5q-44 0 -80 -22.5t-62 -61t-40.5 -91t-14.5 -112.5t14.5 -112t40.5 -90.5t62 -61t80 -22.5zM335 710q62 0 113.5 -28.5t88.5 -77.5t57.5 -114.5t20.5 -140.5t-20.5 -140t-57.5 -114t-88.5 -77
t-113.5 -28q-63 0 -114.5 28t-88.5 77t-57.5 114t-20.5 140t20.5 140.5t57.5 114.5t88.5 77.5t114.5 28.5z" />
    <glyph glyph-name="Otilde" unicode="&#xd5;" horiz-adv-x="670" 
d="M255 828q-13 0 -22 -6.5t-20 -22.5q-5 -6 -11.5 -11t-18.5 -5q-16 0 -26 11.5t-10 26.5q0 12 7 27t20 28t32 22t43 9q22 0 45.5 -7t46 -15l42.5 -15t35 -7q16 0 23 7t12 16t11.5 16t22.5 7q14 0 26 -9t12 -26q0 -12 -6 -27.5t-18.5 -29t-32 -23t-46.5 -9.5
q-24 0 -48.5 6.5t-46 15t-40.5 15t-32 6.5zM335 63q43 0 79.5 22.5t62 61t40 90.5t14.5 112t-14.5 112.5t-40.5 91t-62 61t-79 22.5q-44 0 -80 -22.5t-62 -61t-40.5 -91t-14.5 -112.5t14.5 -112t40.5 -90.5t62 -61t80 -22.5zM335 710q62 0 113.5 -28.5t88.5 -77.5
t57.5 -114.5t20.5 -140.5t-20.5 -140t-57.5 -114t-88.5 -77t-113.5 -28q-63 0 -114.5 28t-88.5 77t-57.5 114t-20.5 140t20.5 140.5t57.5 114.5t88.5 77.5t114.5 28.5z" />
    <glyph glyph-name="Odieresis" unicode="&#xd6;" horiz-adv-x="670" 
d="M361 859q0 16 6 30t16.5 24.5t25 16.5t30.5 6q32 0 54.5 -22.5t22.5 -54.5q0 -16 -6 -30.5t-16.5 -25t-24.5 -16.5t-30 -6q-32 0 -55 23t-23 55zM153 859q0 16 6 30t16.5 24.5t25 16.5t30.5 6q32 0 54.5 -22.5t22.5 -54.5q0 -16 -6 -30.5t-16.5 -25t-24.5 -16.5t-30 -6
q-32 0 -55 23t-23 55zM335 63q43 0 79.5 22.5t62 61t40 90.5t14.5 112t-14.5 112.5t-40.5 91t-62 61t-79 22.5q-44 0 -80 -22.5t-62 -61t-40.5 -91t-14.5 -112.5t14.5 -112t40.5 -90.5t62 -61t80 -22.5zM335 710q62 0 113.5 -28.5t88.5 -77.5t57.5 -114.5t20.5 -140.5
t-20.5 -140t-57.5 -114t-88.5 -77t-113.5 -28q-63 0 -114.5 28t-88.5 77t-57.5 114t-20.5 140t20.5 140.5t57.5 114.5t88.5 77.5t114.5 28.5z" />
    <glyph glyph-name="Ntilde" unicode="&#xd1;" horiz-adv-x="799" 
d="M319 828q-13 0 -22 -6.5t-20 -22.5q-5 -6 -11.5 -11t-18.5 -5q-16 0 -26 11.5t-10 26.5q0 12 7 27t20 28t32 22t43 9q22 0 45.5 -7t46 -15l42.5 -15t35 -7q16 0 23 7t12 16t11.5 16t22.5 7q14 0 26 -9t12 -26q0 -12 -6 -27.5t-18.5 -29t-32 -23t-46.5 -9.5
q-24 0 -48.5 6.5t-46 15t-40.5 15t-32 6.5zM652 42q0 -19 -11.5 -31.5t-34.5 -12.5q-29 0 -49 32l-317 571v-526h106q16 0 27 -10.5t11 -26.5q0 -17 -11 -27.5t-27 -10.5h-271q-17 0 -28 10.5t-11 27.5q0 16 11 26.5t28 10.5h86v549h-86q-17 0 -28 11t-11 27t11 27t28 11
h163q14 0 26 -5t20 -19l289 -526v474h-85q-17 0 -28 11t-11 27t11 27t28 11h230q17 0 28 -11t11 -27t-11 -27t-28 -11h-66v-582z" />
    <glyph glyph-name="ccedilla" unicode="&#xe7;" horiz-adv-x="519" 
d="M283 484q38 0 72 -10t59 -28t39.5 -41.5t14.5 -50.5q0 -34 -20.5 -55t-51.5 -21q-29 0 -50 19t-21 48q0 16 7 30t20 22q-10 7 -28.5 12.5t-39.5 5.5q-30 0 -59 -12t-51 -34.5t-35.5 -55.5t-13.5 -75q0 -36 10 -67.5t30 -55.5t50 -38t70 -14q26 0 46 6.5t35.5 17.5
t27.5 24t21 27q12 18 33 18q14 0 25.5 -10t11.5 -27q0 -15 -9.5 -30t-17.5 -24q-18 -22 -40 -36.5t-46 -23t-48 -12t-47 -3.5h-2l-11.5 -27t-10.5 -27q29 0 55.5 -5t46.5 -17.5t32 -33t12 -51.5q0 -32 -13 -54.5t-34 -37t-49 -21.5t-58 -7q-42 0 -69 8.5t-35 12.5
q-14 7 -18 17t-4 17q0 16 10 26.5t26 10.5q6 0 13.5 -3l17 -7t22 -7t29.5 -3q44 0 61.5 13.5t17.5 32.5q0 24 -18.5 33t-47.5 9q-13 0 -23.5 -1t-19.5 -1q-18 0 -28 10t-10 24q0 4 1 11t6 16l32 71q-39 10 -70 32t-52.5 53t-33 69.5t-11.5 82.5q0 58 19.5 104.5t53 78
t77.5 48.5t92 17z" />
    <glyph glyph-name="Ugrave" unicode="&#xd9;" horiz-adv-x="805" 
d="M272 894q-11 6 -15.5 15.5t-4.5 18.5q0 17 11.5 27t26.5 10q11 0 19 -4l224 -125q10 -5 14.5 -14t4.5 -18q0 -14 -10.5 -25t-26.5 -11q-5 0 -10.5 1t-12.5 5zM665 259q0 -84 -28 -137t-68.5 -82t-86 -39.5t-81.5 -10.5q-38 0 -83.5 10.5t-85 39.5t-66 80.5t-26.5 133.5
v370h-76q-17 0 -28 11t-11 27t11 27t28 11h244q17 0 28 -11t11 -27t-11 -27t-28 -11h-86v-368q0 -96 50 -145.5t131 -49.5t132 50.5t51 146.5v366h-89q-17 0 -28 11t-11 27t11 27t28 11h244q17 0 28 -11t11 -27t-11 -27t-28 -11h-76v-365z" />
    <glyph glyph-name="Uacute" unicode="&#xda;" horiz-adv-x="805" 
d="M312 774q-7 -4 -12.5 -5t-10.5 -1q-16 0 -26.5 11t-10.5 25q0 9 4.5 18t14.5 14l224 125q8 4 19 4q15 0 26.5 -10t11.5 -27q0 -9 -4.5 -18.5t-15.5 -15.5zM665 259q0 -84 -28 -137t-68.5 -82t-86 -39.5t-81.5 -10.5q-38 0 -83.5 10.5t-85 39.5t-66 80.5t-26.5 133.5v370
h-76q-17 0 -28 11t-11 27t11 27t28 11h244q17 0 28 -11t11 -27t-11 -27t-28 -11h-86v-368q0 -96 50 -145.5t131 -49.5t132 50.5t51 146.5v366h-89q-17 0 -28 11t-11 27t11 27t28 11h244q17 0 28 -11t11 -27t-11 -27t-28 -11h-76v-365z" />
    <glyph glyph-name="Ucircumflex" unicode="&#xdb;" horiz-adv-x="805" 
d="M402 976q12 0 23 -10l150 -124q10 -8 17.5 -16.5t7.5 -21.5q0 -16 -11.5 -27.5t-26.5 -11.5q-6 0 -13.5 2.5t-14.5 8.5l-132 110l-132 -110q-7 -6 -14.5 -8.5t-13.5 -2.5q-15 0 -26.5 11.5t-11.5 27.5q0 13 7.5 21.5t17.5 16.5l150 124q11 10 23 10zM665 259
q0 -84 -28 -137t-68.5 -82t-86 -39.5t-81.5 -10.5q-38 0 -83.5 10.5t-85 39.5t-66 80.5t-26.5 133.5v370h-76q-17 0 -28 11t-11 27t11 27t28 11h244q17 0 28 -11t11 -27t-11 -27t-28 -11h-86v-368q0 -96 50 -145.5t131 -49.5t132 50.5t51 146.5v366h-89q-17 0 -28 11t-11 27
t11 27t28 11h244q17 0 28 -11t11 -27t-11 -27t-28 -11h-76v-365z" />
    <glyph glyph-name="Udieresis" unicode="&#xdc;" horiz-adv-x="805" 
d="M429 859q0 16 6 30t16.5 24.5t25 16.5t30.5 6q32 0 54.5 -22.5t22.5 -54.5q0 -16 -6 -30.5t-16.5 -25t-24.5 -16.5t-30 -6q-32 0 -55 23t-23 55zM221 859q0 16 6 30t16.5 24.5t25 16.5t30.5 6q32 0 54.5 -22.5t22.5 -54.5q0 -16 -6 -30.5t-16.5 -25t-24.5 -16.5t-30 -6
q-32 0 -55 23t-23 55zM665 259q0 -84 -28 -137t-68.5 -82t-86 -39.5t-81.5 -10.5q-38 0 -83.5 10.5t-85 39.5t-66 80.5t-26.5 133.5v370h-76q-17 0 -28 11t-11 27t11 27t28 11h244q17 0 28 -11t11 -27t-11 -27t-28 -11h-86v-368q0 -96 50 -145.5t131 -49.5t132 50.5
t51 146.5v366h-89q-17 0 -28 11t-11 27t11 27t28 11h244q17 0 28 -11t11 -27t-11 -27t-28 -11h-76v-365z" />
    <glyph glyph-name="agrave" unicode="&#xe0;" horiz-adv-x="541" 
d="M140 668q-11 6 -15.5 15.5t-4.5 18.5q0 17 11.5 27t26.5 10q11 0 19 -4l224 -125q10 -5 14.5 -14t4.5 -18q0 -14 -10.5 -25t-26.5 -11q-5 0 -10.5 1t-12.5 5zM362 219q-14 1 -29 1h-29q-29 0 -61.5 -1.5t-60.5 -10t-46.5 -25.5t-18.5 -48q0 -38 28 -57.5t68 -19.5
q23 0 46 5.5t43.5 15t36 23t23.5 29.5v88zM365 55q-31 -35 -73 -50t-84 -15q-36 0 -67 9t-54.5 27t-37 45t-13.5 63q0 47 21 77t54.5 47t74.5 23.5t81 6.5l95 -2v28q0 16 -4 33t-16 31.5t-33.5 23.5t-56.5 9q-38 0 -68 -9t-48 -19l-24 -11.5t-15 -3.5q-19 0 -28.5 11
t-9.5 25q0 24 31 42q13 7 31.5 14t40.5 12.5t46.5 8.5t48.5 3q86 0 136 -43.5t50 -124.5v-242h53q15 0 27 -10t12 -26q0 -14 -10 -26t-31 -12h-90q-17 0 -28 10.5t-11 26.5v18z" />
    <glyph glyph-name="aacute" unicode="&#xe1;" horiz-adv-x="541" 
d="M180 548q-7 -4 -12.5 -5t-10.5 -1q-16 0 -26.5 11t-10.5 25q0 9 4.5 18t14.5 14l224 125q8 4 19 4q15 0 26.5 -10t11.5 -27q0 -9 -4.5 -18.5t-15.5 -15.5zM362 219q-14 1 -29 1h-29q-29 0 -61.5 -1.5t-60.5 -10t-46.5 -25.5t-18.5 -48q0 -38 28 -57.5t68 -19.5
q23 0 46 5.5t43.5 15t36 23t23.5 29.5v88zM365 55q-31 -35 -73 -50t-84 -15q-36 0 -67 9t-54.5 27t-37 45t-13.5 63q0 47 21 77t54.5 47t74.5 23.5t81 6.5l95 -2v28q0 16 -4 33t-16 31.5t-33.5 23.5t-56.5 9q-38 0 -68 -9t-48 -19l-24 -11.5t-15 -3.5q-19 0 -28.5 11
t-9.5 25q0 24 31 42q13 7 31.5 14t40.5 12.5t46.5 8.5t48.5 3q86 0 136 -43.5t50 -124.5v-242h53q15 0 27 -10t12 -26q0 -14 -10 -26t-31 -12h-90q-17 0 -28 10.5t-11 26.5v18z" />
    <glyph glyph-name="acircumflex" unicode="&#xe2;" horiz-adv-x="541" 
d="M362 219q-14 1 -29 1h-29q-29 0 -61.5 -1.5t-60.5 -10t-46.5 -25.5t-18.5 -48q0 -38 28 -57.5t68 -19.5q23 0 46 5.5t43.5 15t36 23t23.5 29.5v88zM270 750q12 0 23 -10l150 -124q10 -8 17.5 -16.5t7.5 -21.5q0 -16 -11.5 -27.5t-26.5 -11.5q-6 0 -13.5 2.5t-14.5 8.5
l-132 110l-132 -110q-7 -6 -14.5 -8.5t-13.5 -2.5q-15 0 -26.5 11.5t-11.5 27.5q0 13 7.5 21.5t17.5 16.5l150 124q11 10 23 10zM365 55q-31 -35 -73 -50t-84 -15q-36 0 -67 9t-54.5 27t-37 45t-13.5 63q0 47 21 77t54.5 47t74.5 23.5t81 6.5l95 -2v28q0 16 -4 33t-16 31.5
t-33.5 23.5t-56.5 9q-38 0 -68 -9t-48 -19l-24 -11.5t-15 -3.5q-19 0 -28.5 11t-9.5 25q0 24 31 42q13 7 31.5 14t40.5 12.5t46.5 8.5t48.5 3q86 0 136 -43.5t50 -124.5v-242h53q15 0 27 -10t12 -26q0 -14 -10 -26t-31 -12h-90q-17 0 -28 10.5t-11 26.5v18z" />
    <glyph glyph-name="atilde" unicode="&#xe3;" horiz-adv-x="541" 
d="M189 602q-13 0 -22 -6.5t-20 -22.5q-5 -6 -11.5 -11t-18.5 -5q-16 0 -26 11.5t-10 26.5q0 12 7 27t20 28t32 22t43 9q22 0 45.5 -7t46 -15l42.5 -15t35 -7q16 0 23 7t12 16t11.5 16t22.5 7q14 0 26 -9t12 -26q0 -12 -6 -27.5t-18.5 -29t-32 -23t-46.5 -9.5
q-24 0 -48.5 6.5t-46 15t-40.5 15t-32 6.5zM362 219q-14 1 -29 1h-29q-29 0 -61.5 -1.5t-60.5 -10t-46.5 -25.5t-18.5 -48q0 -38 28 -57.5t68 -19.5q23 0 46 5.5t43.5 15t36 23t23.5 29.5v88zM365 55q-31 -35 -73 -50t-84 -15q-36 0 -67 9t-54.5 27t-37 45t-13.5 63
q0 47 21 77t54.5 47t74.5 23.5t81 6.5l95 -2v28q0 16 -4 33t-16 31.5t-33.5 23.5t-56.5 9q-38 0 -68 -9t-48 -19l-24 -11.5t-15 -3.5q-19 0 -28.5 11t-9.5 25q0 24 31 42q13 7 31.5 14t40.5 12.5t46.5 8.5t48.5 3q86 0 136 -43.5t50 -124.5v-242h53q15 0 27 -10t12 -26
q0 -14 -10 -26t-31 -12h-90q-17 0 -28 10.5t-11 26.5v18z" />
    <glyph glyph-name="adieresis" unicode="&#xe4;" horiz-adv-x="541" 
d="M297 633q0 16 6 30t16.5 24.5t25 16.5t30.5 6q32 0 54.5 -22.5t22.5 -54.5q0 -16 -6 -30.5t-16.5 -25t-24.5 -16.5t-30 -6q-32 0 -55 23t-23 55zM89 633q0 16 6 30t16.5 24.5t25 16.5t30.5 6q32 0 54.5 -22.5t22.5 -54.5q0 -16 -6 -30.5t-16.5 -25t-24.5 -16.5t-30 -6
q-32 0 -55 23t-23 55zM362 219q-14 1 -29 1h-29q-29 0 -61.5 -1.5t-60.5 -10t-46.5 -25.5t-18.5 -48q0 -38 28 -57.5t68 -19.5q23 0 46 5.5t43.5 15t36 23t23.5 29.5v88zM365 55q-31 -35 -73 -50t-84 -15q-36 0 -67 9t-54.5 27t-37 45t-13.5 63q0 47 21 77t54.5 47
t74.5 23.5t81 6.5l95 -2v28q0 16 -4 33t-16 31.5t-33.5 23.5t-56.5 9q-38 0 -68 -9t-48 -19l-24 -11.5t-15 -3.5q-19 0 -28.5 11t-9.5 25q0 24 31 42q13 7 31.5 14t40.5 12.5t46.5 8.5t48.5 3q86 0 136 -43.5t50 -124.5v-242h53q15 0 27 -10t12 -26q0 -14 -10 -26t-31 -12
h-90q-17 0 -28 10.5t-11 26.5v18z" />
    <glyph glyph-name="aring" unicode="&#xe5;" horiz-adv-x="541" 
d="M270 597q33 0 56 24t23 57t-23 57t-56 24t-56 -24t-23 -57t23 -57t56 -24zM362 219q-14 1 -29 1h-29q-29 0 -61.5 -1.5t-60.5 -10t-46.5 -25.5t-18.5 -48q0 -38 28 -57.5t68 -19.5q23 0 46 5.5t43.5 15t36 23t23.5 29.5v88zM270 824q31 0 58 -11.5t47.5 -31t32 -46.5
t11.5 -57t-11.5 -57t-32 -46.5t-47.5 -31t-58 -11.5t-58 11.5t-47.5 31t-32 46.5t-11.5 57t11.5 57t32 46.5t47.5 31t58 11.5zM365 55q-31 -35 -73 -50t-84 -15q-36 0 -67 9t-54.5 27t-37 45t-13.5 63q0 47 21 77t54.5 47t74.5 23.5t81 6.5l95 -2v28q0 16 -4 33t-16 31.5
t-33.5 23.5t-56.5 9q-38 0 -68 -9t-48 -19l-24 -11.5t-15 -3.5q-19 0 -28.5 11t-9.5 25q0 24 31 42q13 7 31.5 14t40.5 12.5t46.5 8.5t48.5 3q86 0 136 -43.5t50 -124.5v-242h53q15 0 27 -10t12 -26q0 -14 -10 -26t-31 -12h-90q-17 0 -28 10.5t-11 26.5v18z" />
    <glyph glyph-name="idieresis" unicode="&#xef;" horiz-adv-x="421" 
d="M237 633q0 16 6 30t16.5 24.5t25 16.5t30.5 6q32 0 54.5 -22.5t22.5 -54.5q0 -16 -6 -30.5t-16.5 -25t-24.5 -16.5t-30 -6q-32 0 -55 23t-23 55zM29 633q0 16 6 30t16.5 24.5t25 16.5t30.5 6q32 0 54.5 -22.5t22.5 -54.5q0 -16 -6 -30.5t-16.5 -25t-24.5 -16.5t-30 -6
q-32 0 -55 23t-23 55zM259 74h118q16 0 26.5 -10.5t10.5 -26.5t-10.5 -26.5t-26.5 -10.5h-316q-16 0 -26.5 10.5t-10.5 26.5t10.5 26.5t26.5 10.5h118v325h-112q-16 0 -27 11t-11 26q0 17 11 27.5t27 10.5h154q16 0 27 -10.5t11 -27.5v-362z" />
    <glyph glyph-name="icircumflex" unicode="&#xee;" horiz-adv-x="421" 
d="M211 750q12 0 23 -10l150 -124q10 -8 17.5 -16.5t7.5 -21.5q0 -16 -11.5 -27.5t-26.5 -11.5q-6 0 -13.5 2.5t-14.5 8.5l-132 110l-132 -110q-7 -6 -14.5 -8.5t-13.5 -2.5q-15 0 -26.5 11.5t-11.5 27.5q0 13 7.5 21.5t17.5 16.5l150 124q11 10 23 10zM259 74h118
q16 0 26.5 -10.5t10.5 -26.5t-10.5 -26.5t-26.5 -10.5h-316q-16 0 -26.5 10.5t-10.5 26.5t10.5 26.5t26.5 10.5h118v325h-112q-16 0 -27 11t-11 26q0 17 11 27.5t27 10.5h154q16 0 27 -10.5t11 -27.5v-362z" />
    <glyph glyph-name="iacute" unicode="&#xed;" horiz-adv-x="421" 
d="M121 548q-7 -4 -12.5 -5t-10.5 -1q-16 0 -26.5 11t-10.5 25q0 9 4.5 18t14.5 14l224 125q8 4 19 4q15 0 26.5 -10t11.5 -27q0 -9 -4.5 -18.5t-15.5 -15.5zM259 74h118q16 0 26.5 -10.5t10.5 -26.5t-10.5 -26.5t-26.5 -10.5h-316q-16 0 -26.5 10.5t-10.5 26.5t10.5 26.5
t26.5 10.5h118v325h-112q-16 0 -27 11t-11 26q0 17 11 27.5t27 10.5h154q16 0 27 -10.5t11 -27.5v-362z" />
    <glyph glyph-name="igrave" unicode="&#xec;" horiz-adv-x="421" 
d="M81 668q-11 6 -15.5 15.5t-4.5 18.5q0 17 11.5 27t26.5 10q11 0 19 -4l224 -125q10 -5 14.5 -14t4.5 -18q0 -14 -10.5 -25t-26.5 -11q-5 0 -10.5 1t-12.5 5zM259 74h118q16 0 26.5 -10.5t10.5 -26.5t-10.5 -26.5t-26.5 -10.5h-316q-16 0 -26.5 10.5t-10.5 26.5t10.5 26.5
t26.5 10.5h118v325h-112q-16 0 -27 11t-11 26q0 17 11 27.5t27 10.5h154q16 0 27 -10.5t11 -27.5v-362z" />
    <glyph glyph-name="edieresis" unicode="&#xeb;" horiz-adv-x="528" 
d="M290 633q0 16 6 30t16.5 24.5t25 16.5t30.5 6q32 0 54.5 -22.5t22.5 -54.5q0 -16 -6 -30.5t-16.5 -25t-24.5 -16.5t-30 -6q-32 0 -55 23t-23 55zM82 633q0 16 6 30t16.5 24.5t25 16.5t30.5 6q32 0 54.5 -22.5t22.5 -54.5q0 -16 -6 -30.5t-16.5 -25t-24.5 -16.5t-30 -6
q-32 0 -55 23t-23 55zM272 415q-54 0 -90.5 -33t-47.5 -82h267q-8 51 -42.5 83t-86.5 32zM456 65q-35 -40 -83.5 -57.5t-96.5 -17.5q-53 0 -96.5 19t-74 52t-47 78t-16.5 96q0 56 17.5 102t49 78.5t73.5 50.5t92 18t89.5 -18.5t67 -48.5t42 -68t14.5 -77q0 -20 -9.5 -31.5
t-33.5 -11.5h-318q0 -31 10.5 -60.5t30 -53t47.5 -37.5t64 -14q50 0 82 21t53 52q13 19 34 19q14 0 25 -10t11 -27q0 -15 -9 -29.5t-18 -24.5z" />
    <glyph glyph-name="ecircumflex" unicode="&#xea;" horiz-adv-x="528" 
d="M264 750q12 0 23 -10l150 -124q10 -8 17.5 -16.5t7.5 -21.5q0 -16 -11.5 -27.5t-26.5 -11.5q-6 0 -13.5 2.5t-14.5 8.5l-132 110l-132 -110q-7 -6 -14.5 -8.5t-13.5 -2.5q-15 0 -26.5 11.5t-11.5 27.5q0 13 7.5 21.5t17.5 16.5l150 124q11 10 23 10zM272 415
q-54 0 -90.5 -33t-47.5 -82h267q-8 51 -42.5 83t-86.5 32zM456 65q-35 -40 -83.5 -57.5t-96.5 -17.5q-53 0 -96.5 19t-74 52t-47 78t-16.5 96q0 56 17.5 102t49 78.5t73.5 50.5t92 18t89.5 -18.5t67 -48.5t42 -68t14.5 -77q0 -20 -9.5 -31.5t-33.5 -11.5h-318
q0 -31 10.5 -60.5t30 -53t47.5 -37.5t64 -14q50 0 82 21t53 52q13 19 34 19q14 0 25 -10t11 -27q0 -15 -9 -29.5t-18 -24.5z" />
    <glyph glyph-name="eacute" unicode="&#xe9;" horiz-adv-x="528" 
d="M174 548q-7 -4 -12.5 -5t-10.5 -1q-16 0 -26.5 11t-10.5 25q0 9 4.5 18t14.5 14l224 125q8 4 19 4q15 0 26.5 -10t11.5 -27q0 -9 -4.5 -18.5t-15.5 -15.5zM272 415q-54 0 -90.5 -33t-47.5 -82h267q-8 51 -42.5 83t-86.5 32zM456 65q-35 -40 -83.5 -57.5t-96.5 -17.5
q-53 0 -96.5 19t-74 52t-47 78t-16.5 96q0 56 17.5 102t49 78.5t73.5 50.5t92 18t89.5 -18.5t67 -48.5t42 -68t14.5 -77q0 -20 -9.5 -31.5t-33.5 -11.5h-318q0 -31 10.5 -60.5t30 -53t47.5 -37.5t64 -14q50 0 82 21t53 52q13 19 34 19q14 0 25 -10t11 -27q0 -15 -9 -29.5
t-18 -24.5z" />
    <glyph glyph-name="egrave" unicode="&#xe8;" horiz-adv-x="528" 
d="M134 668q-11 6 -15.5 15.5t-4.5 18.5q0 17 11.5 27t26.5 10q11 0 19 -4l224 -125q10 -5 14.5 -14t4.5 -18q0 -14 -10.5 -25t-26.5 -11q-5 0 -10.5 1t-12.5 5zM272 415q-54 0 -90.5 -33t-47.5 -82h267q-8 51 -42.5 83t-86.5 32zM456 65q-35 -40 -83.5 -57.5t-96.5 -17.5
q-53 0 -96.5 19t-74 52t-47 78t-16.5 96q0 56 17.5 102t49 78.5t73.5 50.5t92 18t89.5 -18.5t67 -48.5t42 -68t14.5 -77q0 -20 -9.5 -31.5t-33.5 -11.5h-318q0 -31 10.5 -60.5t30 -53t47.5 -37.5t64 -14q50 0 82 21t53 52q13 19 34 19q14 0 25 -10t11 -27q0 -15 -9 -29.5
t-18 -24.5z" />
    <glyph glyph-name="ntilde" unicode="&#xf1;" horiz-adv-x="662" 
d="M250 602q-13 0 -22 -6.5t-20 -22.5q-5 -6 -11.5 -11t-18.5 -5q-16 0 -26 11.5t-10 26.5q0 12 7 27t20 28t32 22t43 9q22 0 45.5 -7t46 -15l42.5 -15t35 -7q16 0 23 7t12 16t11.5 16t22.5 7q14 0 26 -9t12 -26q0 -12 -6 -27.5t-18.5 -29t-32 -23t-46.5 -9.5
q-24 0 -48.5 6.5t-46 15t-40.5 15t-32 6.5zM134 74v326h-66q-14 0 -26.5 11t-12.5 26q0 17 11 27t28 10h105q17 0 28 -10.5t11 -27.5v-44q26 47 71 69.5t93 22.5q37 0 69 -10.5t55 -32.5t36 -54.5t13 -75.5v-237h65q14 0 26.5 -11t12.5 -26q0 -16 -11 -26.5t-28 -10.5h-198
q-14 0 -26 10.5t-12 26.5t11 26.5t27 10.5h53v239q0 28 -9 47t-23.5 30.5t-32 16.5t-34.5 5q-29 0 -57 -12t-50 -36t-35.5 -59.5t-13.5 -81.5v-149h71q17 0 27.5 -11t10.5 -26q0 -16 -11 -26.5t-27 -10.5h-216q-14 0 -26 10.5t-12 26.5t11 26.5t27 10.5h65z" />
    <glyph glyph-name="ograve" unicode="&#xf2;" horiz-adv-x="541" 
d="M140 668q-11 6 -15.5 15.5t-4.5 18.5q0 17 11.5 27t26.5 10q11 0 19 -4l224 -125q10 -5 14.5 -14t4.5 -18q0 -14 -10.5 -25t-26.5 -11q-5 0 -10.5 1t-12.5 5zM270 63q36 0 63 14t46 38t28.5 55t9.5 66t-9.5 66.5t-28.5 55.5t-46 38t-63 14q-35 0 -62.5 -14t-46 -38
t-28 -55.5t-9.5 -66.5t9.5 -66t28 -55t46 -38t62.5 -14zM270 484q52 0 94 -19t72 -52.5t46 -79t16 -97.5t-16 -97t-46 -78t-72 -52t-94 -19q-51 0 -93 19t-72 52t-46.5 78t-16.5 97t16.5 97.5t46.5 79t72 52.5t93 19z" />
    <glyph glyph-name="oacute" unicode="&#xf3;" horiz-adv-x="541" 
d="M180 548q-7 -4 -12.5 -5t-10.5 -1q-16 0 -26.5 11t-10.5 25q0 9 4.5 18t14.5 14l224 125q8 4 19 4q15 0 26.5 -10t11.5 -27q0 -9 -4.5 -18.5t-15.5 -15.5zM270 63q36 0 63 14t46 38t28.5 55t9.5 66t-9.5 66.5t-28.5 55.5t-46 38t-63 14q-35 0 -62.5 -14t-46 -38
t-28 -55.5t-9.5 -66.5t9.5 -66t28 -55t46 -38t62.5 -14zM270 484q52 0 94 -19t72 -52.5t46 -79t16 -97.5t-16 -97t-46 -78t-72 -52t-94 -19q-51 0 -93 19t-72 52t-46.5 78t-16.5 97t16.5 97.5t46.5 79t72 52.5t93 19z" />
    <glyph glyph-name="ocircumflex" unicode="&#xf4;" horiz-adv-x="541" 
d="M270 750q12 0 23 -10l150 -124q10 -8 17.5 -16.5t7.5 -21.5q0 -16 -11.5 -27.5t-26.5 -11.5q-6 0 -13.5 2.5t-14.5 8.5l-132 110l-132 -110q-7 -6 -14.5 -8.5t-13.5 -2.5q-15 0 -26.5 11.5t-11.5 27.5q0 13 7.5 21.5t17.5 16.5l150 124q11 10 23 10zM270 63q36 0 63 14
t46 38t28.5 55t9.5 66t-9.5 66.5t-28.5 55.5t-46 38t-63 14q-35 0 -62.5 -14t-46 -38t-28 -55.5t-9.5 -66.5t9.5 -66t28 -55t46 -38t62.5 -14zM270 484q52 0 94 -19t72 -52.5t46 -79t16 -97.5t-16 -97t-46 -78t-72 -52t-94 -19q-51 0 -93 19t-72 52t-46.5 78t-16.5 97
t16.5 97.5t46.5 79t72 52.5t93 19z" />
    <glyph glyph-name="otilde" unicode="&#xf5;" horiz-adv-x="541" 
d="M189 602q-13 0 -22 -6.5t-20 -22.5q-5 -6 -11.5 -11t-18.5 -5q-16 0 -26 11.5t-10 26.5q0 12 7 27t20 28t32 22t43 9q22 0 45.5 -7t46 -15l42.5 -15t35 -7q16 0 23 7t12 16t11.5 16t22.5 7q14 0 26 -9t12 -26q0 -12 -6 -27.5t-18.5 -29t-32 -23t-46.5 -9.5
q-24 0 -48.5 6.5t-46 15t-40.5 15t-32 6.5zM270 63q36 0 63 14t46 38t28.5 55t9.5 66t-9.5 66.5t-28.5 55.5t-46 38t-63 14q-35 0 -62.5 -14t-46 -38t-28 -55.5t-9.5 -66.5t9.5 -66t28 -55t46 -38t62.5 -14zM270 484q52 0 94 -19t72 -52.5t46 -79t16 -97.5t-16 -97t-46 -78
t-72 -52t-94 -19q-51 0 -93 19t-72 52t-46.5 78t-16.5 97t16.5 97.5t46.5 79t72 52.5t93 19z" />
    <glyph glyph-name="odieresis" unicode="&#xf6;" horiz-adv-x="541" 
d="M297 633q0 16 6 30t16.5 24.5t25 16.5t30.5 6q32 0 54.5 -22.5t22.5 -54.5q0 -16 -6 -30.5t-16.5 -25t-24.5 -16.5t-30 -6q-32 0 -55 23t-23 55zM89 633q0 16 6 30t16.5 24.5t25 16.5t30.5 6q32 0 54.5 -22.5t22.5 -54.5q0 -16 -6 -30.5t-16.5 -25t-24.5 -16.5t-30 -6
q-32 0 -55 23t-23 55zM270 63q36 0 63 14t46 38t28.5 55t9.5 66t-9.5 66.5t-28.5 55.5t-46 38t-63 14q-35 0 -62.5 -14t-46 -38t-28 -55.5t-9.5 -66.5t9.5 -66t28 -55t46 -38t62.5 -14zM270 484q52 0 94 -19t72 -52.5t46 -79t16 -97.5t-16 -97t-46 -78t-72 -52t-94 -19
q-51 0 -93 19t-72 52t-46.5 78t-16.5 97t16.5 97.5t46.5 79t72 52.5t93 19z" />
    <glyph glyph-name="ugrave" unicode="&#xf9;" horiz-adv-x="650" 
d="M195 668q-11 6 -15.5 15.5t-4.5 18.5q0 17 11.5 27t26.5 10q11 0 19 -4l224 -125q10 -5 14.5 -14t4.5 -18q0 -14 -10.5 -25t-26.5 -11q-5 0 -10.5 1t-12.5 5zM527 74h74q17 0 28 -10.5t11 -26.5t-11 -26.5t-28 -10.5h-114q-17 0 -28 10.5t-11 26.5v41q-27 -44 -72 -66
t-93 -22q-74 0 -120 43t-46 130v237h-70q-17 0 -28 11t-11 26q0 17 11 27t28 10h112q16 0 27 -10t11 -27v-277q0 -29 8.5 -48t21.5 -30t29.5 -15.5t33.5 -4.5q29 0 57 11.5t50 34.5t35.5 58.5t13.5 82.5v151h-76q-16 0 -26.5 11t-10.5 26q0 17 10.5 27t27.5 10h117
q17 0 28 -10.5t11 -27.5v-362z" />
    <glyph glyph-name="uacute" unicode="&#xfa;" horiz-adv-x="650" 
d="M235 548q-7 -4 -12.5 -5t-10.5 -1q-16 0 -26.5 11t-10.5 25q0 9 4.5 18t14.5 14l224 125q8 4 19 4q15 0 26.5 -10t11.5 -27q0 -9 -4.5 -18.5t-15.5 -15.5zM527 74h74q17 0 28 -10.5t11 -26.5t-11 -26.5t-28 -10.5h-114q-17 0 -28 10.5t-11 26.5v41q-27 -44 -72 -66
t-93 -22q-74 0 -120 43t-46 130v237h-70q-17 0 -28 11t-11 26q0 17 11 27t28 10h112q16 0 27 -10t11 -27v-277q0 -29 8.5 -48t21.5 -30t29.5 -15.5t33.5 -4.5q29 0 57 11.5t50 34.5t35.5 58.5t13.5 82.5v151h-76q-16 0 -26.5 11t-10.5 26q0 17 10.5 27t27.5 10h117
q17 0 28 -10.5t11 -27.5v-362z" />
    <glyph glyph-name="ucircumflex" unicode="&#xfb;" horiz-adv-x="650" 
d="M325 750q12 0 23 -10l150 -124q10 -8 17.5 -16.5t7.5 -21.5q0 -16 -11.5 -27.5t-26.5 -11.5q-6 0 -13.5 2.5t-14.5 8.5l-132 110l-132 -110q-7 -6 -14.5 -8.5t-13.5 -2.5q-15 0 -26.5 11.5t-11.5 27.5q0 13 7.5 21.5t17.5 16.5l150 124q11 10 23 10zM527 74h74
q17 0 28 -10.5t11 -26.5t-11 -26.5t-28 -10.5h-114q-17 0 -28 10.5t-11 26.5v41q-27 -44 -72 -66t-93 -22q-74 0 -120 43t-46 130v237h-70q-17 0 -28 11t-11 26q0 17 11 27t28 10h112q16 0 27 -10t11 -27v-277q0 -29 8.5 -48t21.5 -30t29.5 -15.5t33.5 -4.5q29 0 57 11.5
t50 34.5t35.5 58.5t13.5 82.5v151h-76q-16 0 -26.5 11t-10.5 26q0 17 10.5 27t27.5 10h117q17 0 28 -10.5t11 -27.5v-362z" />
    <glyph glyph-name="udieresis" unicode="&#xfc;" horiz-adv-x="650" 
d="M351 633q0 16 6 30t16.5 24.5t25 16.5t30.5 6q32 0 54.5 -22.5t22.5 -54.5q0 -16 -6 -30.5t-16.5 -25t-24.5 -16.5t-30 -6q-32 0 -55 23t-23 55zM143 633q0 16 6 30t16.5 24.5t25 16.5t30.5 6q32 0 54.5 -22.5t22.5 -54.5q0 -16 -6 -30.5t-16.5 -25t-24.5 -16.5t-30 -6
q-32 0 -55 23t-23 55zM527 74h74q17 0 28 -10.5t11 -26.5t-11 -26.5t-28 -10.5h-114q-17 0 -28 10.5t-11 26.5v41q-27 -44 -72 -66t-93 -22q-74 0 -120 43t-46 130v237h-70q-17 0 -28 11t-11 26q0 17 11 27t28 10h112q16 0 27 -10t11 -27v-277q0 -29 8.5 -48t21.5 -30
t29.5 -15.5t33.5 -4.5q29 0 57 11.5t50 34.5t35.5 58.5t13.5 82.5v151h-76q-16 0 -26.5 11t-10.5 26q0 17 10.5 27t27.5 10h117q17 0 28 -10.5t11 -27.5v-362z" />
    <glyph glyph-name="currency" unicode="&#xa4;" horiz-adv-x="655" 
d="M328 490q-35 0 -60.5 -12t-42.5 -31.5t-25.5 -44.5t-8.5 -52t8.5 -52.5t25.5 -45t42.5 -31t60.5 -11.5q34 0 60 11.5t43 31t25.5 45t8.5 52.5t-8.5 52t-25.5 44.5t-43 31.5t-60 12zM328 563q37 0 68 -10t55 -26l64 63q12 11 26 11q15 0 27 -12t12 -27q0 -17 -11 -27
l-62 -60q38 -56 38 -125q0 -68 -35 -121l58 -57q12 -11 12 -27q0 -15 -12 -27t-27 -12t-26 11l-60 58q-25 -17 -57 -27.5t-70 -10.5t-70 10.5t-57 27.5l-60 -58q-11 -11 -26 -11t-27 12t-12 27q0 16 12 27l58 57q-35 53 -35 121q0 69 38 125l-62 60q-11 10 -11 27
q0 15 12 27t27 12q14 0 26 -11l64 -63q24 16 55 26t68 10z" />
    <glyph glyph-name="Euro" unicode="&#x20ac;" horiz-adv-x="690" 
d="M204 228q21 -77 68 -121t117 -44q41 0 69 14t47.5 36.5t32.5 50.5t24 56q9 25 35 25q20 0 29.5 -11t9.5 -28t-12 -52.5t-41.5 -72t-78.5 -64t-123 -27.5q-103 0 -171.5 63.5t-93.5 174.5h-55q-16 0 -26.5 10.5t-10.5 26.5q0 15 10.5 25.5t26.5 10.5h45q-1 11 -1.5 22
t-0.5 23q0 31 3 61h-46q-16 0 -26.5 11t-10.5 26q0 16 10.5 26.5t26.5 10.5h61q12 54 36.5 96.5t57.5 72t73.5 45t84.5 15.5q42 0 83.5 -15t70.5 -52q0 1 -0.5 5t-0.5 9.5t-0.5 10.5t-0.5 8q0 16 12 25.5t26 9.5q22 0 30.5 -9.5t10.5 -29.5l22 -210q0 -16 -10.5 -27
t-30.5 -11q-29 0 -38 32q-10 36 -22 69t-30 58t-44.5 40t-66.5 15q-66 0 -112.5 -42.5t-64.5 -114.5h196q16 0 26 -10.5t10 -26.5q0 -15 -10 -26t-26 -11h-212q-2 -14 -3 -29.5t-1 -30.5q0 -12 0.5 -23.5t1.5 -22.5h214q16 0 26 -10.5t10 -25.5q0 -16 -10 -26.5t-26 -10.5
h-200z" />
    <glyph glyph-name="minus" unicode="&#x2212;" horiz-adv-x="610" 
d="M126 306q-16 0 -27 10.5t-11 26.5t11 26.5t27 10.5h358q15 0 26.5 -10.5t11.5 -26.5t-11.5 -26.5t-26.5 -10.5h-358z" />
    <glyph glyph-name="Thorn" unicode="&#xde;" horiz-adv-x="668" 
d="M548 358q0 21 -7 41t-23.5 36.5t-43 26.5t-65.5 10h-166v-238h175q34 0 58.5 11t40.5 29t23.5 40t7.5 44zM161 625h-86q-17 0 -28 11t-11 27t11 27t28 11h287q17 0 28 -11t11 -27t-11 -27t-28 -11h-119v-77h166q62 0 104.5 -17t69 -44t38 -61t11.5 -67q0 -36 -13 -71.5
t-39 -64.5t-66.5 -47t-95.5 -18h-175v-83h119q17 0 28 -10.5t11 -26.5q0 -17 -11 -27.5t-28 -10.5h-287q-17 0 -28 10.5t-11 27.5q0 16 11 26.5t28 10.5h86v550z" />
    <glyph glyph-name="Eth" unicode="&#xd0;" horiz-adv-x="745" 
d="M244 326v-251h93q61 0 105 15t74 39.5t48 55t27 61.5t12 60t3 50t-3 49t-12 57.5t-27 58.5t-48 52t-74 37t-105 14h-93v-222h176q17 0 28 -11t11 -27t-11 -27t-28 -11h-176zM341 700q81 0 145.5 -23t109.5 -66.5t69.5 -108t24.5 -146.5t-24.5 -148t-69.5 -112t-109.5 -71
t-145.5 -25h-265q-17 0 -28 10.5t-11 27.5q0 16 11 26.5t28 10.5h85v251h-85q-17 0 -28 11t-11 27t11 27t28 11h85v222h-85q-17 0 -28 11t-11 27t11 27t28 11h265z" />
    <glyph glyph-name="eth" unicode="&#xf0;" horiz-adv-x="551" 
d="M124 237q0 -35 9.5 -66.5t28 -55t46 -37.5t62.5 -14t62.5 14t46 38t28.5 55t10 66t-10 66.5t-29 55t-46.5 37.5t-62.5 14t-62 -14t-45.5 -37.5t-28 -55t-9.5 -66.5zM498 255q0 -64 -18 -113.5t-49 -83t-73 -51t-89 -17.5q-52 0 -94 19t-71.5 52.5t-45.5 78.5t-16 97
t16 97t45 78.5t70 52.5t91 19q31 0 60 -10.5t49 -27.5q-19 36 -51 78t-89 80l-65 -65q-7 -6 -14 -7.5t-10 -1.5q-9 0 -22 8t-13 27q0 6 2.5 13t8.5 12l50 49q-26 12 -45.5 18t-32 11t-19 11.5t-6.5 20.5q0 18 12 27t31 9q7 0 16 -2t22.5 -6.5t32.5 -13l48 -20.5l48 49
l14.5 12t19.5 6q16 0 26.5 -10.5t10.5 -23.5q0 -17 -13 -29l-45 -44q46 -34 84.5 -78t66 -95.5t42.5 -108.5t15 -117z" />
    <glyph glyph-name="threesuperior" unicode="&#xb3;" 
d="M251 554q48 -11 80.5 -45t32.5 -88q0 -33 -12.5 -60.5t-34 -48t-51.5 -31.5t-65 -11q-27 0 -52 6.5t-44 18t-30 28t-11 37.5q0 28 16.5 41.5t34.5 13.5q22 0 35.5 -14t13.5 -33q0 -9 -4.5 -18.5t-9.5 -14.5q19 -10 48 -10q44 0 72.5 26t28.5 68q0 21 -8 37t-20.5 27
t-29 17t-33.5 8l-25 -24q-10 -9 -23 -9t-20.5 8.5t-7.5 19.5q0 13 9 22l118 113h-148q-14 0 -22 8t-8 21t8 21t22 8h216q11 0 20 -7t9 -20q0 -6 -2.5 -13.5t-8.5 -12.5z" />
    <glyph glyph-name="twosuperior" unicode="&#xb2;" 
d="M298 376q0 13 9.5 22t22.5 9t21.5 -9t8.5 -22v-69q0 -13 -8.5 -20.5t-21.5 -7.5h-226q-16 0 -23 7t-7 25q0 35 24 67t59 61q27 22 51 38.5t42.5 32.5t29.5 33t11 40q0 27 -21 48.5t-55 21.5q-23 0 -42.5 -8.5t-30.5 -25.5q12 -6 19.5 -18.5t7.5 -26.5q0 -18 -14 -31.5
t-35 -13.5t-36 16t-15 43q0 24 11.5 45t31.5 37.5t46.5 26t57.5 9.5q30 0 55 -9t44 -25t29.5 -39t10.5 -50q0 -31 -13 -55t-33 -43.5t-44.5 -36l-48 -33.5t-43.5 -35.5t-30 -42.5h155v39z" />
    <glyph glyph-name="onesuperior" unicode="&#xb9;" 
d="M251 337h76q14 0 22 -8.5t8 -20.5q0 -13 -8 -21t-22 -8h-220q-14 0 -22 8t-8 21q0 12 8 20.5t22 8.5h82v258l-61 -80q-9 -12 -24 -12q-13 0 -22.5 8t-9.5 21q0 9 7 19l110 141q12 14 29 14q13 0 23 -8.5t10 -24.5v-336z" />
    <glyph glyph-name="apple" horiz-adv-x="1209" 
d="M426 655q0 -14 9 -23.5t23 -9.5t23 10t9 22q0 14 -9 23.5t-23 9.5t-23 -9.5t-9 -22.5zM571 3q0 -14 9 -23.5t23 -9.5t23 10t9 22q0 14 -9 23.5t-23 9.5t-23 -9.5t-9 -22.5zM828 613l59 32l25 -50q6 -12 0 -24t-17 -18q-11 -5 -23 -4t-18 12zM231 412l114 -40q8 -3 14.5 0
t8.5 11q3 7 0 14t-11 9l-115 41l15 47q2 8 -1 14.5t-11 8.5q-7 2 -14 -1t-9 -11l-43 -132q-2 -7 1 -14t11 -9t14.5 1t8.5 11zM259 575q-8 -2 -12 -8t-2 -14t8 -12t14 -2l104 23l9 -22q-7 -9 -7 -18q0 -11 7.5 -18.5t18.5 -7.5t17 8q8 7 7.5 16.5t-3.5 17.5l-63 159
q-3 7 -9.5 10t-14.5 0q-7 -3 -10 -9.5t0 -14.5l34 -86zM603 506q-48 0 -92 14q20 35 43.5 68.5t50.5 61.5q25 -26 48 -59t45 -70q-44 -15 -95 -15zM996 492q-3 7 -10 10q-8 2 -14 -1l-129 -62q-7 -4 -9.5 -10.5t0.5 -13.5l47 -105q7 -16 23 -9q8 3 10.5 10t-0.5 13l-40 90
l33 15l15 -33q3 -7 10 -9.5t14 0.5q16 7 9 24l-15 34l31 15l32 -72q3 -7 10 -9.5t14 0.5t9.5 10t-0.5 14zM822 545q11 -22 35 -30q29 -8 55 7q26 14 35 40t-3 49l-33 67q-3 8 -11 9.5t-14 -1.5l-135 -74q-7 -4 -9 -11t2 -14t11 -9t14 2l27 15zM752 97q0 8 -5 13t-13 5h-179
q25 13 55.5 31t56.5 41.5t43.5 52.5t17.5 64q0 23 -8 45t-23.5 39.5t-38.5 28.5t-53 11q-27 0 -51 -8.5t-42 -23.5t-28 -36.5t-10 -47.5q0 -17 6 -33.5t17.5 -30t27.5 -21.5t36 -8q13 0 27 4t25 13t18.5 23t7.5 33q0 26 -13 35t-23 9q-14 0 -23.5 -9.5t-9.5 -22.5
q0 -17 15 -27q1 -2 -3 -12t-23 -10q-23 0 -35 19.5t-12 38.5q0 36 25 58t66 22q43 0 64 -27.5t21 -60.5q0 -23 -9.5 -42.5t-25.5 -37t-35.5 -32l-38.5 -27.5q-38 -24 -67.5 -38.5t-32.5 -17.5q-8 -10 -4 -20q5 -11 17 -11h241q19 0 19 18zM823 751q103 0 172 -69
q40 -39 61.5 -94t21.5 -115q0 -71 -24.5 -134t-59.5 -116q-62 -89 -164 -170q-38 -30 -75 -54.5t-67.5 -42.5t-53 -30t-31.5 -16q-9 4 -31.5 16t-53 30t-67 43t-74.5 55q-103 82 -163 172q-39 57 -61 120.5t-22 127.5q0 61 22 116t62 94q71 68 172 68q57 0 105.5 -22.5
t86.5 -54.5q-26 -28 -51 -61t-48 -74q-26 -45 -46 -90.5t-35 -88t-25.5 -79t-16.5 -61.5l-50 10q-7 2 -13 -2t-8 -11t2 -12.5t12 -7.5l135 -29q7 -2 12.5 2t7.5 11q3 17 -13 21l-48 10q5 21 13.5 51.5t21 66.5t28.5 76t37 80q52 -19 109 -19q60 0 112 20q20 -39 36 -79
t28 -76t20.5 -67.5t13.5 -53.5l-48 -10q-16 -4 -14 -20q2 -8 8 -12t13 -2l135 28q7 2 11 7.5t2 12.5q-1 8 -7 12t-13 2l-49 -10q0 1 -0.5 1.5t-0.5 1.5q-6 25 -16.5 61.5t-25.5 79t-35.5 88.5t-45.5 91q-43 78 -95 131q42 36 90 56.5t101 20.5zM1115 474q0 67 -24.5 128
t-69.5 106q-82 79 -198 79q-66 0 -120.5 -24.5t-97.5 -62.5q-50 43 -105 65.5t-116 22.5q-114 0 -195 -78q-45 -45 -70 -106.5t-25 -130.5q0 -73 25 -141.5t65 -126.5q32 -48 74.5 -93t96.5 -87q45 -36 87 -63.5t75 -46.5t54 -28.5t23 -10.5q9 -4 18 0q2 1 23 10.5
t54.5 28.5t76 46t87.5 63q106 83 171 179q43 63 67 131.5t24 139.5zM1058 734q48 -50 74.5 -118.5t26.5 -142.5q0 -73 -22.5 -141t-61 -130t-90 -116.5t-109.5 -100.5t-120.5 -83t-121.5 -64q-16 -8 -31 -8t-31 8q-62 28 -125 66t-121 85t-108.5 102t-87.5 116.5t-58.5 129
t-21.5 138.5q0 75 27 143.5t75 118.5q46 47 106.5 70t128.5 23q67 0 122.5 -24t99.5 -62q48 43 102.5 63.5t114.5 20.5q67 0 127 -23.5t105 -70.5z" />
    <glyph glyph-name="thorn" unicode="&#xfe;" horiz-adv-x="579" 
d="M306 63q35 0 62.5 14t46 38t28.5 55t10 66t-9.5 66.5t-28 55.5t-46 38t-62.5 14t-62.5 -14t-46.5 -38t-29 -55.5t-10 -66.5t9.5 -66t28.5 -55t46.5 -38t62.5 -14zM160 408q25 37 65 56.5t90 19.5q52 0 93 -19.5t69.5 -52.5t43.5 -78t15 -96q0 -53 -15.5 -98t-45 -78.5
t-70.5 -52.5t-92 -19t-90.5 19.5t-62.5 55.5v-231h88q17 -1 27.5 -11t10.5 -26t-10.5 -26.5t-27.5 -10.5h-239q-16 0 -27 10.5t-11 26.5t11 26.5t27 10.5h70v791h-71q-16 1 -27 11.5t-11 25.5q0 17 11 27.5t27 10.5h113q16 0 27.5 -11t11.5 -26v-255z" />
    <glyph glyph-name="i.locl" horiz-adv-x="421" 
d="M129 631q0 32 23.5 55.5t55.5 23.5t55.5 -23.5t23.5 -55.5t-23.5 -55.5t-55.5 -23.5t-55.5 23.5t-23.5 55.5zM259 74h118q16 0 26.5 -10.5t10.5 -26.5t-10.5 -26.5t-26.5 -10.5h-316q-16 0 -26.5 10.5t-10.5 26.5t10.5 26.5t26.5 10.5h118v325h-112q-16 0 -27 11t-11 26
q0 17 11 27.5t27 10.5h154q16 0 27 -10.5t11 -27.5v-362z" />
    <glyph glyph-name="arrow.up" horiz-adv-x="673" 
d="M336 596q17 0 31 -14l245 -246q13 -13 13 -29q0 -20 -12 -31.5t-29 -11.5q-14 0 -21.5 6.5t-10.5 9.5l-178 180v-448q0 -16 -10.5 -27.5t-27.5 -11.5t-27.5 11.5t-10.5 27.5v448l-178 -180q-3 -3 -10.5 -9.5t-21.5 -6.5q-17 0 -29 11.5t-12 31.5q0 16 13 29l245 246
q14 14 31 14z" />
    <glyph glyph-name="arrow.down" horiz-adv-x="673" 
d="M336 -27q-17 0 -31 14l-245 246q-13 13 -13 29q0 20 12 31.5t29 11.5q14 0 21.5 -6.5t10.5 -9.5l178 -180v448q0 16 10.5 27.5t27.5 11.5t27.5 -11.5t10.5 -27.5v-448l178 180q3 3 10.5 9.5t21.5 6.5q17 0 29 -11.5t12 -31.5q0 -16 -13 -29l-245 -246q-14 -14 -31 -14z
" />
    <glyph glyph-name="arrowup.left" horiz-adv-x="673" 
d="M116 505q12 12 32 12l347 -1q21 0 31.5 -12.5t10.5 -27.5q0 -16 -11 -29t-34 -13l-253 1l317 -316q11 -13 11 -28t-10.5 -26.5t-26.5 -11.5t-28 12l-317 317l1 -254q0 -22 -13 -33.5t-29 -11.5q-15 0 -27.5 10.5t-12.5 32.5l-1 346q0 20 13 33z" />
    <glyph glyph-name="arrowup.right" horiz-adv-x="673" 
d="M554 505q13 -13 13 -33l-1 -346q0 -22 -12.5 -32.5t-27.5 -10.5q-16 0 -29 11.5t-13 33.5l1 254l-317 -317q-12 -12 -28 -12t-26.5 11.5t-10.5 26.5t11 28l317 316l-253 -1q-23 0 -34 13t-11 29q0 15 10.5 27.5t31.5 12.5l347 1q20 0 32 -12z" />
    <glyph glyph-name="arrowdown.left" horiz-adv-x="673" 
d="M116 65q-13 13 -13 33l1 346q0 22 12.5 32.5t27.5 10.5q16 0 29 -11.5t13 -33.5l-1 -254l317 317q12 12 28 12t26.5 -11.5t10.5 -26.5t-11 -28l-317 -316l253 1q23 0 34 -13t11 -29q0 -15 -10.5 -27.5t-31.5 -12.5l-347 -1q-20 0 -32 12z" />
    <glyph glyph-name="arrowdown.right" horiz-adv-x="673" 
d="M554 65q-12 -12 -32 -12l-347 1q-21 0 -31.5 12.5t-10.5 27.5q0 16 11 29t34 13l253 -1l-317 316q-11 13 -11 28t10.5 26.5t26.5 11.5t28 -12l317 -317l-1 254q0 22 13 33.5t29 11.5q15 0 27.5 -10.5t12.5 -32.5l1 -346q0 -20 -13 -33z" />
    <glyph glyph-name="zero.alt" horiz-adv-x="604" 
d="M302 62q36 0 66.5 21.5t52.5 59.5t34 90.5t12 114.5t-12 115t-34 91.5t-52.5 60.5t-66.5 22t-66.5 -22t-52.5 -60.5t-34 -91.5t-12 -115t12 -114.5t34 -90.5t52.5 -59.5t66.5 -21.5zM302 710q54 0 99.5 -27.5t78.5 -76t51 -115t18 -143.5t-18 -142.5t-51 -113.5
t-78.5 -75t-99.5 -27t-99.5 27t-78.5 75t-51 113.5t-18 142.5t18 143.5t51 115t78.5 76t99.5 27.5z" />
    <glyph glyph-name="one.alt" horiz-adv-x="506" 
d="M317 75h140q17 0 28 -10.5t11 -26.5q0 -17 -11 -27.5t-28 -10.5h-373q-17 0 -28 10.5t-11 27.5q0 16 11 26.5t28 10.5h151v490l-123 -169q-12 -16 -32 -16q-17 0 -29.5 11t-12.5 27q0 11 9 25l185 247q8 10 19 15t22 5q17 0 30.5 -12t13.5 -33v-590z" />
    <glyph glyph-name="two.alt" horiz-adv-x="580" 
d="M438 153q0 16 12.5 28t29.5 12t29 -12t12 -28v-117q0 -17 -12 -26.5t-28 -9.5h-379q-43 0 -43 50q0 28 12.5 56.5t33 55.5t47.5 52.5t56 49.5q48 39 88 68t69 56t45 56t16 68q0 27 -10 50t-28.5 40.5t-44.5 27.5t-57 10q-42 0 -82 -17.5t-59 -51.5q23 -5 39 -23t16 -43
q0 -32 -21.5 -48.5t-48.5 -16.5q-29 0 -53.5 21t-24.5 64q0 39 18.5 73t50.5 59t75 39t93 14q47 0 87.5 -14.5t70.5 -40.5t47 -62.5t17 -80.5q0 -52 -23 -93.5t-58.5 -76t-79 -65l-84.5 -62t-74 -65.5t-48 -75h294v78z" />
    <glyph glyph-name="three.alt" horiz-adv-x="573" 
d="M320 456q41 -8 76.5 -27t62 -47.5t42 -65.5t15.5 -82q0 -54 -19.5 -98.5t-54.5 -77t-83 -50.5t-105 -18q-44 0 -84 10t-70 29t-48 45t-18 59q0 41 24.5 60t51.5 19q31 0 50.5 -21t19.5 -49q0 -17 -9 -32t-20 -23q17 -14 43 -20.5t56 -6.5q39 0 72 12.5t57 35t37.5 54
t13.5 69.5q0 39 -14 68.5t-37.5 50t-53.5 31.5t-61 14l-56 -55q-13 -13 -30 -13t-27 12t-10 26q0 15 13 27l227 232h-281q-16 0 -27.5 10.5t-11.5 27.5q0 16 11.5 27t27.5 11h365q14 0 26.5 -9t12.5 -26q0 -18 -16 -35z" />
    <glyph glyph-name="four.alt" horiz-adv-x="599" 
d="M586 242q0 -18 -12 -28t-29 -10h-101v-148q0 -23 -8 -40.5t-33 -17.5q-17 0 -28.5 11t-11.5 28v167h-306q-19 0 -29.5 12t-10.5 26q0 19 14 33q31 31 66.5 72t69.5 92t63 111t48 131q3 12 13 21.5t27 9.5q18 0 28 -10t10 -27q0 -4 -0.5 -9t-1.5 -10q-9 -38 -25.5 -80
t-39 -84.5t-49 -82.5t-54.5 -73l-26.5 -31.5l-23.5 -26.5h227v163q0 16 11.5 27t28.5 11t29 -11t12 -27v-163h101q17 0 29 -10t12 -26z" />
    <glyph glyph-name="five.alt" horiz-adv-x="582" 
d="M264 60q39 0 72 13t57.5 36t38 55.5t13.5 71.5q0 40 -13.5 70.5t-37 51t-54.5 31t-66 10.5q-24 0 -56.5 -6t-59.5 -24l-4 -37q-2 -15 -13 -24t-27 -9q-20 0 -30 12.5t-10 29.5l24 325q1 16 12 25t28 9h336q17 0 28 -11t11 -27q0 -17 -11 -27.5t-28 -10.5h-301l-13 -178
q26 14 59 20.5t62 6.5q54 0 99.5 -17t79 -47.5t52 -74t18.5 -96.5q0 -54 -19.5 -99.5t-54.5 -78.5t-83 -51.5t-105 -18.5q-44 0 -84 10t-70 29t-48 45t-18 59q0 41 24.5 60t51.5 19q31 0 50.5 -21t19.5 -49q0 -17 -9 -32t-20 -23q17 -14 43 -20.5t56 -6.5z" />
    <glyph glyph-name="six.alt" horiz-adv-x="596" 
d="M300 63q38 0 69 12.5t53 34t34 51.5t12 66t-12.5 66t-34 51.5t-52 33.5t-66.5 12t-66.5 -11.5t-53 -33t-35 -52t-12.5 -67.5q0 -35 11.5 -65t33 -52t51.5 -34t68 -12zM553 227q0 -52 -19 -95.5t-52.5 -75t-80 -49t-101.5 -17.5q-54 0 -101 18t-81 53t-53.5 85.5
t-19.5 115.5q0 69 20.5 130t55 112t78.5 91.5t91.5 69t94.5 43.5t87 15q26 0 36.5 -10.5t10.5 -26.5q0 -17 -10.5 -25t-25.5 -10q-38 -5 -85.5 -22.5t-95 -49t-88 -77.5t-62.5 -108q22 27 66 48t98 21q52 0 96 -18t75 -49.5t48.5 -74.5t17.5 -94z" />
    <glyph glyph-name="seven.alt" horiz-adv-x="534" 
d="M528 660q0 -12 -4.5 -22t-15.5 -26l-83 -127t-93 -174q-17 -37 -29 -71.5t-21 -68t-15.5 -68t-10.5 -72.5q-2 -13 -12.5 -24t-30.5 -11t-32 11t-12 30q0 34 8.5 73.5t22.5 84.5q17 54 39.5 105.5t51 104t63 106.5l73.5 113h-313v-117q0 -17 -12.5 -28t-29.5 -11
q-16 0 -28.5 11t-12.5 28v153q0 17 12.5 28.5t28.5 11.5h416q18 0 29 -12.5t11 -27.5z" />
    <glyph glyph-name="eight.alt" horiz-adv-x="607" 
d="M303 64q37 0 68.5 11.5t55 31t37 46t13.5 57.5q0 30 -13 57.5t-36.5 48t-55.5 32.5t-69 12q-38 0 -69.5 -12t-54.5 -32.5t-36 -48t-13 -57.5q0 -31 13 -57.5t36.5 -46t55 -31t68.5 -11.5zM182 535q0 -21 8.5 -40t24.5 -33.5t38.5 -23t49.5 -8.5t49.5 8.5t38.5 23t25 33.5
t9 40t-9 40t-25.5 33.5t-38.5 22.5t-49 8t-49 -8t-38 -22.5t-25 -33.5t-9 -40zM303 710q43 0 80.5 -13t65 -36t43.5 -54.5t16 -67.5q0 -42 -22.5 -80t-69.5 -59q33 -11 60 -30.5t46 -45t29.5 -55.5t10.5 -62q0 -44 -18 -83.5t-51.5 -69t-81.5 -47t-108 -17.5t-108 17.5
t-81 47t-51 69t-18 83.5q0 32 10.5 62t29.5 55.5t46 45t60 30.5q-47 21 -69.5 59t-22.5 80q0 36 16 67.5t43.5 54.5t64.5 36t80 13z" />
    <glyph glyph-name="nine.alt" horiz-adv-x="596" 
d="M297 637q-38 0 -69 -12.5t-53 -34t-34 -51.5t-12 -66t12.5 -66t34 -51.5t52 -33.5t66.5 -12t66.5 11.5t53 33t35 52t12.5 67.5q0 35 -11.5 65t-33 51.5t-52 34t-67.5 12.5zM44 473q0 52 19 95.5t52.5 75t80 49t101.5 17.5q54 0 101 -18t81 -53t53.5 -85.5t19.5 -115.5
q0 -69 -20.5 -130t-55 -112t-78.5 -91.5t-91.5 -69t-94.5 -43.5t-87 -15q-26 0 -36.5 10.5t-10.5 26.5q0 17 10.5 25t25.5 10q37 5 85 22.5t95.5 49t87.5 77.5t63 108q-22 -27 -66 -48t-98 -21q-53 0 -96.5 18t-74.5 49.5t-48.5 74.5t-17.5 94z" />
    <glyph glyph-name="zero.tosf" horiz-adv-x="605" 
d="M303 59q35 0 64 13t50 37.5t33 59.5t12 79q0 43 -12 78.5t-33 60.5t-50 38.5t-64 13.5t-64 -13.5t-50 -38.5t-33 -60.5t-12 -78.5q0 -44 12 -79t33 -59.5t50 -37.5t64 -13zM303 508q54 0 98 -19.5t76 -54.5t49.5 -82.5t17.5 -103.5t-17.5 -103.5t-49.5 -82t-76 -53.5
t-98 -19t-98 19t-76 53.5t-49.5 82t-17.5 103.5t17.5 103.5t49.5 82.5t76 54.5t98 19.5z" />
    <glyph glyph-name="one.tosf" horiz-adv-x="605" 
d="M353 75h137q17 0 28 -10.5t11 -26.5q0 -17 -11 -27.5t-28 -10.5h-368q-17 0 -28 10.5t-11 27.5q0 16 11 26.5t28 10.5h149v327l-123 -90q-11 -8 -23 -8q-16 0 -27 12t-11 28q0 18 19 32l157 114q9 7 19.5 12.5t25.5 5.5q17 0 31 -12.5t14 -33.5v-387z" />
    <glyph glyph-name="two.tosf" horiz-adv-x="605" 
d="M132 0q-22 0 -37.5 12t-15.5 33t13 36.5t48 32.5l130.5 72t89 52t50.5 45.5t16 51.5q0 24 -10.5 43.5t-28 33.5t-41 21.5t-50.5 7.5q-38 0 -72.5 -13.5t-53.5 -42.5q20 -6 33.5 -22.5t13.5 -39.5q0 -25 -19.5 -45t-50.5 -20t-53 21.5t-22 58.5q0 35 17.5 66t48 54.5
t71 37t87.5 13.5q51 0 91 -13.5t67 -37.5t41.5 -55.5t14.5 -67.5q0 -59 -34.5 -98.5t-92.5 -72.5l-60.5 -33.5l-51 -27.5t-37 -19t-17.5 -8h276q16 0 27 -10.5t11 -26.5t-11 -27.5t-27 -11.5h-361z" />
    <glyph glyph-name="three.tosf" horiz-adv-x="605" 
d="M348 263q40 -9 75 -27.5t61 -46.5t41 -64.5t15 -81.5q0 -53 -19.5 -97t-54 -76t-82 -50t-103.5 -18q-44 0 -83 10t-69 28.5t-47.5 44.5t-17.5 58q0 41 23.5 60t50.5 19q31 0 50.5 -20.5t19.5 -48.5q0 -17 -9 -32t-20 -23q17 -13 42.5 -19.5t55.5 -6.5q39 0 71.5 12
t56 34.5t37 53t13.5 68.5q0 39 -14 68t-37 49t-52.5 31t-60.5 14l-55 -53q-13 -13 -30 -13t-27 11.5t-10 25.5q0 15 13 27l221 218h-274q-16 0 -27 11t-11 27t11 27t27 11h362q14 0 26 -8.5t12 -25.5q0 -8 -3.5 -17.5t-11.5 -17.5z" />
    <glyph glyph-name="four.tosf" horiz-adv-x="605" 
d="M585 51q0 -17 -11.5 -27t-28.5 -10h-100v-146q0 -24 -8 -40.5t-33 -16.5q-16 0 -27.5 11t-11.5 28v164h-302q-19 0 -29.5 11.5t-10.5 25.5q0 20 14 34q31 30 65.5 70t68 90t62.5 109t49 128q3 12 12.5 22t26.5 10t27 -10t10 -27q0 -5 -0.5 -9.5t-1.5 -9.5
q-11 -48 -33.5 -98.5t-51.5 -99.5t-63 -93.5t-67 -79.5h224v161q0 16 11.5 27t27.5 11q17 0 29 -11t12 -27v-161h100q17 0 28.5 -9.5t11.5 -26.5z" />
    <glyph glyph-name="five.tosf" horiz-adv-x="605" 
d="M485 494q16 0 27 -11t11 -27t-11 -27t-27 -11h-298l-12 -165q26 14 58 20.5t61 6.5q53 0 98 -16.5t78 -47t51.5 -73.5t18.5 -95q0 -53 -19.5 -98t-54 -77.5t-82 -51t-104.5 -18.5q-41 0 -80 9t-69.5 27t-49 44.5t-18.5 61.5q0 34 22.5 55.5t51.5 21.5q30 0 48.5 -20
t18.5 -45q0 -16 -7 -32.5t-18 -25.5q17 -13 42.5 -19.5t54.5 -6.5q39 0 72 12.5t57 35.5t37.5 55t13.5 70q0 39 -13.5 69t-37 50.5t-54 31t-64.5 10.5q-24 0 -56 -6t-59 -24l-4 -35q-5 -33 -40 -33q-18 0 -28 11t-10 27v4l23 309q1 16 12.5 25t27.5 9h332z" />
    <glyph glyph-name="six.tosf" horiz-adv-x="605" 
d="M303 62q37 0 67.5 12t52 34t33.5 51.5t12 65.5q0 35 -12 64.5t-34 50.5t-51.5 33t-65.5 12q-35 0 -65 -11.5t-52.5 -32.5t-35 -51t-12.5 -67q0 -35 11.5 -64.5t32.5 -51t51 -33.5t68 -12zM552 224q0 -51 -18.5 -94t-52 -74t-79 -48.5t-99.5 -17.5t-100 18t-80 52.5
t-53 84.5t-19 114q0 63 17.5 119t46.5 103.5t68 86.5t81 68q53 36 108 56.5t100 20.5q26 0 36.5 -10t10.5 -25q0 -17 -10 -25.5t-24 -10.5q-37 -5 -84 -21.5t-93.5 -47.5t-87 -76t-65.5 -107q10 12 27 24t38.5 21.5t46.5 15.5t51 6q52 0 95 -17.5t74 -49t48 -74t17 -92.5z
" />
    <glyph glyph-name="seven.tosf" horiz-adv-x="605" 
d="M545 453q0 -11 -4.5 -21.5t-15.5 -26.5l-8 -14l-78 -116t-82 -154q-17 -36 -28.5 -70t-20.5 -67.5t-15 -68t-11 -71.5q-2 -13 -12.5 -24t-30.5 -11t-32 10.5t-12 28.5q0 38 10.5 84.5t29 96t43 101.5t52.5 102.5t58 97.5t59 87h-306v-112q0 -16 -12.5 -27t-28.5 -11
q-17 0 -29 11t-12 27v149q0 16 12 27.5t29 11.5h406q17 0 28 -12.5t11 -27.5z" />
    <glyph glyph-name="eight.tosf" horiz-adv-x="605" 
d="M302 62q36 0 67 11t54 30.5t36 46t13 56.5t-13 56.5t-35.5 46.5t-53.5 31.5t-68 11.5t-68 -11.5t-53.5 -31.5t-35.5 -46.5t-13 -56.5t13 -56.5t36 -46t54 -30.5t67 -11zM302 421q27 0 49 8.5t37.5 22.5t24 33t8.5 39q0 21 -9 39.5t-24.5 32t-37.5 21.5t-48 8t-48 -8
t-38 -21.5t-24.5 -32t-8.5 -39.5q0 -20 8.5 -39t24 -33t37.5 -22.5t49 -8.5zM302 696q42 0 79 -13.5t64 -36.5t42.5 -54t15.5 -67q0 -42 -22.5 -77.5t-67.5 -56.5q33 -10 59 -29t45 -44t29 -54.5t10 -60.5q0 -44 -17.5 -82.5t-50.5 -67.5t-80 -46t-106 -17t-106 17t-80 46
t-50.5 67.5t-17.5 82.5q0 31 10 60.5t29 54.5t45 44t59 29q-45 21 -67.5 56.5t-22.5 77.5q0 36 15.5 67t42.5 54t64 36.5t79 13.5z" />
    <glyph glyph-name="nine.tosf" horiz-adv-x="605" 
d="M301 436q-37 0 -67.5 -12t-52 -33.5t-33.5 -51.5t-12 -65t12 -64.5t34 -51t51.5 -33.5t65.5 -12q35 0 65 11.5t52.5 33t35 51.5t12.5 66q0 35 -11.5 64.5t-32.5 51t-51.5 33.5t-67.5 12zM52 274q0 52 18.5 95t52 74t79 48t99.5 17t100 -18t80 -52t53 -84t19 -114
q0 -68 -20 -128t-54 -110.5t-77.5 -90.5t-90 -68t-93.5 -43t-86 -15q-26 0 -36.5 10t-10.5 26t10 25t24 11q37 4 84 21t93.5 47.5t87.5 76t66 107.5q-10 -13 -27 -25t-39 -21.5t-47 -15.5t-51 -6q-52 0 -95 17.5t-74 49t-48 74t-17 92.5z" />
    <glyph glyph-name="zero.posf" horiz-adv-x="562" 
d="M281 59q35 0 64 13t50 37.5t33 59.5t12 79q0 43 -12 78.5t-33 60.5t-50 38.5t-64 13.5t-64 -13.5t-50 -38.5t-33 -60.5t-12 -78.5q0 -44 12 -79t33 -59.5t50 -37.5t64 -13zM281 508q54 0 98 -19.5t76 -54.5t49.5 -82.5t17.5 -103.5t-17.5 -103.5t-49.5 -82t-76 -53.5
t-98 -19t-98 19t-76 53.5t-49.5 82t-17.5 103.5t17.5 103.5t49.5 82.5t76 54.5t98 19.5z" />
    <glyph glyph-name="one.posf" horiz-adv-x="526" 
d="M310 75h137q17 0 28 -10.5t11 -26.5q0 -17 -11 -27.5t-28 -10.5h-368q-17 0 -28 10.5t-11 27.5q0 16 11 26.5t28 10.5h149v327l-123 -90q-11 -8 -23 -8q-16 0 -27 12t-11 28q0 8 4.5 17t14.5 15l157 114q10 6 20.5 11.5t25.5 5.5q17 0 30.5 -12t13.5 -33v-387z" />
    <glyph glyph-name="two.posf" horiz-adv-x="539" 
d="M99 0q-22 0 -37.5 12t-15.5 33t13.5 36.5t48.5 32.5l131.5 72t89 52.5t50 45.5t15.5 51q0 24 -10.5 43.5t-28.5 33.5t-41.5 21.5t-49.5 7.5q-38 0 -72.5 -13.5t-53.5 -42.5q20 -6 33 -22.5t13 -39.5q0 -25 -19.5 -45t-49.5 -20q-31 0 -53 21.5t-22 58.5q0 35 17 66
t47 54.5t70.5 37t87.5 13.5q51 0 91 -13.5t68 -37.5t42.5 -55.5t14.5 -67.5q0 -59 -35 -99t-92 -72q-34 -20 -64 -35.5l-53 -27.5l-50 -25h276q16 0 27.5 -10.5t11.5 -26.5t-11.5 -27.5t-27.5 -11.5h-361z" />
    <glyph glyph-name="three.posf" horiz-adv-x="556" 
d="M324 263q40 -9 75 -27.5t61 -46.5t41 -64.5t15 -81.5q0 -53 -19.5 -97t-54 -76t-82 -50t-103.5 -18q-44 0 -83 10t-69 28.5t-47.5 44.5t-17.5 58q0 41 23.5 60t50.5 19q31 0 50.5 -20.5t19.5 -48.5q0 -17 -9 -32t-20 -23q17 -13 42.5 -19.5t55.5 -6.5q39 0 71.5 12
t56 34.5t37 53t13.5 68.5q0 39 -14 68t-37 49t-52.5 31t-60.5 14l-55 -53q-13 -13 -30 -13t-27 11.5t-10 25.5q0 15 13 27l221 218h-274q-16 0 -27 11t-11 27t11 27t27 11h362q14 0 26 -8.5t12 -25.5q0 -8 -3.5 -17.5t-11.5 -17.5z" />
    <glyph glyph-name="four.posf" horiz-adv-x="642" 
d="M602 51q0 -17 -12 -27t-28 -10h-100v-146q0 -22 -7.5 -39.5t-33.5 -17.5q-17 0 -28.5 11t-11.5 28v164h-301q-20 0 -30 11.5t-10 25.5q0 20 14 34q31 30 66 70.5t68.5 90.5t62.5 109t48 127q3 12 12 22t26 10t27.5 -10t10.5 -27q0 -5 -0.5 -9.5t-1.5 -9.5
q-9 -37 -25.5 -78.5t-38.5 -82.5t-48 -80t-54 -72l-49 -58h223v161q0 16 11.5 27t28.5 11t29 -11t12 -27v-161h100q16 0 28 -9.5t12 -26.5z" />
    <glyph glyph-name="five.posf" horiz-adv-x="557" 
d="M461 494q17 0 28 -11t11 -27t-11 -27t-28 -11h-298l-11 -165q26 14 58 20.5t61 6.5q53 0 98 -16.5t78 -47t51.5 -73.5t18.5 -95q0 -53 -19.5 -98t-54 -77.5t-82.5 -51t-104 -18.5q-42 0 -81 9t-69 27t-48.5 44.5t-18.5 61.5t22.5 56t51.5 21q31 0 49 -20.5t18 -45.5
q0 -16 -7.5 -32t-18.5 -25q17 -13 42.5 -19.5t55.5 -6.5q39 0 71.5 12.5t56.5 35.5t37.5 55t13.5 70q0 39 -13.5 69t-36.5 50.5t-54 31t-65 10.5q-23 0 -55.5 -6t-59.5 -24l-3 -35q-2 -16 -13 -24.5t-27 -8.5q-20 0 -29.5 12.5t-9.5 29.5l24 309q2 16 12.5 25t26.5 9h332z
" />
    <glyph glyph-name="six.posf" horiz-adv-x="581" 
d="M292 62q37 0 67.5 12t52 34t33.5 51.5t12 65.5q0 35 -12 64.5t-34 50.5t-51.5 33t-65.5 12q-35 0 -65 -11.5t-52.5 -32.5t-35 -51t-12.5 -67q0 -35 11.5 -64.5t32.5 -51t51 -33.5t68 -12zM541 224q0 -51 -18.5 -94t-52 -74t-79 -48.5t-99.5 -17.5t-100 18t-80 52.5
t-53 84.5t-19 114q0 63 17 119t46.5 103.5t68 86.5t81.5 68q52 37 107.5 57t100.5 20q26 0 36.5 -10t10.5 -25q0 -17 -10 -25.5t-24 -10.5q-37 -5 -84 -21.5t-92.5 -47.5t-85.5 -76t-64 -107q10 12 26.5 24t37 21.5t45 15.5t50.5 6q52 0 95 -17.5t74 -49t48 -74t17 -92.5z
" />
    <glyph glyph-name="seven.posf" horiz-adv-x="566" 
d="M526 453q0 -11 -4.5 -21.5t-15.5 -26.5l-8 -14l-78 -116t-82 -154q-17 -36 -28.5 -70t-20.5 -67.5t-15 -68t-11 -71.5q-2 -13 -12.5 -24t-30.5 -11t-32 10.5t-12 28.5q0 38 10.5 84.5t29 96t43 101.5t52.5 102.5t58 97.5t59 87h-306v-112q0 -16 -12.5 -27t-28.5 -11
q-17 0 -29 11t-12 27v149q0 16 12 27.5t29 11.5h406q17 0 28 -12.5t11 -27.5z" />
    <glyph glyph-name="eight.posf" horiz-adv-x="588" 
d="M294 62q36 0 67 11t54 30.5t36 46t13 56.5t-13 56.5t-35.5 46.5t-53.5 31.5t-68 11.5t-68 -11.5t-53.5 -31.5t-35.5 -46.5t-13 -56.5t13 -56.5t36 -46t54 -30.5t67 -11zM294 421q27 0 49 8.5t37.5 22.5t24 33t8.5 39q0 21 -9 39.5t-24.5 32t-37.5 21.5t-48 8t-48 -8
t-38 -21.5t-24.5 -32t-8.5 -39.5q0 -20 8.5 -39t24 -33t37.5 -22.5t49 -8.5zM294 696q42 0 79 -13.5t64 -36.5t42.5 -54t15.5 -67q0 -42 -22.5 -77.5t-67.5 -56.5q33 -10 59 -29t45 -44t29 -54.5t10 -60.5q0 -44 -17.5 -82.5t-50.5 -67.5t-80 -46t-106 -17t-106 17t-80 46
t-50.5 67.5t-17.5 82.5q0 31 10 60.5t29 54.5t45 44t59 29q-45 21 -67.5 56.5t-22.5 77.5q0 36 15.5 67t42.5 54t64 36.5t79 13.5z" />
    <glyph glyph-name="nine.posf" horiz-adv-x="576" 
d="M287 436q-37 0 -67 -12t-51.5 -33.5t-33 -51.5t-11.5 -65t12 -64.5t33 -51t50.5 -33.5t65.5 -12q35 0 64.5 11.5t51.5 33t34 51.5t12 66q0 35 -11 64.5t-31.5 51t-50.5 33.5t-67 12zM40 274q0 52 18.5 95t52 74t79 48t99.5 17t99.5 -18t78 -52t51 -84t18.5 -114
q0 -63 -17 -119t-46 -104t-66.5 -87t-79.5 -68q-52 -38 -106 -57.5t-99 -19.5q-26 0 -38 9.5t-12 26.5q0 18 10 26.5t25 10.5q37 4 83 20t91 46t84 75t63 107q-20 -25 -63 -45t-94 -20t-93 17.5t-73 49t-48 74t-17 92.5z" />
    <glyph glyph-name="zerosuperior" unicode="&#x2070;" 
d="M306 488q0 34 -7 63.5t-19 51t-28.5 34t-36.5 12.5t-37 -12.5t-29 -34t-18.5 -51t-6.5 -63.5q0 -35 6.5 -64.5t18.5 -51t29 -34t37 -12.5t36.5 12.5t28.5 34t19 51t7 64.5zM62 488q0 47 11 87t31.5 69t48.5 45.5t62 16.5t62 -16.5t48 -45.5t31 -69t11 -87t-11 -87
t-31 -69t-48 -45.5t-62 -16.5t-62 16.5t-48.5 45.5t-31.5 69t-11 87z" />
    <glyph glyph-name="foursuperior" unicode="&#x2074;" 
d="M394 428q0 -29 -31 -29h-56v-93q0 -13 -9.5 -21t-21.5 -8q-13 0 -22 8t-9 21v93h-180q-14 0 -21.5 9.5t-7.5 20.5q0 7 4.5 14.5t11.5 15.5q42 48 78 99t60 114l8 21q8 18 26 18q15 0 22 -9.5t7 -23.5q-5 -26 -18 -55t-30.5 -58.5t-38.5 -57.5t-42 -51h121v78q0 16 7 28.5
t24 12.5t24 -12.5t7 -28.5v-78h56q31 0 31 -28z" />
    <glyph glyph-name="fivesuperior" unicode="&#x2075;" 
d="M365 422q0 -33 -12.5 -61t-34 -48.5t-51.5 -31.5t-65 -11q-28 0 -53 6.5t-44 18.5t-30 28.5t-11 37.5q0 27 16.5 40.5t34.5 13.5q22 0 35.5 -14t13.5 -34q0 -8 -4 -17.5t-9 -14.5q17 -10 48 -10q44 0 72.5 26.5t28.5 68.5q0 45 -27 69t-66 24q-14 0 -31.5 -3.5
t-32.5 -11.5q0 -20 -7.5 -32.5t-24.5 -12.5q-16 0 -23 9.5t-7 22.5l14 184q1 12 9 20t21 8h199q12 0 21 -8t9 -21t-9 -21t-21 -8h-173l-6 -84q14 8 34 11t35 3q33 0 61 -10.5t48 -30t31 -46.5t11 -60z" />
    <glyph glyph-name="sixsuperior" unicode="&#x2076;" 
d="M215 326q43 0 68 25.5t25 65.5q0 39 -25.5 63.5t-65.5 24.5t-67 -24t-27 -65q0 -39 25 -64.5t67 -25.5zM372 417q0 -32 -11.5 -59t-32.5 -46.5t-50 -30.5t-63 -11q-36 0 -66 12t-51 34t-32.5 52.5t-11.5 67.5q0 56 21.5 101.5t54.5 82.5q39 44 89.5 70t98.5 26
q17 0 26.5 -7.5t9.5 -19.5q0 -14 -8 -20.5t-19 -8.5q-23 -3 -49 -12t-51 -25t-47 -38.5t-38 -52.5q16 13 38.5 21t45.5 8q32 0 59 -10.5t46.5 -30t30 -46t10.5 -57.5z" />
    <glyph glyph-name="sevensuperior" unicode="&#x2077;" 
d="M372 666q0 -10 -13 -31t-32 -49l-40 -61.5t-37 -69.5q-10 -22 -17 -41t-12.5 -38t-9 -38t-6.5 -41q-2 -10 -10.5 -17.5t-22.5 -7.5q-13 0 -22 7.5t-9 21.5q0 24 9 57.5t25 72.5t37.5 79.5t46.5 77.5l33 50h-167v-61q0 -12 -10 -20.5t-22 -8.5t-21.5 8.5t-9.5 20.5v89
q0 13 9.5 21.5t21.5 8.5h249q14 0 22 -9t8 -21z" />
    <glyph glyph-name="eightsuperior" unicode="&#x2078;" 
d="M215 326q41 0 68.5 23t27.5 57q0 33 -27 57t-69 24t-69 -24t-27 -57q0 -34 27.5 -57t68.5 -23zM215 541q30 0 47.5 17t17.5 39q0 23 -18 38.5t-47 15.5t-47 -15.5t-18 -38.5q0 -22 17.5 -39t47.5 -17zM215 706q27 0 50 -8.5t40.5 -23t27.5 -34.5t10 -43t-11 -43.5
t-34 -34.5q36 -16 56.5 -47.5t20.5 -67.5q0 -27 -11 -51.5t-31.5 -43t-50.5 -29t-67 -10.5q-38 0 -67.5 10.5t-50 29t-31.5 43t-11 51.5q0 36 20.5 67.5t56.5 47.5q-23 14 -34 34.5t-11 43.5t10 43t27.5 34.5t40.5 23t50 8.5z" />
    <glyph glyph-name="ninesuperior" unicode="&#x2079;" 
d="M213 650q-43 0 -68 -25.5t-25 -65.5q0 -39 25.5 -63.5t65.5 -24.5t67 24t27 65q0 39 -25 64.5t-67 25.5zM56 559q0 32 11.5 59t32.5 46.5t50 30.5t63 11q36 0 66 -12t51 -34t32.5 -52.5t11.5 -67.5q0 -56 -21.5 -101.5t-54.5 -82.5q-39 -44 -89.5 -70t-98.5 -26
q-17 0 -26.5 7.5t-9.5 19.5q0 14 8 20.5t19 8.5q23 3 49 12t51 25t47 38.5t38 52.5q-16 -13 -38.5 -21t-45.5 -8q-32 0 -59 10.5t-46.5 30t-30 45.5t-10.5 58z" />
    <glyph glyph-name="zeroinferior" unicode="&#x2080;" 
d="M306 209q0 34 -7 63.5t-19 51t-28.5 34t-36.5 12.5t-37 -12.5t-29 -34t-18.5 -51t-6.5 -63.5q0 -35 6.5 -64.5t18.5 -51t29 -34t37 -12.5t36.5 12.5t28.5 34t19 51t7 64.5zM62 209q0 47 11 87t31.5 69t48.5 45.5t62 16.5t62 -16.5t48 -45.5t31 -69t11 -87t-11 -87
t-31 -69t-48 -45.5t-62 -16.5t-62 16.5t-48.5 45.5t-31.5 69t-11 87z" />
    <glyph glyph-name="oneinferior" unicode="&#x2081;" 
d="M251 58h76q14 0 22 -8.5t8 -20.5q0 -13 -8 -21t-22 -8h-220q-14 0 -22 8t-8 21q0 12 8 20.5t22 8.5h82v258l-61 -80q-9 -12 -24 -12q-13 0 -22.5 8t-9.5 21q0 9 7 19l110 141q12 14 29 14q13 0 23 -8.5t10 -24.5v-336z" />
    <glyph glyph-name="twoinferior" unicode="&#x2082;" 
d="M298 97q0 13 9.5 22t22.5 9t21.5 -9t8.5 -22v-69q0 -13 -8.5 -20.5t-21.5 -7.5h-226q-16 0 -23 7t-7 25q0 35 24 67t59 61q27 22 51 38.5t42.5 32.5t29.5 33t11 40q0 27 -21 48.5t-55 21.5q-23 0 -42.5 -8.5t-30.5 -25.5q12 -6 19.5 -18.5t7.5 -26.5q0 -18 -14 -31.5
t-35 -13.5t-36 16t-15 43q0 24 11.5 45t31.5 37.5t46.5 26t57.5 9.5q30 0 55 -9t44 -25t29.5 -39t10.5 -50q0 -31 -13 -55t-33 -43.5t-44.5 -36l-48 -33.5t-43.5 -35.5t-30 -42.5h155v39z" />
    <glyph glyph-name="threeinferior" unicode="&#x2083;" 
d="M251 275q48 -11 80.5 -45t32.5 -88q0 -33 -12.5 -60.5t-34 -48t-51.5 -31.5t-65 -11q-27 0 -52 6.5t-44 18t-30 28t-11 37.5q0 28 16.5 41.5t34.5 13.5q22 0 35.5 -14t13.5 -33q0 -9 -4.5 -18.5t-9.5 -14.5q19 -10 48 -10q44 0 72.5 26t28.5 68q0 21 -8 37t-20.5 27
t-29 17t-33.5 8l-25 -24q-10 -9 -23 -9t-20.5 8.5t-7.5 19.5q0 13 9 22l118 113h-148q-14 0 -22 8t-8 21t8 21t22 8h216q11 0 20 -7t9 -20q0 -6 -2.5 -13.5t-8.5 -12.5z" />
    <glyph glyph-name="fourinferior" unicode="&#x2084;" 
d="M394 149q0 -29 -31 -29h-56v-93q0 -13 -9.5 -21t-21.5 -8q-13 0 -22 8t-9 21v93h-180q-14 0 -21.5 9.5t-7.5 20.5q0 7 4.5 14.5t11.5 15.5q42 48 78 99t60 114l8 21q8 18 26 18q15 0 22 -9.5t7 -23.5q-5 -26 -18 -55t-30.5 -58.5t-38.5 -57.5t-42 -51h121v78q0 16 7 28.5
t24 12.5t24 -12.5t7 -28.5v-78h56q31 0 31 -28z" />
    <glyph glyph-name="fiveinferior" unicode="&#x2085;" 
d="M365 143q0 -33 -12.5 -61t-34 -48.5t-51.5 -31.5t-65 -11q-28 0 -53 6.5t-44 18.5t-30 28.5t-11 37.5q0 27 16.5 40.5t34.5 13.5q22 0 35.5 -14t13.5 -34q0 -8 -4 -17.5t-9 -14.5q17 -10 48 -10q44 0 72.5 26.5t28.5 68.5q0 45 -27 69t-66 24q-14 0 -31.5 -3.5
t-32.5 -11.5q0 -20 -7.5 -32.5t-24.5 -12.5q-16 0 -23 9.5t-7 22.5l14 184q1 12 9 20t21 8h199q12 0 21 -8t9 -21t-9 -21t-21 -8h-173l-6 -84q14 8 34 11t35 3q33 0 61 -10.5t48 -30t31 -46.5t11 -60z" />
    <glyph glyph-name="sixinferior" unicode="&#x2086;" 
d="M215 47q43 0 68 25.5t25 65.5q0 39 -25.5 63.5t-65.5 24.5t-67 -24t-27 -65q0 -39 25 -64.5t67 -25.5zM372 138q0 -32 -11.5 -59t-32.5 -46.5t-50 -30.5t-63 -11q-36 0 -66 12t-51 34t-32.5 52.5t-11.5 67.5q0 56 21.5 101.5t54.5 82.5q39 44 89.5 70t98.5 26
q17 0 26.5 -7.5t9.5 -19.5q0 -14 -8 -20.5t-19 -8.5q-23 -3 -49 -12t-51 -25t-47 -38.5t-38 -52.5q16 13 38.5 21t45.5 8q32 0 59 -10.5t46.5 -30t30 -46t10.5 -57.5z" />
    <glyph glyph-name="seveninferior" unicode="&#x2087;" 
d="M372 384q0 -10 -13 -31t-32 -49l-40 -61.5t-37 -69.5q-10 -22 -17 -41t-12.5 -38t-9 -38t-6.5 -41q-2 -10 -10.5 -17.5t-22.5 -7.5q-13 0 -22 7.5t-9 21.5q0 24 9 57.5t25 72.5t37.5 79.5t46.5 77.5l33 50h-167v-61q0 -12 -10 -20.5t-22 -8.5t-21.5 8.5t-9.5 20.5v89
q0 13 9.5 21.5t21.5 8.5h249q14 0 22 -9t8 -21z" />
    <glyph glyph-name="eightinferior" unicode="&#x2088;" 
d="M215 47q41 0 68.5 23t27.5 57q0 33 -27 57t-69 24t-69 -24t-27 -57q0 -34 27.5 -57t68.5 -23zM215 262q30 0 47.5 17t17.5 39q0 23 -18 38.5t-47 15.5t-47 -15.5t-18 -38.5q0 -22 17.5 -39t47.5 -17zM215 427q27 0 50 -8.5t40.5 -23t27.5 -34.5t10 -43t-11 -43.5
t-34 -34.5q36 -16 56.5 -47.5t20.5 -67.5q0 -27 -11 -51.5t-31.5 -43t-50.5 -29t-67 -10.5q-38 0 -67.5 10.5t-50 29t-31.5 43t-11 51.5q0 36 20.5 67.5t56.5 47.5q-23 14 -34 34.5t-11 43.5t10 43t27.5 34.5t40.5 23t50 8.5z" />
    <glyph glyph-name="nineinferior" unicode="&#x2089;" 
d="M213 371q-43 0 -68 -25.5t-25 -65.5q0 -39 25.5 -63.5t65.5 -24.5t67 24t27 65q0 39 -25 64.5t-67 25.5zM56 280q0 32 11.5 59t32.5 46.5t50 30.5t63 11q36 0 66 -12t51 -34t32.5 -52.5t11.5 -67.5q0 -56 -21.5 -101.5t-54.5 -82.5q-39 -44 -89.5 -70t-98.5 -26
q-17 0 -26.5 7.5t-9.5 19.5q0 14 8 20.5t19 8.5q23 3 49 12t51 25t47 38.5t38 52.5q-16 -13 -38.5 -21t-45.5 -8q-32 0 -59 10.5t-46.5 30t-30 45.5t-10.5 58z" />
    <glyph glyph-name="zero.sups" 
d="M306 488q0 34 -7 63.5t-19 51t-28.5 34t-36.5 12.5t-37 -12.5t-29 -34t-18.5 -51t-6.5 -63.5q0 -35 6.5 -64.5t18.5 -51t29 -34t37 -12.5t36.5 12.5t28.5 34t19 51t7 64.5zM62 488q0 47 11 87t31.5 69t48.5 45.5t62 16.5t62 -16.5t48 -45.5t31 -69t11 -87t-11 -87
t-31 -69t-48 -45.5t-62 -16.5t-62 16.5t-48.5 45.5t-31.5 69t-11 87z" />
    <glyph glyph-name="one.sups" 
d="M251 327h76q14 0 22 -8.5t8 -20.5q0 -13 -8 -21t-22 -8h-220q-14 0 -22 8t-8 21q0 12 8 20.5t22 8.5h82v258l-61 -80q-9 -12 -24 -12q-13 0 -22.5 8t-9.5 21q0 9 7 19l110 141q12 14 29 14q13 0 23 -8.5t10 -24.5v-336z" />
    <glyph glyph-name="two.sups" 
d="M298 376q0 13 9.5 22t22.5 9t21.5 -9t8.5 -22v-69q0 -13 -8.5 -20.5t-21.5 -7.5h-226q-16 0 -23 7t-7 25q0 35 24 67t59 61q27 22 51 38.5t42.5 32.5t29.5 33t11 40q0 27 -21 48.5t-55 21.5q-23 0 -42.5 -8.5t-30.5 -25.5q12 -6 19.5 -18.5t7.5 -26.5q0 -18 -14 -31.5
t-35 -13.5t-36 16t-15 43q0 24 11.5 45t31.5 37.5t46.5 26t57.5 9.5q30 0 55 -9t44 -25t29.5 -39t10.5 -50q0 -31 -13 -55t-33 -43.5t-44.5 -36l-48 -33.5t-43.5 -35.5t-30 -42.5h155v39z" />
    <glyph glyph-name="three.sups" 
d="M251 554q48 -11 80.5 -45t32.5 -88q0 -33 -12.5 -60.5t-34 -48t-51.5 -31.5t-65 -11q-27 0 -52 6.5t-44 18t-30 28t-11 37.5q0 28 16.5 41.5t34.5 13.5q22 0 35.5 -14t13.5 -33q0 -9 -4.5 -18.5t-9.5 -14.5q19 -10 48 -10q44 0 72.5 26t28.5 68q0 21 -8 37t-20.5 27
t-29 17t-33.5 8l-25 -24q-10 -9 -23 -9t-20.5 8.5t-7.5 19.5q0 13 9 22l118 113h-148q-14 0 -22 8t-8 21t8 21t22 8h216q11 0 20 -7t9 -20q0 -6 -2.5 -13.5t-8.5 -12.5z" />
    <glyph glyph-name="four.sups" 
d="M394 428q0 -29 -31 -29h-56v-93q0 -13 -9.5 -21t-21.5 -8q-13 0 -22 8t-9 21v93h-180q-14 0 -21.5 9.5t-7.5 20.5q0 7 4.5 14.5t11.5 15.5q42 48 78 99t60 114l8 21q8 18 26 18q15 0 22 -9.5t7 -23.5q-5 -26 -18 -55t-30.5 -58.5t-38.5 -57.5t-42 -51h121v78q0 16 7 28.5
t24 12.5t24 -12.5t7 -28.5v-78h56q31 0 31 -28z" />
    <glyph glyph-name="five.sups" 
d="M365 422q0 -33 -12.5 -61t-34 -48.5t-51.5 -31.5t-65 -11q-28 0 -53 6.5t-44 18.5t-30 28.5t-11 37.5q0 27 16.5 40.5t34.5 13.5q22 0 35.5 -14t13.5 -34q0 -8 -4 -17.5t-9 -14.5q17 -10 48 -10q44 0 72.5 26.5t28.5 68.5q0 45 -27 69t-66 24q-14 0 -31.5 -3.5
t-32.5 -11.5q0 -20 -7.5 -32.5t-24.5 -12.5q-16 0 -23 9.5t-7 22.5l14 184q1 12 9 20t21 8h199q12 0 21 -8t9 -21t-9 -21t-21 -8h-173l-6 -84q14 8 34 11t35 3q33 0 61 -10.5t48 -30t31 -46.5t11 -60z" />
    <glyph glyph-name="six.sups" 
d="M215 326q43 0 68 25.5t25 65.5q0 39 -25.5 63.5t-65.5 24.5t-67 -24t-27 -65q0 -39 25 -64.5t67 -25.5zM372 417q0 -32 -11.5 -59t-32.5 -46.5t-50 -30.5t-63 -11q-36 0 -66 12t-51 34t-32.5 52.5t-11.5 67.5q0 56 21.5 101.5t54.5 82.5q39 44 89.5 70t98.5 26
q17 0 26.5 -7.5t9.5 -19.5q0 -14 -8 -20.5t-19 -8.5q-23 -3 -49 -12t-51 -25t-47 -38.5t-38 -52.5q16 13 38.5 21t45.5 8q32 0 59 -10.5t46.5 -30t30 -46t10.5 -57.5z" />
    <glyph glyph-name="seven.sups" 
d="M372 666q0 -10 -13 -31t-32 -49l-40 -61.5t-37 -69.5q-10 -22 -17 -41t-12.5 -38t-9 -38t-6.5 -41q-2 -10 -10.5 -17.5t-22.5 -7.5q-13 0 -22 7.5t-9 21.5q0 24 9 57.5t25 72.5t37.5 79.5t46.5 77.5l33 50h-167v-61q0 -12 -10 -20.5t-22 -8.5t-21.5 8.5t-9.5 20.5v89
q0 13 9.5 21.5t21.5 8.5h249q14 0 22 -9t8 -21z" />
    <glyph glyph-name="eight.sups" 
d="M215 326q41 0 68.5 23t27.5 57q0 33 -27 57t-69 24t-69 -24t-27 -57q0 -34 27.5 -57t68.5 -23zM215 541q30 0 47.5 17t17.5 39q0 23 -18 38.5t-47 15.5t-47 -15.5t-18 -38.5q0 -22 17.5 -39t47.5 -17zM215 706q27 0 50 -8.5t40.5 -23t27.5 -34.5t10 -43t-11 -43.5
t-34 -34.5q36 -16 56.5 -47.5t20.5 -67.5q0 -27 -11 -51.5t-31.5 -43t-50.5 -29t-67 -10.5q-38 0 -67.5 10.5t-50 29t-31.5 43t-11 51.5q0 36 20.5 67.5t56.5 47.5q-23 14 -34 34.5t-11 43.5t10 43t27.5 34.5t40.5 23t50 8.5z" />
    <glyph glyph-name="nine.sups" 
d="M213 650q-43 0 -68 -25.5t-25 -65.5q0 -39 25.5 -63.5t65.5 -24.5t67 24t27 65q0 39 -25 64.5t-67 25.5zM56 559q0 32 11.5 59t32.5 46.5t50 30.5t63 11q36 0 66 -12t51 -34t32.5 -52.5t11.5 -67.5q0 -56 -21.5 -101.5t-54.5 -82.5q-39 -44 -89.5 -70t-98.5 -26
q-17 0 -26.5 7.5t-9.5 19.5q0 14 8 20.5t19 8.5q23 3 49 12t51 25t47 38.5t38 52.5q-16 -13 -38.5 -21t-45.5 -8q-32 0 -59 10.5t-46.5 30t-30 45.5t-10.5 58z" />
    <glyph glyph-name="zero.sinf" 
d="M306 38q0 34 -7 63.5t-19 51t-28.5 34t-36.5 12.5t-37 -12.5t-29 -34t-18.5 -51t-6.5 -63.5q0 -35 6.5 -64.5t18.5 -51t29 -34t37 -12.5t36.5 12.5t28.5 34t19 51t7 64.5zM62 38q0 47 11 87t31.5 69t48.5 45.5t62 16.5t62 -16.5t48 -45.5t31 -69t11 -87t-11 -87t-31 -69
t-48 -45.5t-62 -16.5t-62 16.5t-48.5 45.5t-31.5 69t-11 87z" />
    <glyph glyph-name="one.sinf" 
d="M251 -113h76q14 0 22 -8.5t8 -20.5q0 -13 -8 -21t-22 -8h-220q-14 0 -22 8t-8 21q0 12 8 20.5t22 8.5h82v258l-61 -80q-9 -12 -24 -12q-13 0 -22.5 8t-9.5 21q0 9 7 19l110 141q12 14 29 14q13 0 23 -8.5t10 -24.5v-336z" />
    <glyph glyph-name="two.sinf" 
d="M298 -74q0 13 9.5 22t22.5 9t21.5 -9t8.5 -22v-69q0 -13 -8.5 -20.5t-21.5 -7.5h-226q-16 0 -23 7t-7 25q0 35 24 67t59 61q27 22 51 38.5t42.5 32.5t29.5 33t11 40q0 27 -21 48.5t-55 21.5q-23 0 -42.5 -8.5t-30.5 -25.5q12 -6 19.5 -18.5t7.5 -26.5q0 -18 -14 -31.5
t-35 -13.5t-36 16t-15 43q0 24 11.5 45t31.5 37.5t46.5 26t57.5 9.5q30 0 55 -9t44 -25t29.5 -39t10.5 -50q0 -31 -13 -55t-33 -43.5t-44.5 -36l-48 -33.5t-43.5 -35.5t-30 -42.5h155v39z" />
    <glyph glyph-name="three.sinf" 
d="M251 104q48 -11 80.5 -45t32.5 -88q0 -33 -12.5 -60.5t-34 -48t-51.5 -31.5t-65 -11q-27 0 -52 6.5t-44 18t-30 28t-11 37.5q0 28 16.5 41.5t34.5 13.5q22 0 35.5 -14t13.5 -33q0 -9 -4.5 -18.5t-9.5 -14.5q19 -10 48 -10q44 0 72.5 26t28.5 68q0 21 -8 37t-20.5 27
t-29 17t-33.5 8l-25 -24q-10 -9 -23 -9t-20.5 8.5t-7.5 19.5q0 13 9 22l118 113h-148q-14 0 -22 8t-8 21t8 21t22 8h216q11 0 20 -7t9 -20q0 -6 -2.5 -13.5t-8.5 -12.5z" />
    <glyph glyph-name="four.sinf" 
d="M394 -22q0 -29 -31 -29h-56v-93q0 -13 -9.5 -21t-21.5 -8q-13 0 -22 8t-9 21v93h-180q-14 0 -21.5 9.5t-7.5 20.5q0 7 4.5 14.5t11.5 15.5q42 48 78 99t60 114l8 21q8 18 26 18q15 0 22 -9.5t7 -23.5q-5 -26 -18 -55t-30.5 -58.5t-38.5 -57.5t-42 -51h121v78q0 16 7 28.5
t24 12.5t24 -12.5t7 -28.5v-78h56q31 0 31 -28z" />
    <glyph glyph-name="five.sinf" 
d="M365 -28q0 -33 -12.5 -61t-34 -48.5t-51.5 -31.5t-65 -11q-28 0 -53 6.5t-44 18.5t-30 28.5t-11 37.5q0 27 16.5 40.5t34.5 13.5q22 0 35.5 -14t13.5 -34q0 -8 -4 -17.5t-9 -14.5q17 -10 48 -10q44 0 72.5 26.5t28.5 68.5q0 45 -27 69t-66 24q-14 0 -31.5 -3.5
t-32.5 -11.5q0 -20 -7.5 -32.5t-24.5 -12.5q-16 0 -23 9.5t-7 22.5l14 184q1 12 9 20t21 8h199q12 0 21 -8t9 -21t-9 -21t-21 -8h-173l-6 -84q14 8 34 11t35 3q33 0 61 -10.5t48 -30t31 -46.5t11 -60z" />
    <glyph glyph-name="six.sinf" 
d="M215 -124q43 0 68 25.5t25 65.5q0 39 -25.5 63.5t-65.5 24.5t-67 -24t-27 -65q0 -39 25 -64.5t67 -25.5zM372 -33q0 -32 -11.5 -59t-32.5 -46.5t-50 -30.5t-63 -11q-36 0 -66 12t-51 34t-32.5 52.5t-11.5 67.5q0 56 21.5 101.5t54.5 82.5q39 44 89.5 70t98.5 26
q17 0 26.5 -7.5t9.5 -19.5q0 -14 -8 -20.5t-19 -8.5q-23 -3 -49 -12t-51 -25t-47 -38.5t-38 -52.5q16 13 38.5 21t45.5 8q32 0 59 -10.5t46.5 -30t30 -46t10.5 -57.5z" />
    <glyph glyph-name="seven.sinf" 
d="M372 216q0 -10 -13 -31t-32 -49l-40 -61.5t-37 -69.5q-10 -22 -17 -41t-12.5 -38t-9 -38t-6.5 -41q-2 -10 -10.5 -17.5t-22.5 -7.5q-13 0 -22 7.5t-9 21.5q0 24 9 57.5t25 72.5t37.5 79.5t46.5 77.5l33 50h-167v-61q0 -12 -10 -20.5t-22 -8.5t-21.5 8.5t-9.5 20.5v89
q0 13 9.5 21.5t21.5 8.5h249q14 0 22 -9t8 -21z" />
    <glyph glyph-name="eight.sinf" 
d="M215 -124q41 0 68.5 23t27.5 57q0 33 -27 57t-69 24t-69 -24t-27 -57q0 -34 27.5 -57t68.5 -23zM215 91q30 0 47.5 17t17.5 39q0 23 -18 38.5t-47 15.5t-47 -15.5t-18 -38.5q0 -22 17.5 -39t47.5 -17zM215 256q27 0 50 -8.5t40.5 -23t27.5 -34.5t10 -43t-11 -43.5
t-34 -34.5q36 -16 56.5 -47.5t20.5 -67.5q0 -27 -11 -51.5t-31.5 -43t-50.5 -29t-67 -10.5q-38 0 -67.5 10.5t-50 29t-31.5 43t-11 51.5q0 36 20.5 67.5t56.5 47.5q-23 14 -34 34.5t-11 43.5t10 43t27.5 34.5t40.5 23t50 8.5z" />
    <glyph glyph-name="nine.sinf" 
d="M213 200q-43 0 -68 -25.5t-25 -65.5q0 -39 25.5 -63.5t65.5 -24.5t67 24t27 65q0 39 -25 64.5t-67 25.5zM56 109q0 32 11.5 59t32.5 46.5t50 30.5t63 11q36 0 66 -12t51 -34t32.5 -52.5t11.5 -67.5q0 -56 -21.5 -101.5t-54.5 -82.5q-39 -44 -89.5 -70t-98.5 -26
q-17 0 -26.5 7.5t-9.5 19.5q0 14 8 20.5t19 8.5q23 3 49 12t51 25t47 38.5t38 52.5q-16 -13 -38.5 -21t-45.5 -8q-32 0 -59 10.5t-46.5 30t-30 45.5t-10.5 58z" />
    <glyph glyph-name="Dcroat" unicode="&#x110;" horiz-adv-x="745" 
d="M244 326v-251h93q61 0 105 15t74 39.5t48 55t27 61.5t12 60t3 50t-3 49t-12 57.5t-27 58.5t-48 52t-74 37t-105 14h-93v-222h176q17 0 28 -11t11 -27t-11 -27t-28 -11h-176zM341 700q81 0 145.5 -23t109.5 -66.5t69.5 -108t24.5 -146.5t-24.5 -148t-69.5 -112t-109.5 -71
t-145.5 -25h-265q-17 0 -28 10.5t-11 27.5q0 16 11 26.5t28 10.5h85v251h-85q-17 0 -28 11t-11 27t11 27t28 11h85v222h-85q-17 0 -28 11t-11 27t11 27t28 11h265z" />
    <glyph glyph-name="at.alt" horiz-adv-x="1035" 
d="M637 423q0 16 -4 33t-16 31.5t-33.5 23.5t-56.5 9q-38 0 -67.5 -9t-47.5 -19l-24 -11.5t-15 -3.5q-19 0 -28.5 11t-9.5 25q0 24 31 42q26 15 72 26.5t94 11.5q86 0 135.5 -43.5t49.5 -124.5v-178q0 -46 19.5 -62.5t49.5 -16.5q60 0 89 56t29 152q0 78 -25.5 143.5
t-73 113t-115 73.5t-151.5 26q-81 0 -154 -26t-129 -76.5t-89 -125t-33 -170.5q0 -82 26 -151.5t76 -120t124.5 -79t172.5 -28.5q66 0 120.5 13t97.5 30l25 10t18 4q15 0 24 -10.5t9 -25.5q0 -10 -5.5 -19.5t-19.5 -17.5q-18 -11 -47.5 -21.5t-66.5 -19t-78.5 -14
t-83.5 -5.5q-103 0 -190.5 32.5t-151 92t-99.5 143.5t-36 187t36 189.5t100 149.5t153 98t196 35q93 0 175 -28t144 -82t98 -133t36 -181q0 -58 -12.5 -109.5t-38.5 -90t-65 -61t-92 -22.5q-56 0 -84 19.5t-44 49.5q-31 -35 -77.5 -52t-91.5 -17q-36 0 -67 9t-54.5 27
t-37 45t-13.5 63q0 47 21 77t54.5 47t74.5 23.5t81 6.5h96v26zM637 328q-14 1 -29 1h-29q-29 0 -61.5 -1.5t-60.5 -10t-46.5 -25.5t-18.5 -48q0 -38 28 -57.5t68 -19.5q23 0 46 5.5t43.5 15t36 23t23.5 29.5v88z" />
    <glyph glyph-name="ampersand.alt" horiz-adv-x="771" 
d="M231 570q0 -29 17 -58.5t46 -62.5q43 37 59 65t16 57q0 28 -19.5 48t-50.5 20q-27 0 -47.5 -18t-20.5 -51zM466 248l25.5 45t24.5 39q42 63 79 89t75 26q23 0 32 -12t9 -23q0 -16 -12.5 -26t-37.5 -19q-12 -5 -23.5 -14t-23.5 -21q-17 -17 -32 -38l-28 -40.5t-22.5 -36
t-13.5 -24.5q25 -31 47 -52.5t41.5 -36t38.5 -24t40 -16.5q19 -6 28.5 -17t9.5 -24q0 -12 -10 -22t-29 -10q-29 0 -56 10.5t-53 29t-51 43.5t-50 53q-20 -27 -42.5 -52t-50.5 -44t-62.5 -30t-77.5 -11q-44 0 -79 13.5t-59.5 37t-38 56t-13.5 71.5q0 37 11.5 66t32 54.5
t48.5 48.5t61 47l26 21l-18 21q-25 29 -44 65.5t-19 77.5q0 30 11 55.5t30.5 44.5t47 30t61.5 11q32 0 59.5 -11t47.5 -30t31 -45t11 -57q0 -49 -26.5 -88.5t-82.5 -85.5zM422 184l-142 163l-27 -21q-21 -16 -41.5 -33.5t-37 -37.5t-27 -42t-10.5 -47q0 -20 7.5 -38.5
t21.5 -32.5t35 -22.5t47 -8.5q30 0 55 9.5t45.5 25.5t38.5 38t35 47z" />
    <glyph glyph-name="uni2215" unicode="&#x2215;" horiz-adv-x="220" 
d="M-172 4q-12 -14 -28 -14q-13 0 -21 8t-8 19q0 5 1.5 10.5t6.5 10.5l616 660q10 12 25 12q12 0 21 -8.5t9 -19.5t-8 -21z" />
    <glyph glyph-name="hungarumlaut.cap" horiz-adv-x="450" 
d="M255 548q-7 -4 -12.5 -5t-10.5 -1q-16 0 -26.5 11t-10.5 25q0 9 4.5 18t14.5 14l224 125q8 4 19 4q15 0 26.5 -10t11.5 -27q0 -9 -4.5 -18.5t-15.5 -15.5zM14 548q-7 -4 -12.5 -5t-10.5 -1q-16 0 -26.5 11t-10.5 25q0 9 4.5 18t14.5 14l224 125q8 4 19 4q15 0 26.5 -10
t11.5 -27q0 -9 -4.5 -18.5t-15.5 -15.5z" />
    <glyph glyph-name="cedilla.cap" horiz-adv-x="423" 
d="M234 13l-16 -38l-16 -39q29 0 55.5 -5t46.5 -17.5t32 -33t12 -51.5q0 -32 -13 -54.5t-34 -37t-49 -21.5t-58 -7q-42 0 -69 8.5t-35 12.5q-14 7 -18 17t-4 17q0 16 10 26.5t26 10.5q6 0 13.5 -3l17 -7t22 -7t29.5 -3q44 0 61.5 13.5t17.5 32.5q0 24 -18.5 33t-47.5 9
q-13 0 -23.5 -1t-19.5 -1q-18 0 -28 10t-10 24q0 4 1 11t6 16l39 85h70z" />
    <glyph glyph-name="ogonek.cap" horiz-adv-x="450" 
d="M92 -131q0 38 20.5 67t48.5 48.5t56.5 29.5t45.5 10q10 0 15.5 -4.5t5.5 -10.5q0 -5 -3 -6.5t-6 -3.5q-17 -7 -34.5 -19t-32 -27.5t-23.5 -34t-9 -37.5q0 -20 13.5 -39t48.5 -19q15 0 27.5 3.5t22.5 7t18 7t16 3.5q11 0 23 -7.5t12 -27.5q0 -7 -5.5 -17t-20 -19.5
t-38.5 -16t-61 -6.5q-69 0 -104.5 32.5t-35.5 86.5z" />
    <glyph glyph-name="caron.cap" horiz-adv-x="450" 
d="M225 539q-12 0 -23 10l-150 124q-10 8 -17.5 16.5t-7.5 21.5q0 16 11.5 27.5t26.5 11.5q6 0 13.5 -2.5t14.5 -8.5l132 -110l132 110q7 6 14.5 8.5t13.5 2.5q15 0 26.5 -11.5t11.5 -27.5q0 -13 -7.5 -21.5t-17.5 -16.5l-150 -124q-11 -10 -23 -10z" />
    <glyph glyph-name="macron.cap" horiz-adv-x="450" 
d="M100 576q-16 0 -27 10.5t-11 26.5t11 26.5t27 10.5h249q16 0 27 -10.5t11 -26.5t-11 -26.5t-27 -10.5h-249z" />
    <glyph glyph-name="dieresis.cap" horiz-adv-x="450" 
d="M251 633q0 16 6 30t16.5 24.5t25 16.5t30.5 6q32 0 54.5 -22.5t22.5 -54.5q0 -16 -6 -30.5t-16.5 -25t-24.5 -16.5t-30 -6q-32 0 -55 23t-23 55zM43 633q0 16 6 30t16.5 24.5t25 16.5t30.5 6q32 0 54.5 -22.5t22.5 -54.5q0 -16 -6 -30.5t-16.5 -25t-24.5 -16.5t-30 -6
q-32 0 -55 23t-23 55z" />
    <glyph glyph-name="dotaccent.cap" horiz-adv-x="450" 
d="M143 628q0 33 24 57.5t58 24.5q16 0 31 -6.5t26.5 -18t18 -26.5t6.5 -31q0 -34 -24.5 -58t-57.5 -24q-34 0 -58 24t-24 58z" />
    <glyph glyph-name="circumflex.cap" horiz-adv-x="450" 
d="M225 750q12 0 23 -10l150 -124q10 -8 17.5 -16.5t7.5 -21.5q0 -16 -11.5 -27.5t-26.5 -11.5q-6 0 -13.5 2.5t-14.5 8.5l-132 110l-132 -110q-7 -6 -14.5 -8.5t-13.5 -2.5q-15 0 -26.5 11.5t-11.5 27.5q0 13 7.5 21.5t17.5 16.5l150 124q11 10 23 10z" />
    <glyph glyph-name="acute.cap" horiz-adv-x="450" 
d="M134 548q-7 -4 -12.5 -5t-10.5 -1q-16 0 -26.5 11t-10.5 25q0 9 4.5 18t14.5 14l224 125q8 4 19 4q15 0 26.5 -10t11.5 -27q0 -9 -4.5 -18.5t-15.5 -15.5z" />
    <glyph glyph-name="grave.cap" horiz-adv-x="450" 
d="M94 668q-11 6 -15.5 15.5t-4.5 18.5q0 17 11.5 27t26.5 10q11 0 19 -4l224 -125q10 -5 14.5 -14t4.5 -18q0 -14 -10.5 -25t-26.5 -11q-5 0 -10.5 1t-12.5 5z" />
    <glyph glyph-name="breve.cap" horiz-adv-x="450" 
d="M225 541q-39 0 -66.5 13t-44.5 33.5t-25 44.5t-9 47q-1 26 10.5 35.5t27.5 9.5q32 0 38 -45q1 -9 4 -21t10.5 -22.5t20.5 -17.5t34 -7q20 0 33 7t20.5 17.5t10.5 22.5t4 21q6 45 38 45q17 0 28 -9.5t10 -35.5q0 -23 -8 -47t-25 -44.5t-44.5 -33.5t-66.5 -13z" />
    <glyph glyph-name="commaaccent.cap" horiz-adv-x="450" 
d="M153 -168q0 35 24 59.5t62 24.5q41 0 68.5 -30t27.5 -83q0 -36 -14.5 -72t-38.5 -67.5t-55 -56.5t-63 -39q-15 -6 -24 -6q-14 0 -24.5 8t-10.5 24q0 20 21 30q42 20 76 52t43 78q-1 -1 -3 -1h-6q-38 0 -60.5 22t-22.5 57z" />
    <glyph glyph-name="commaaccent" horiz-adv-x="450" 
d="M153 -168q0 35 24 59.5t62 24.5q41 0 68.5 -30t27.5 -83q0 -36 -14.5 -72t-38.5 -67.5t-55 -56.5t-63 -39q-15 -6 -24 -6q-14 0 -24.5 8t-10.5 24q0 20 21 30q42 20 76 52t43 78q-1 -1 -3 -1h-6q-38 0 -60.5 22t-22.5 57z" />
    <glyph glyph-name="caron.alt" horiz-adv-x="450" 
d="M225 539q-12 0 -23 10l-150 124q-10 8 -17.5 16.5t-7.5 21.5q0 16 11.5 27.5t26.5 11.5q6 0 13.5 -2.5t14.5 -8.5l132 -110l132 110q7 6 14.5 8.5t13.5 2.5q15 0 26.5 -11.5t11.5 -27.5q0 -13 -7.5 -21.5t-17.5 -16.5l-150 -124q-11 -10 -23 -10z" />
    <glyph glyph-name="uni02C9" unicode="&#x2c9;" horiz-adv-x="450" 
d="M100 576q-16 0 -27 10.5t-11 26.5t11 26.5t27 10.5h249q16 0 27 -10.5t11 -26.5t-11 -26.5t-27 -10.5h-249z" />
    <glyph glyph-name="apostrophe" unicode="&#x2bc;" horiz-adv-x="299" 
d="M59 626q0 35 24 59.5t62 24.5q41 0 68.5 -30t27.5 -83q0 -36 -14.5 -72t-38.5 -67.5t-55 -56.5t-63 -39q-15 -6 -24 -6q-14 0 -24.5 8t-10.5 24q0 20 21 30q42 20 76 52t43 78q-1 -1 -3 -1h-6q-38 0 -60.5 22t-22.5 57z" />
    <glyph glyph-name="afii61289" unicode="&#x2113;" horiz-adv-x="550" 
d="M233 359q41 35 65.5 66t37 57.5t16.5 49t4 39.5q0 31 -14.5 49.5t-43.5 18.5q-32 0 -48.5 -26t-16.5 -64v-190zM150 218q-5 -5 -14 -10.5t-19 -10l-18 -8t-12 -3.5q-14 0 -26 10t-12 29q0 9 5 18t16 16l80 46v226q0 90 41 134.5t105 44.5q59 0 98.5 -36.5t39.5 -106.5
q0 -46 -19.5 -91.5t-49.5 -85.5t-65.5 -72t-66.5 -51v-100q0 -34 8.5 -54t21.5 -31t27.5 -14.5t25.5 -3.5q30 0 45 13.5t24.5 29.5t18.5 29.5t28 13.5q15 0 27 -9.5t12 -26.5t-8 -33.5t-21 -32.5q-20 -24 -52 -41t-78 -17q-33 0 -62 10t-51.5 31t-35.5 53.5t-13 77.5v56z
" />
    <glyph glyph-name="estimated" unicode="&#x212e;" horiz-adv-x="896" 
d="M705 390v193q0 9 -4.5 22.5t-11.5 21.5q-21 23 -48.5 38.5t-59 25.5t-65 14t-66.5 4q-68 0 -131.5 -18.5t-104.5 -64.5q-7 -8 -12.5 -22t-5.5 -22v-192h509zM196 149q0 -32 28 -56t67.5 -40t83 -24.5t75.5 -8.5q40 0 80.5 9t78 25.5t70 39.5t58.5 52h64
q-64 -79 -154 -123.5t-197 -44.5q-88 0 -166.5 30.5t-137 83t-92.5 123.5t-34 152q0 79 34 149.5t92.5 122.5t137 82.5t166.5 30.5q91 0 170 -31.5t137.5 -86.5t91.5 -128.5t33 -157.5h-686v-199z" />
    <glyph glyph-name="revcommaaccent" horiz-adv-x="310" 
d="M221 450q0 -35 -24 -59.5t-62 -24.5q-41 0 -68.5 30t-27.5 83q0 36 14.5 72t38.5 67.5t55 56.5t63 39q15 6 24 6q14 0 24.5 -8t10.5 -24q0 -20 -21 -30q-42 -20 -76 -52t-43 -78h3q2 0 3 0.5t3 0.5q38 0 60.5 -22t22.5 -57z" />
    <glyph glyph-name="orn.1" horiz-adv-x="890" 
d="M292 355q0 -47 11 -87t31.5 -69t48.5 -45.5t62 -16.5t62 16.5t48 45.5t31.5 69t11.5 87t-11.5 87t-31.5 69t-48 45.5t-62 16.5t-62 -16.5t-48.5 -45.5t-31.5 -69t-11 -87zM537 355q0 -35 -7 -64.5t-19 -51t-29 -34t-37 -12.5t-37 12.5t-29 34t-18.5 51t-6.5 64.5
q0 34 6.5 63.5t18.5 51t29 34t37 12.5t37 -12.5t29 -34t19 -51t7 -63.5zM50 349q0 82 31 154t84.5 125.5t125.5 84.5t154 31t154 -31t125.5 -84.5t84.5 -125.5t31 -154t-31 -154t-84.5 -125.5t-125.5 -84.5t-154 -31t-154 31t-125.5 84.5t-84.5 125.5t-31 154z" />
    <glyph glyph-name="orn.2" horiz-adv-x="890" 
d="M478 540q0 16 -10 24.5t-23 8.5q-17 0 -29 -14l-110 -141q-7 -10 -7 -19q0 -13 9.5 -21t22.5 -8q15 0 24 12l61 80v-258h-82q-14 0 -22 -8.5t-8 -20.5q0 -13 8 -21t22 -8h220q14 0 22 8t8 21q0 12 -8 20.5t-22 8.5h-76v336zM50 349q0 82 31 154t84.5 125.5t125.5 84.5
t154 31t154 -31t125.5 -84.5t84.5 -125.5t31 -154t-31 -154t-84.5 -125.5t-125.5 -84.5t-154 -31t-154 31t-125.5 84.5t-84.5 125.5t-31 154z" />
    <glyph glyph-name="orn.3" horiz-adv-x="890" 
d="M529 204h-155q9 21 28.5 39t43 35l48 34.5t45 38t33.5 45t13 54.5q0 27 -10.5 50t-29 39t-44 25t-54.5 9q-31 0 -57.5 -9.5t-46.5 -25.5t-31.5 -38t-11.5 -46q0 -27 15 -42.5t37 -15.5q21 0 34 13.5t13 32.5q0 14 -7.5 26t-19.5 18q11 17 32 25.5t43 8.5q35 0 55 -20.5
t20 -49.5q0 -24 -16 -45.5t-40.5 -41.5t-52.5 -40t-52.5 -42.5t-40.5 -47.5t-16 -56q0 -17 7.5 -24t23.5 -7h225q13 0 22 7.5t9 20.5v69q0 13 -9 22t-22 9t-22 -9t-9 -22v-39zM50 349q0 82 31 154t84.5 125.5t125.5 84.5t154 31t154 -31t125.5 -84.5t84.5 -125.5t31 -154
t-31 -154t-84.5 -125.5t-125.5 -84.5t-154 -31t-154 31t-125.5 84.5t-84.5 125.5t-31 154z" />
    <glyph glyph-name="orn.4" horiz-adv-x="890" 
d="M575 510q6 5 8.5 12.5t2.5 13.5q0 13 -9 20t-20 7h-216q-14 0 -22 -8t-8 -21t8 -21t22 -8h148l-118 -113q-9 -9 -9 -22q0 -11 7.5 -19.5t20.5 -8.5t23 9l25 24q17 -2 33.5 -8t29.5 -17t21 -26.5t8 -36.5q0 -42 -29 -68.5t-73 -26.5q-29 0 -48 10q5 5 9.5 14.5t4.5 18.5
q0 19 -13.5 33t-35.5 14q-18 0 -34.5 -13.5t-16.5 -41.5q0 -21 11 -37.5t30 -28t44 -18t52 -6.5q35 0 65 11t51.5 31.5t34 48t12.5 60.5q0 54 -32.5 88t-80.5 45zM50 349q0 82 31 154t84.5 125.5t125.5 84.5t154 31t154 -31t125.5 -84.5t84.5 -125.5t31 -154t-31 -154
t-84.5 -125.5t-125.5 -84.5t-154 -31t-154 31t-125.5 84.5t-84.5 125.5t-31 154z" />
    <glyph glyph-name="orn.5" horiz-adv-x="890" 
d="M466 325h-121l27 34q18 21 36 47.5t33 53.5t24 51t9 40q0 12 -7.5 20.5t-21.5 8.5q-17 0 -23 -12.5t-11 -26.5q-23 -65 -60.5 -114.5t-78.5 -98.5l-10 -12q-6 -11 -6 -19q0 -10 7 -19.5t23 -9.5h180v-93q0 -12 9 -20.5t21 -8.5q13 0 22.5 8t9.5 21v93h44q14 0 28 4.5
t14 24.5q0 17 -14 22.5t-28 5.5h-44v78q0 13 -9.5 21t-22.5 8q-12 0 -21 -8.5t-9 -20.5v-78zM50 349q0 82 31 154t84.5 125.5t125.5 84.5t154 31t154 -31t125.5 -84.5t84.5 -125.5t31 -154t-31 -154t-84.5 -125.5t-125.5 -84.5t-154 -31t-154 31t-125.5 84.5t-84.5 125.5
t-31 154z" />
    <glyph glyph-name="orn.6" horiz-adv-x="890" 
d="M595 289q0 33 -11 60t-31 46.5t-48 30t-61 10.5q-15 0 -35.5 -4t-34.5 -12l7 86h174q12 0 20.5 8t8.5 21t-8.5 21t-20.5 8h-199q-14 0 -22 -8t-9 -20l-13 -177q-1 -13 7 -22.5t23 -9.5q17 0 24 12t7 26q15 8 33 11.5t31 3.5q39 0 66.5 -24t27.5 -69q0 -42 -29 -68.5
t-73 -26.5q-29 0 -48 10q5 5 9.5 14.5t4.5 17.5q0 20 -13.5 34t-35.5 14q-19 0 -35 -13.5t-16 -40.5q0 -21 11 -37.5t29.5 -28.5t43.5 -18.5t53 -6.5q35 0 65 11t51.5 31.5t34 48.5t12.5 61zM50 349q0 82 31 154t84.5 125.5t125.5 84.5t154 31t154 -31t125.5 -84.5
t84.5 -125.5t31 -154t-31 -154t-84.5 -125.5t-125.5 -84.5t-154 -31t-154 31t-125.5 84.5t-84.5 125.5t-31 154z" />
    <glyph glyph-name="orn.7" horiz-adv-x="890" 
d="M597 286q0 31 -11 57t-30.5 45t-47 29.5t-59.5 10.5q-23 0 -46.5 -7.5t-38.5 -21.5q15 30 37.5 53t48 38.5t51.5 24.5t49 12q11 2 19 8.5t8 20.5q0 28 -35 28q-25 0 -62 -13t-69 -36q-57 -41 -94 -102.5t-37 -130.5q0 -74 43 -119.5t116 -45.5q34 0 63 11t50 31t33 47.5
t12 59.5zM439 193q-42 0 -67.5 25.5t-25.5 64.5q0 42 27.5 66t66.5 24q41 0 66.5 -25t25.5 -64q0 -40 -25.5 -65.5t-67.5 -25.5zM50 349q0 82 31 154t84.5 125.5t125.5 84.5t154 31t154 -31t125.5 -84.5t84.5 -125.5t31 -154t-31 -154t-84.5 -125.5t-125.5 -84.5t-154 -31
t-154 31t-125.5 84.5t-84.5 125.5t-31 154z" />
    <glyph glyph-name="orn.8" horiz-adv-x="890" 
d="M604 528q0 12 -8 21t-21 9h-249q-13 0 -22 -8.5t-9 -21.5v-89q0 -12 9 -20.5t22 -8.5q11 0 21 8.5t10 20.5v61h168l-34 -50q-26 -38 -47.5 -79t-36.5 -79.5t-24 -72t-9 -56.5q0 -14 9 -21.5t22 -7.5q14 0 22 7.5t10 17.5q5 44 15.5 79t30.5 79q22 49 48 90t48 72l12 17
q13 19 13 32zM50 349q0 82 31 154t84.5 125.5t125.5 84.5t154 31t154 -31t125.5 -84.5t84.5 -125.5t31 -154t-31 -154t-84.5 -125.5t-125.5 -84.5t-154 -31t-154 31t-125.5 84.5t-84.5 125.5t-31 154z" />
    <glyph glyph-name="orn.9" horiz-adv-x="890" 
d="M445 137q37 0 66.5 10.5t50 29t31.5 43t11 51.5q0 36 -20.5 67.5t-56.5 47.5q23 14 34 34.5t11 43.5t-10 43t-27 34.5t-40 23t-50 8.5t-50 -8.5t-40 -23t-27 -34.5t-10 -43t11 -43.5t34 -34.5q-36 -16 -56.5 -47.5t-20.5 -67.5q0 -27 11 -51.5t31.5 -43t50 -29
t66.5 -10.5zM445 354q42 0 69 -24t27 -57q0 -34 -27.5 -57t-68.5 -23t-68.5 23t-27.5 57q0 33 27 57t69 24zM445 518q29 0 47 -15.5t18 -38.5q0 -22 -18 -39t-47 -17t-47 17t-18 39q0 23 18 38.5t47 15.5zM50 349q0 82 31 154t84.5 125.5t125.5 84.5t154 31t154 -31
t125.5 -84.5t84.5 -125.5t31 -154t-31 -154t-84.5 -125.5t-125.5 -84.5t-154 -31t-154 31t-125.5 84.5t-84.5 125.5t-31 154z" />
    <glyph glyph-name="orn.10" horiz-adv-x="890" 
d="M290 424q0 -31 11 -57t30.5 -45t47 -29.5t59.5 -10.5q23 0 47 7.5t39 21.5q-15 -30 -38 -53t-48.5 -39t-51.5 -24.5t-49 -11.5q-11 -2 -19 -8.5t-8 -20.5q0 -28 35 -28q25 0 62 13t69 36q57 41 94 102.5t37 130.5q0 74 -43 119.5t-116 45.5q-34 0 -63 -11t-50 -31
t-33 -47.5t-12 -59.5zM448 517q42 0 67.5 -25.5t25.5 -64.5q0 -42 -27.5 -66t-66.5 -24q-41 0 -66.5 25t-25.5 64q0 40 25.5 65.5t67.5 25.5zM50 349q0 82 31 154t84.5 125.5t125.5 84.5t154 31t154 -31t125.5 -84.5t84.5 -125.5t31 -154t-31 -154t-84.5 -125.5
t-125.5 -84.5t-154 -31t-154 31t-125.5 84.5t-84.5 125.5t-31 154z" />
    <glyph glyph-name="onequarter" unicode="&#xbc;" horiz-adv-x="1080" 
d="M999 149q0 -29 -31 -29h-56v-93q0 -13 -9.5 -21t-21.5 -8q-13 0 -22 8t-9 21v93h-180q-14 0 -21.5 9.5t-7.5 20.5q0 7 4.5 14.5t11.5 15.5q42 48 78 99t60 114l8 21q8 18 26 18q15 0 22 -9.5t7 -23.5q-5 -26 -18 -55t-30.5 -58.5t-38.5 -57.5t-42 -51h121v78q0 16 7 28.5
t24 12.5t24 -12.5t7 -28.5v-78h56q31 0 31 -28zM264 337h76q14 0 22 -8.5t8 -20.5q0 -13 -8 -21t-22 -8h-220q-14 0 -22 8t-8 21q0 12 8 20.5t22 8.5h82v258l-61 -80q-9 -12 -24 -12q-13 0 -22.5 8t-9.5 21q0 9 7 19l110 141q12 14 29 14q13 0 23 -8.5t10 -24.5v-336zM257 4
q-12 -14 -28 -14q-13 0 -21 8t-8 19q0 5 1.5 10.5t6.5 10.5l616 660q10 12 25 12q12 0 21 -8.5t9 -19.5t-8 -21z" />
    <glyph glyph-name="onehalf" unicode="&#xbd;" horiz-adv-x="1080" 
d="M933 97q0 13 9.5 22t22.5 9t21.5 -9t8.5 -22v-69q0 -13 -8.5 -20.5t-21.5 -7.5h-226q-16 0 -23 7t-7 25q0 35 24 67t59 61q27 22 51 38.5t42.5 32.5t29.5 33t11 40q0 27 -21 48.5t-55 21.5q-23 0 -42.5 -8.5t-30.5 -25.5q12 -6 19.5 -18.5t7.5 -26.5q0 -18 -14 -31.5
t-35 -13.5t-36 16t-15 43q0 24 11.5 45t31.5 37.5t46.5 26t57.5 9.5q30 0 55 -9t44 -25t29.5 -39t10.5 -50q0 -31 -13 -55t-33 -43.5t-44.5 -36l-48 -33.5t-43 -35.5t-30.5 -42.5h155v39zM264 337h76q14 0 22 -8.5t8 -20.5q0 -13 -8 -21t-22 -8h-220q-14 0 -22 8t-8 21
q0 12 8 20.5t22 8.5h82v258l-61 -80q-9 -12 -24 -12q-13 0 -22.5 8t-9.5 21q0 9 7 19l110 141q12 14 29 14q13 0 23 -8.5t10 -24.5v-336zM257 4q-12 -14 -28 -14q-13 0 -21 8t-8 19q0 5 1.5 10.5t6.5 10.5l616 660q10 12 25 12q12 0 21 -8.5t9 -19.5t-8 -21z" />
    <glyph glyph-name="threequarters" unicode="&#xbe;" horiz-adv-x="1080" 
d="M274 554q48 -11 80.5 -45t32.5 -88q0 -33 -12.5 -60.5t-34 -48t-51.5 -31.5t-65 -11q-27 0 -52 6.5t-44 18t-30 28t-11 37.5q0 28 16.5 41.5t34.5 13.5q22 0 35.5 -14t13.5 -33q0 -9 -4.5 -18.5t-9.5 -14.5q19 -10 48 -10q44 0 72.5 26t28.5 68q0 21 -8 37t-20.5 27
t-29 17t-33.5 8l-25 -24q-10 -9 -23 -9t-20.5 8.5t-7.5 19.5q0 13 9 22l118 113h-148q-14 0 -22 8t-8 21t8 21t22 8h216q11 0 20 -7t9 -20q0 -6 -2.5 -13.5t-8.5 -12.5zM999 149q0 -29 -31 -29h-56v-93q0 -13 -9.5 -21t-21.5 -8q-13 0 -22 8t-9 21v93h-180q-14 0 -21.5 9.5
t-7.5 20.5q0 7 4.5 14.5t11.5 15.5q42 48 78 99t60 114l8 21q8 18 26 18q15 0 22 -9.5t7 -23.5q-5 -26 -18 -55t-30.5 -58.5t-38.5 -57.5t-42 -51h121v78q0 16 7 28.5t24 12.5t24 -12.5t7 -28.5v-78h56q31 0 31 -28zM257 4q-12 -14 -28 -14q-13 0 -21 8t-8 19q0 5 1.5 10.5
t6.5 10.5l616 660q10 12 25 12q12 0 21 -8.5t9 -19.5t-8 -21z" />
    <glyph glyph-name="onethird" unicode="&#x2153;" horiz-adv-x="1080" 
d="M896 275q48 -11 80.5 -45t32.5 -88q0 -33 -12.5 -60.5t-34 -48t-51.5 -31.5t-65 -11q-27 0 -52 6.5t-44 18t-30 28t-11 37.5q0 28 16.5 41.5t34.5 13.5q22 0 35.5 -14t13.5 -33q0 -9 -4.5 -18.5t-9.5 -14.5q19 -10 48 -10q44 0 72.5 26t28.5 68q0 21 -8 37t-20.5 27
t-29 17t-33.5 8l-25 -24q-10 -9 -23 -9t-20.5 8.5t-7.5 19.5q0 13 9 22l118 113h-148q-14 0 -22 8t-8 21t8 21t22 8h216q11 0 20 -7t9 -20q0 -6 -2.5 -13.5t-8.5 -12.5zM264 337h76q14 0 22 -8.5t8 -20.5q0 -13 -8 -21t-22 -8h-220q-14 0 -22 8t-8 21q0 12 8 20.5t22 8.5h82
v258l-61 -80q-9 -12 -24 -12q-13 0 -22.5 8t-9.5 21q0 9 7 19l110 141q12 14 29 14q13 0 23 -8.5t10 -24.5v-336zM257 4q-12 -14 -28 -14q-13 0 -21 8t-8 19q0 5 1.5 10.5t6.5 10.5l616 660q10 12 25 12q12 0 21 -8.5t9 -19.5t-8 -21z" />
    <glyph glyph-name="twothirds" unicode="&#x2154;" horiz-adv-x="1080" 
d="M896 275q48 -11 80.5 -45t32.5 -88q0 -33 -12.5 -60.5t-34 -48t-51.5 -31.5t-65 -11q-27 0 -52 6.5t-44 18t-30 28t-11 37.5q0 28 16.5 41.5t34.5 13.5q22 0 35.5 -14t13.5 -33q0 -9 -4.5 -18.5t-9.5 -14.5q19 -10 48 -10q44 0 72.5 26t28.5 68q0 21 -8 37t-20.5 27
t-29 17t-33.5 8l-25 -24q-10 -9 -23 -9t-20.5 8.5t-7.5 19.5q0 13 9 22l118 113h-148q-14 0 -22 8t-8 21t8 21t22 8h216q11 0 20 -7t9 -20q0 -6 -2.5 -13.5t-8.5 -12.5zM308 376q0 13 9.5 22t22.5 9t21.5 -9t8.5 -22v-69q0 -13 -8.5 -20.5t-21.5 -7.5h-226q-16 0 -23 7
t-7 25q0 35 24 67t59 61q27 22 51 38.5t42.5 32.5t29.5 33t11 40q0 27 -21 48.5t-55 21.5q-23 0 -42.5 -8.5t-30.5 -25.5q12 -6 19.5 -18.5t7.5 -26.5q0 -18 -14 -31.5t-35 -13.5t-36 16t-15 43q0 24 11.5 45t31.5 37.5t46.5 26t57.5 9.5q30 0 55 -9t44 -25t29.5 -39
t10.5 -50q0 -31 -13 -55t-33 -43.5t-44.5 -36l-48 -33.5t-43 -35.5t-30.5 -42.5h155v39zM257 4q-12 -14 -28 -14q-13 0 -21 8t-8 19q0 5 1.5 10.5t6.5 10.5l616 660q10 12 25 12q12 0 21 -8.5t9 -19.5t-8 -21z" />
    <glyph glyph-name="onefifth" horiz-adv-x="1080" 
d="M1010 143q0 -33 -12.5 -61t-34 -48.5t-51.5 -31.5t-65 -11q-28 0 -53 6.5t-44 18.5t-30 28.5t-11 37.5q0 27 16.5 40.5t34.5 13.5q22 0 35.5 -14t13.5 -34q0 -8 -4 -17.5t-9 -14.5q17 -10 48 -10q44 0 72.5 26.5t28.5 68.5q0 45 -27 69t-66 24q-14 0 -31.5 -3.5
t-32.5 -11.5q0 -20 -7.5 -32.5t-24.5 -12.5q-16 0 -23 9.5t-7 22.5l14 184q1 12 9 20t21 8h199q12 0 21 -8t9 -21t-9 -21t-21 -8h-173l-6 -84q14 8 34 11t35 3q33 0 61 -10.5t48 -30t31 -46.5t11 -60zM264 337h76q14 0 22 -8.5t8 -20.5q0 -13 -8 -21t-22 -8h-220
q-14 0 -22 8t-8 21q0 12 8 20.5t22 8.5h82v258l-61 -80q-9 -12 -24 -12q-13 0 -22.5 8t-9.5 21q0 9 7 19l110 141q12 14 29 14q13 0 23 -8.5t10 -24.5v-336zM257 4q-12 -14 -28 -14q-13 0 -21 8t-8 19q0 5 1.5 10.5t6.5 10.5l616 660q10 12 25 12q12 0 21 -8.5t9 -19.5
t-8 -21z" />
    <glyph glyph-name="twofifths" horiz-adv-x="1080" 
d="M1010 143q0 -33 -12.5 -61t-34 -48.5t-51.5 -31.5t-65 -11q-28 0 -53 6.5t-44 18.5t-30 28.5t-11 37.5q0 27 16.5 40.5t34.5 13.5q22 0 35.5 -14t13.5 -34q0 -8 -4 -17.5t-9 -14.5q17 -10 48 -10q44 0 72.5 26.5t28.5 68.5q0 45 -27 69t-66 24q-14 0 -31.5 -3.5
t-32.5 -11.5q0 -20 -7.5 -32.5t-24.5 -12.5q-16 0 -23 9.5t-7 22.5l14 184q1 12 9 20t21 8h199q12 0 21 -8t9 -21t-9 -21t-21 -8h-173l-6 -84q14 8 34 11t35 3q33 0 61 -10.5t48 -30t31 -46.5t11 -60zM308 376q0 13 9.5 22t22.5 9t21.5 -9t8.5 -22v-69q0 -13 -8.5 -20.5
t-21.5 -7.5h-226q-16 0 -23 7t-7 25q0 35 24 67t59 61q27 22 51 38.5t42.5 32.5t29.5 33t11 40q0 27 -21 48.5t-55 21.5q-23 0 -42.5 -8.5t-30.5 -25.5q12 -6 19.5 -18.5t7.5 -26.5q0 -18 -14 -31.5t-35 -13.5t-36 16t-15 43q0 24 11.5 45t31.5 37.5t46.5 26t57.5 9.5
q30 0 55 -9t44 -25t29.5 -39t10.5 -50q0 -31 -13 -55t-33 -43.5t-44.5 -36l-48 -33.5t-43 -35.5t-30.5 -42.5h155v39zM257 4q-12 -14 -28 -14q-13 0 -21 8t-8 19q0 5 1.5 10.5t6.5 10.5l616 660q10 12 25 12q12 0 21 -8.5t9 -19.5t-8 -21z" />
    <glyph glyph-name="threefifths" horiz-adv-x="1080" 
d="M274 554q48 -11 80.5 -45t32.5 -88q0 -33 -12.5 -60.5t-34 -48t-51.5 -31.5t-65 -11q-27 0 -52 6.5t-44 18t-30 28t-11 37.5q0 28 16.5 41.5t34.5 13.5q22 0 35.5 -14t13.5 -33q0 -9 -4.5 -18.5t-9.5 -14.5q19 -10 48 -10q44 0 72.5 26t28.5 68q0 21 -8 37t-20.5 27
t-29 17t-33.5 8l-25 -24q-10 -9 -23 -9t-20.5 8.5t-7.5 19.5q0 13 9 22l118 113h-148q-14 0 -22 8t-8 21t8 21t22 8h216q11 0 20 -7t9 -20q0 -6 -2.5 -13.5t-8.5 -12.5zM1010 143q0 -33 -12.5 -61t-34 -48.5t-51.5 -31.5t-65 -11q-28 0 -53 6.5t-44 18.5t-30 28.5t-11 37.5
q0 27 16.5 40.5t34.5 13.5q22 0 35.5 -14t13.5 -34q0 -8 -4 -17.5t-9 -14.5q17 -10 48 -10q44 0 72.5 26.5t28.5 68.5q0 45 -27 69t-66 24q-14 0 -31.5 -3.5t-32.5 -11.5q0 -20 -7.5 -32.5t-24.5 -12.5q-16 0 -23 9.5t-7 22.5l14 184q1 12 9 20t21 8h199q12 0 21 -8t9 -21
t-9 -21t-21 -8h-173l-6 -84q14 8 34 11t35 3q33 0 61 -10.5t48 -30t31 -46.5t11 -60zM257 4q-12 -14 -28 -14q-13 0 -21 8t-8 19q0 5 1.5 10.5t6.5 10.5l616 660q10 12 25 12q12 0 21 -8.5t9 -19.5t-8 -21z" />
    <glyph glyph-name="fourfifths" horiz-adv-x="1080" 
d="M423 428q0 -29 -31 -29h-56v-93q0 -13 -9.5 -21t-21.5 -8q-13 0 -22 8t-9 21v93h-180q-14 0 -21.5 9.5t-7.5 20.5q0 7 4.5 14.5t11.5 15.5q42 48 78 99t60 114l8 21q8 18 26 18q15 0 22 -9.5t7 -23.5q-5 -26 -18 -55t-30.5 -58.5t-38.5 -57.5t-42 -51h121v78q0 16 7 28.5
t24 12.5t24 -12.5t7 -28.5v-78h56q31 0 31 -28zM1010 143q0 -33 -12.5 -61t-34 -48.5t-51.5 -31.5t-65 -11q-28 0 -53 6.5t-44 18.5t-30 28.5t-11 37.5q0 27 16.5 40.5t34.5 13.5q22 0 35.5 -14t13.5 -34q0 -8 -4 -17.5t-9 -14.5q17 -10 48 -10q44 0 72.5 26.5t28.5 68.5
q0 45 -27 69t-66 24q-14 0 -31.5 -3.5t-32.5 -11.5q0 -20 -7.5 -32.5t-24.5 -12.5q-16 0 -23 9.5t-7 22.5l14 184q1 12 9 20t21 8h199q12 0 21 -8t9 -21t-9 -21t-21 -8h-173l-6 -84q14 8 34 11t35 3q33 0 61 -10.5t48 -30t31 -46.5t11 -60zM257 4q-12 -14 -28 -14
q-13 0 -21 8t-8 19q0 5 1.5 10.5t6.5 10.5l616 660q10 12 25 12q12 0 21 -8.5t9 -19.5t-8 -21z" />
    <glyph glyph-name="onesixth" horiz-adv-x="1080" 
d="M850 47q43 0 68 25.5t25 65.5q0 39 -25.5 63.5t-65.5 24.5t-67 -24t-27 -65q0 -39 25 -64.5t67 -25.5zM1007 138q0 -32 -11.5 -59t-32.5 -46.5t-50 -30.5t-63 -11q-36 0 -66 12t-51 34t-32.5 52.5t-11.5 67.5q0 56 21.5 101.5t54.5 82.5q39 44 89.5 70t98.5 26
q17 0 26.5 -7.5t9.5 -19.5q0 -14 -8 -20.5t-19 -8.5q-23 -3 -49 -12t-51 -25t-47 -38.5t-38 -52.5q16 13 38.5 21t45.5 8q32 0 59 -10.5t46.5 -30t30 -46t10.5 -57.5zM264 337h76q14 0 22 -8.5t8 -20.5q0 -13 -8 -21t-22 -8h-220q-14 0 -22 8t-8 21q0 12 8 20.5t22 8.5h82
v258l-61 -80q-9 -12 -24 -12q-13 0 -22.5 8t-9.5 21q0 9 7 19l110 141q12 14 29 14q13 0 23 -8.5t10 -24.5v-336zM257 4q-12 -14 -28 -14q-13 0 -21 8t-8 19q0 5 1.5 10.5t6.5 10.5l616 660q10 12 25 12q12 0 21 -8.5t9 -19.5t-8 -21z" />
    <glyph glyph-name="fivesixths" horiz-adv-x="1080" 
d="M391 422q0 -33 -12.5 -61t-34 -48.5t-51.5 -31.5t-65 -11q-28 0 -53 6.5t-44 18.5t-30 28.5t-11 37.5q0 27 16.5 40.5t34.5 13.5q22 0 35.5 -14t13.5 -34q0 -8 -4 -17.5t-9 -14.5q17 -10 48 -10q44 0 72.5 26.5t28.5 68.5q0 45 -27 69t-66 24q-14 0 -31.5 -3.5
t-32.5 -11.5q0 -20 -7.5 -32.5t-24.5 -12.5q-16 0 -23 9.5t-7 22.5l14 184q1 12 9 20t21 8h199q12 0 21 -8t9 -21t-9 -21t-21 -8h-173l-6 -84q14 8 34 11t35 3q33 0 61 -10.5t48 -30t31 -46.5t11 -60zM850 47q43 0 68 25.5t25 65.5q0 39 -25.5 63.5t-65.5 24.5t-67 -24
t-27 -65q0 -39 25 -64.5t67 -25.5zM1007 138q0 -32 -11.5 -59t-32.5 -46.5t-50 -30.5t-63 -11q-36 0 -66 12t-51 34t-32.5 52.5t-11.5 67.5q0 56 21.5 101.5t54.5 82.5q39 44 89.5 70t98.5 26q17 0 26.5 -7.5t9.5 -19.5q0 -14 -8 -20.5t-19 -8.5q-23 -3 -49 -12t-51 -25
t-47 -38.5t-38 -52.5q16 13 38.5 21t45.5 8q32 0 59 -10.5t46.5 -30t30 -46t10.5 -57.5zM257 4q-12 -14 -28 -14q-13 0 -21 8t-8 19q0 5 1.5 10.5t6.5 10.5l616 660q10 12 25 12q12 0 21 -8.5t9 -19.5t-8 -21z" />
    <glyph glyph-name="oneeighth" unicode="&#x215b;" horiz-adv-x="1080" 
d="M850 47q41 0 68.5 23t27.5 57q0 33 -27 57t-69 24t-69 -24t-27 -57q0 -34 27.5 -57t68.5 -23zM850 262q30 0 47.5 17t17.5 39q0 23 -18 38.5t-47 15.5t-47 -15.5t-18 -38.5q0 -22 17.5 -39t47.5 -17zM850 427q27 0 50 -8.5t40.5 -23t27.5 -34.5t10 -43t-11 -43.5
t-34 -34.5q36 -16 56.5 -47.5t20.5 -67.5q0 -27 -11 -51.5t-31.5 -43t-50.5 -29t-67 -10.5q-38 0 -67.5 10.5t-50 29t-31.5 43t-11 51.5q0 36 20.5 67.5t56.5 47.5q-23 14 -34 34.5t-11 43.5t10 43t27.5 34.5t40.5 23t50 8.5zM264 337h76q14 0 22 -8.5t8 -20.5q0 -13 -8 -21
t-22 -8h-220q-14 0 -22 8t-8 21q0 12 8 20.5t22 8.5h82v258l-61 -80q-9 -12 -24 -12q-13 0 -22.5 8t-9.5 21q0 9 7 19l110 141q12 14 29 14q13 0 23 -8.5t10 -24.5v-336zM257 4q-12 -14 -28 -14q-13 0 -21 8t-8 19q0 5 1.5 10.5t6.5 10.5l616 660q10 12 25 12q12 0 21 -8.5
t9 -19.5t-8 -21z" />
    <glyph glyph-name="threeeighths" unicode="&#x215c;" horiz-adv-x="1080" 
d="M274 554q48 -11 80.5 -45t32.5 -88q0 -33 -12.5 -60.5t-34 -48t-51.5 -31.5t-65 -11q-27 0 -52 6.5t-44 18t-30 28t-11 37.5q0 28 16.5 41.5t34.5 13.5q22 0 35.5 -14t13.5 -33q0 -9 -4.5 -18.5t-9.5 -14.5q19 -10 48 -10q44 0 72.5 26t28.5 68q0 21 -8 37t-20.5 27
t-29 17t-33.5 8l-25 -24q-10 -9 -23 -9t-20.5 8.5t-7.5 19.5q0 13 9 22l118 113h-148q-14 0 -22 8t-8 21t8 21t22 8h216q11 0 20 -7t9 -20q0 -6 -2.5 -13.5t-8.5 -12.5zM850 47q41 0 68.5 23t27.5 57q0 33 -27 57t-69 24t-69 -24t-27 -57q0 -34 27.5 -57t68.5 -23zM850 262
q30 0 47.5 17t17.5 39q0 23 -18 38.5t-47 15.5t-47 -15.5t-18 -38.5q0 -22 17.5 -39t47.5 -17zM850 427q27 0 50 -8.5t40.5 -23t27.5 -34.5t10 -43t-11 -43.5t-34 -34.5q36 -16 56.5 -47.5t20.5 -67.5q0 -27 -11 -51.5t-31.5 -43t-50.5 -29t-67 -10.5q-38 0 -67.5 10.5
t-50 29t-31.5 43t-11 51.5q0 36 20.5 67.5t56.5 47.5q-23 14 -34 34.5t-11 43.5t10 43t27.5 34.5t40.5 23t50 8.5zM257 4q-12 -14 -28 -14q-13 0 -21 8t-8 19q0 5 1.5 10.5t6.5 10.5l616 660q10 12 25 12q12 0 21 -8.5t9 -19.5t-8 -21z" />
    <glyph glyph-name="fiveeighths" unicode="&#x215d;" horiz-adv-x="1080" 
d="M850 47q41 0 68.5 23t27.5 57q0 33 -27 57t-69 24t-69 -24t-27 -57q0 -34 27.5 -57t68.5 -23zM850 262q30 0 47.5 17t17.5 39q0 23 -18 38.5t-47 15.5t-47 -15.5t-18 -38.5q0 -22 17.5 -39t47.5 -17zM850 427q27 0 50 -8.5t40.5 -23t27.5 -34.5t10 -43t-11 -43.5
t-34 -34.5q36 -16 56.5 -47.5t20.5 -67.5q0 -27 -11 -51.5t-31.5 -43t-50.5 -29t-67 -10.5q-38 0 -67.5 10.5t-50 29t-31.5 43t-11 51.5q0 36 20.5 67.5t56.5 47.5q-23 14 -34 34.5t-11 43.5t10 43t27.5 34.5t40.5 23t50 8.5zM391 422q0 -33 -12.5 -61t-34 -48.5
t-51.5 -31.5t-65 -11q-28 0 -53 6.5t-44 18.5t-30 28.5t-11 37.5q0 27 16.5 40.5t34.5 13.5q22 0 35.5 -14t13.5 -34q0 -8 -4 -17.5t-9 -14.5q17 -10 48 -10q44 0 72.5 26.5t28.5 68.5q0 45 -27 69t-66 24q-14 0 -31.5 -3.5t-32.5 -11.5q0 -20 -7.5 -32.5t-24.5 -12.5
q-16 0 -23 9.5t-7 22.5l14 184q1 12 9 20t21 8h199q12 0 21 -8t9 -21t-9 -21t-21 -8h-173l-6 -84q14 8 34 11t35 3q33 0 61 -10.5t48 -30t31 -46.5t11 -60zM257 4q-12 -14 -28 -14q-13 0 -21 8t-8 19q0 5 1.5 10.5t6.5 10.5l616 660q10 12 25 12q12 0 21 -8.5t9 -19.5
t-8 -21z" />
    <glyph glyph-name="seveneighths" unicode="&#x215e;" horiz-adv-x="1080" 
d="M437 666q0 -10 -13 -31t-32 -49l-40 -61.5t-37 -69.5q-10 -22 -17 -41t-12.5 -38t-9 -38t-6.5 -41q-2 -10 -10.5 -17.5t-22.5 -7.5q-13 0 -22 7.5t-9 21.5q0 24 9 57.5t25 72.5t37.5 79.5t46.5 77.5l33 50h-167v-61q0 -12 -10 -20.5t-22 -8.5t-21.5 8.5t-9.5 20.5v89
q0 13 9.5 21.5t21.5 8.5h249q14 0 22 -9t8 -21zM850 47q41 0 68.5 23t27.5 57q0 33 -27 57t-69 24t-69 -24t-27 -57q0 -34 27.5 -57t68.5 -23zM850 262q30 0 47.5 17t17.5 39q0 23 -18 38.5t-47 15.5t-47 -15.5t-18 -38.5q0 -22 17.5 -39t47.5 -17zM850 427q27 0 50 -8.5
t40.5 -23t27.5 -34.5t10 -43t-11 -43.5t-34 -34.5q36 -16 56.5 -47.5t20.5 -67.5q0 -27 -11 -51.5t-31.5 -43t-50.5 -29t-67 -10.5q-38 0 -67.5 10.5t-50 29t-31.5 43t-11 51.5q0 36 20.5 67.5t56.5 47.5q-23 14 -34 34.5t-11 43.5t10 43t27.5 34.5t40.5 23t50 8.5zM257 4
q-12 -14 -28 -14q-13 0 -21 8t-8 19q0 5 1.5 10.5t6.5 10.5l616 660q10 12 25 12q12 0 21 -8.5t9 -19.5t-8 -21z" />
    <glyph glyph-name="oneseventh" horiz-adv-x="1080" 
d="M1027 387q0 -10 -13 -31t-32 -49l-40 -61.5t-37 -69.5q-10 -22 -17 -41t-12.5 -38t-9 -38t-6.5 -41q-2 -10 -10.5 -17.5t-22.5 -7.5q-13 0 -22 7.5t-9 21.5q0 24 9 57.5t25 72.5t37.5 79.5t46.5 77.5l33 50h-167v-61q0 -12 -10 -20.5t-22 -8.5t-21.5 8.5t-9.5 20.5v89
q0 13 9.5 21.5t21.5 8.5h249q14 0 22 -9t8 -21zM264 337h76q14 0 22 -8.5t8 -20.5q0 -13 -8 -21t-22 -8h-220q-14 0 -22 8t-8 21q0 12 8 20.5t22 8.5h82v258l-61 -80q-9 -12 -24 -12q-13 0 -22.5 8t-9.5 21q0 9 7 19l110 141q12 14 29 14q13 0 23 -8.5t10 -24.5v-336zM257 4
q-12 -14 -28 -14q-13 0 -21 8t-8 19q0 5 1.5 10.5t6.5 10.5l616 660q10 12 25 12q12 0 21 -8.5t9 -19.5t-8 -21z" />
    <glyph glyph-name="twosevenths" horiz-adv-x="1080" 
d="M1027 387q0 -10 -13 -31t-32 -49l-40 -61.5t-37 -69.5q-10 -22 -17 -41t-12.5 -38t-9 -38t-6.5 -41q-2 -10 -10.5 -17.5t-22.5 -7.5q-13 0 -22 7.5t-9 21.5q0 24 9 57.5t25 72.5t37.5 79.5t46.5 77.5l33 50h-167v-61q0 -12 -10 -20.5t-22 -8.5t-21.5 8.5t-9.5 20.5v89
q0 13 9.5 21.5t21.5 8.5h249q14 0 22 -9t8 -21zM308 376q0 13 9.5 22t22.5 9t21.5 -9t8.5 -22v-69q0 -13 -8.5 -20.5t-21.5 -7.5h-226q-16 0 -23 7t-7 25q0 35 24 67t59 61q27 22 51 38.5t42.5 32.5t29.5 33t11 40q0 27 -21 48.5t-55 21.5q-23 0 -42.5 -8.5t-30.5 -25.5
q12 -6 19.5 -18.5t7.5 -26.5q0 -18 -14 -31.5t-35 -13.5t-36 16t-15 43q0 24 11.5 45t31.5 37.5t46.5 26t57.5 9.5q30 0 55 -9t44 -25t29.5 -39t10.5 -50q0 -31 -13 -55t-33 -43.5t-44.5 -36l-48 -33.5t-43 -35.5t-30.5 -42.5h155v39zM257 4q-12 -14 -28 -14q-13 0 -21 8
t-8 19q0 5 1.5 10.5t6.5 10.5l616 660q10 12 25 12q12 0 21 -8.5t9 -19.5t-8 -21z" />
    <glyph glyph-name="threesevenths" horiz-adv-x="1080" 
d="M274 554q48 -11 80.5 -45t32.5 -88q0 -33 -12.5 -60.5t-34 -48t-51.5 -31.5t-65 -11q-27 0 -52 6.5t-44 18t-30 28t-11 37.5q0 28 16.5 41.5t34.5 13.5q22 0 35.5 -14t13.5 -33q0 -9 -4.5 -18.5t-9.5 -14.5q19 -10 48 -10q44 0 72.5 26t28.5 68q0 21 -8 37t-20.5 27
t-29 17t-33.5 8l-25 -24q-10 -9 -23 -9t-20.5 8.5t-7.5 19.5q0 13 9 22l118 113h-148q-14 0 -22 8t-8 21t8 21t22 8h216q11 0 20 -7t9 -20q0 -6 -2.5 -13.5t-8.5 -12.5zM1027 387q0 -10 -13 -31t-32 -49l-40 -61.5t-37 -69.5q-10 -22 -17 -41t-12.5 -38t-9 -38t-6.5 -41
q-2 -10 -10.5 -17.5t-22.5 -7.5q-13 0 -22 7.5t-9 21.5q0 24 9 57.5t25 72.5t37.5 79.5t46.5 77.5l33 50h-167v-61q0 -12 -10 -20.5t-22 -8.5t-21.5 8.5t-9.5 20.5v89q0 13 9.5 21.5t21.5 8.5h249q14 0 22 -9t8 -21zM257 4q-12 -14 -28 -14q-13 0 -21 8t-8 19q0 5 1.5 10.5
t6.5 10.5l616 660q10 12 25 12q12 0 21 -8.5t9 -19.5t-8 -21z" />
    <glyph glyph-name="foursevenths" horiz-adv-x="1080" 
d="M1027 387q0 -10 -13 -31t-32 -49l-40 -61.5t-37 -69.5q-10 -22 -17 -41t-12.5 -38t-9 -38t-6.5 -41q-2 -10 -10.5 -17.5t-22.5 -7.5q-13 0 -22 7.5t-9 21.5q0 24 9 57.5t25 72.5t37.5 79.5t46.5 77.5l33 50h-167v-61q0 -12 -10 -20.5t-22 -8.5t-21.5 8.5t-9.5 20.5v89
q0 13 9.5 21.5t21.5 8.5h249q14 0 22 -9t8 -21zM423 428q0 -29 -31 -29h-56v-93q0 -13 -9.5 -21t-21.5 -8q-13 0 -22 8t-9 21v93h-180q-14 0 -21.5 9.5t-7.5 20.5q0 7 4.5 14.5t11.5 15.5q42 48 78 99t60 114l8 21q8 18 26 18q15 0 22 -9.5t7 -23.5q-5 -26 -18 -55
t-30.5 -58.5t-38.5 -57.5t-42 -51h121v78q0 16 7 28.5t24 12.5t24 -12.5t7 -28.5v-78h56q31 0 31 -28zM257 4q-12 -14 -28 -14q-13 0 -21 8t-8 19q0 5 1.5 10.5t6.5 10.5l616 660q10 12 25 12q12 0 21 -8.5t9 -19.5t-8 -21z" />
    <glyph glyph-name="fivesevenths" horiz-adv-x="1080" 
d="M1027 387q0 -10 -13 -31t-32 -49l-40 -61.5t-37 -69.5q-10 -22 -17 -41t-12.5 -38t-9 -38t-6.5 -41q-2 -10 -10.5 -17.5t-22.5 -7.5q-13 0 -22 7.5t-9 21.5q0 24 9 57.5t25 72.5t37.5 79.5t46.5 77.5l33 50h-167v-61q0 -12 -10 -20.5t-22 -8.5t-21.5 8.5t-9.5 20.5v89
q0 13 9.5 21.5t21.5 8.5h249q14 0 22 -9t8 -21zM391 422q0 -33 -12.5 -61t-34 -48.5t-51.5 -31.5t-65 -11q-28 0 -53 6.5t-44 18.5t-30 28.5t-11 37.5q0 27 16.5 40.5t34.5 13.5q22 0 35.5 -14t13.5 -34q0 -8 -4 -17.5t-9 -14.5q17 -10 48 -10q44 0 72.5 26.5t28.5 68.5
q0 45 -27 69t-66 24q-14 0 -31.5 -3.5t-32.5 -11.5q0 -20 -7.5 -32.5t-24.5 -12.5q-16 0 -23 9.5t-7 22.5l14 184q1 12 9 20t21 8h199q12 0 21 -8t9 -21t-9 -21t-21 -8h-173l-6 -84q14 8 34 11t35 3q33 0 61 -10.5t48 -30t31 -46.5t11 -60zM257 4q-12 -14 -28 -14
q-13 0 -21 8t-8 19q0 5 1.5 10.5t6.5 10.5l616 660q10 12 25 12q12 0 21 -8.5t9 -19.5t-8 -21z" />
    <glyph glyph-name="sixsevenths" horiz-adv-x="1080" 
d="M1027 387q0 -10 -13 -31t-32 -49l-40 -61.5t-37 -69.5q-10 -22 -17 -41t-12.5 -38t-9 -38t-6.5 -41q-2 -10 -10.5 -17.5t-22.5 -7.5q-13 0 -22 7.5t-9 21.5q0 24 9 57.5t25 72.5t37.5 79.5t46.5 77.5l33 50h-167v-61q0 -12 -10 -20.5t-22 -8.5t-21.5 8.5t-9.5 20.5v89
q0 13 9.5 21.5t21.5 8.5h249q14 0 22 -9t8 -21zM261 326q43 0 68 25.5t25 65.5q0 39 -25.5 63.5t-65.5 24.5t-67 -24t-27 -65q0 -39 25 -64.5t67 -25.5zM418 417q0 -32 -11.5 -59t-32.5 -46.5t-50 -30.5t-63 -11q-36 0 -66 12t-51 34t-32.5 52.5t-11.5 67.5q0 56 21.5 101.5
t54.5 82.5q39 44 89.5 70t98.5 26q17 0 26.5 -7.5t9.5 -19.5q0 -14 -8 -20.5t-19 -8.5q-23 -3 -49 -12t-51 -25t-47 -38.5t-38 -52.5q16 13 38.5 21t45.5 8q32 0 59 -10.5t46.5 -30t30 -46t10.5 -57.5zM257 4q-12 -14 -28 -14q-13 0 -21 8t-8 19q0 5 1.5 10.5t6.5 10.5
l616 660q10 12 25 12q12 0 21 -8.5t9 -19.5t-8 -21z" />
    <glyph glyph-name="oneninth" horiz-adv-x="1080" 
d="M848 371q-43 0 -68 -25.5t-25 -65.5q0 -39 25.5 -63.5t65.5 -24.5t67 24t27 65q0 39 -25 64.5t-67 25.5zM691 280q0 32 11.5 59t32.5 46.5t50 30.5t63 11q36 0 66 -12t51 -34t32.5 -52.5t11.5 -67.5q0 -56 -21.5 -101.5t-54.5 -82.5q-39 -44 -89.5 -70t-98.5 -26
q-17 0 -26.5 7.5t-9.5 19.5q0 14 8 20.5t19 8.5q23 3 49 12t51 25t47 38.5t38 52.5q-16 -13 -38.5 -21t-45.5 -8q-32 0 -59 10.5t-46.5 30t-30 45.5t-10.5 58zM264 337h76q14 0 22 -8.5t8 -20.5q0 -13 -8 -21t-22 -8h-220q-14 0 -22 8t-8 21q0 12 8 20.5t22 8.5h82v258
l-61 -80q-9 -12 -24 -12q-13 0 -22.5 8t-9.5 21q0 9 7 19l110 141q12 14 29 14q13 0 23 -8.5t10 -24.5v-336zM257 4q-12 -14 -28 -14q-13 0 -21 8t-8 19q0 5 1.5 10.5t6.5 10.5l616 660q10 12 25 12q12 0 21 -8.5t9 -19.5t-8 -21z" />
    <glyph glyph-name="twoninths" horiz-adv-x="1080" 
d="M848 371q-43 0 -68 -25.5t-25 -65.5q0 -39 25.5 -63.5t65.5 -24.5t67 24t27 65q0 39 -25 64.5t-67 25.5zM691 280q0 32 11.5 59t32.5 46.5t50 30.5t63 11q36 0 66 -12t51 -34t32.5 -52.5t11.5 -67.5q0 -56 -21.5 -101.5t-54.5 -82.5q-39 -44 -89.5 -70t-98.5 -26
q-17 0 -26.5 7.5t-9.5 19.5q0 14 8 20.5t19 8.5q23 3 49 12t51 25t47 38.5t38 52.5q-16 -13 -38.5 -21t-45.5 -8q-32 0 -59 10.5t-46.5 30t-30 45.5t-10.5 58zM308 376q0 13 9.5 22t22.5 9t21.5 -9t8.5 -22v-69q0 -13 -8.5 -20.5t-21.5 -7.5h-226q-16 0 -23 7t-7 25
q0 35 24 67t59 61q27 22 51 38.5t42.5 32.5t29.5 33t11 40q0 27 -21 48.5t-55 21.5q-23 0 -42.5 -8.5t-30.5 -25.5q12 -6 19.5 -18.5t7.5 -26.5q0 -18 -14 -31.5t-35 -13.5t-36 16t-15 43q0 24 11.5 45t31.5 37.5t46.5 26t57.5 9.5q30 0 55 -9t44 -25t29.5 -39t10.5 -50
q0 -31 -13 -55t-33 -43.5t-44.5 -36l-48 -33.5t-43 -35.5t-30.5 -42.5h155v39zM257 4q-12 -14 -28 -14q-13 0 -21 8t-8 19q0 5 1.5 10.5t6.5 10.5l616 660q10 12 25 12q12 0 21 -8.5t9 -19.5t-8 -21z" />
    <glyph glyph-name="fourninths" horiz-adv-x="1080" 
d="M848 371q-43 0 -68 -25.5t-25 -65.5q0 -39 25.5 -63.5t65.5 -24.5t67 24t27 65q0 39 -25 64.5t-67 25.5zM691 280q0 32 11.5 59t32.5 46.5t50 30.5t63 11q36 0 66 -12t51 -34t32.5 -52.5t11.5 -67.5q0 -56 -21.5 -101.5t-54.5 -82.5q-39 -44 -89.5 -70t-98.5 -26
q-17 0 -26.5 7.5t-9.5 19.5q0 14 8 20.5t19 8.5q23 3 49 12t51 25t47 38.5t38 52.5q-16 -13 -38.5 -21t-45.5 -8q-32 0 -59 10.5t-46.5 30t-30 45.5t-10.5 58zM423 428q0 -29 -31 -29h-56v-93q0 -13 -9.5 -21t-21.5 -8q-13 0 -22 8t-9 21v93h-180q-14 0 -21.5 9.5t-7.5 20.5
q0 7 4.5 14.5t11.5 15.5q42 48 78 99t60 114l8 21q8 18 26 18q15 0 22 -9.5t7 -23.5q-5 -26 -18 -55t-30.5 -58.5t-38.5 -57.5t-42 -51h121v78q0 16 7 28.5t24 12.5t24 -12.5t7 -28.5v-78h56q31 0 31 -28zM257 4q-12 -14 -28 -14q-13 0 -21 8t-8 19q0 5 1.5 10.5t6.5 10.5
l616 660q10 12 25 12q12 0 21 -8.5t9 -19.5t-8 -21z" />
    <glyph glyph-name="fiveninths" horiz-adv-x="1080" 
d="M848 371q-43 0 -68 -25.5t-25 -65.5q0 -39 25.5 -63.5t65.5 -24.5t67 24t27 65q0 39 -25 64.5t-67 25.5zM691 280q0 32 11.5 59t32.5 46.5t50 30.5t63 11q36 0 66 -12t51 -34t32.5 -52.5t11.5 -67.5q0 -56 -21.5 -101.5t-54.5 -82.5q-39 -44 -89.5 -70t-98.5 -26
q-17 0 -26.5 7.5t-9.5 19.5q0 14 8 20.5t19 8.5q23 3 49 12t51 25t47 38.5t38 52.5q-16 -13 -38.5 -21t-45.5 -8q-32 0 -59 10.5t-46.5 30t-30 45.5t-10.5 58zM391 422q0 -33 -12.5 -61t-34 -48.5t-51.5 -31.5t-65 -11q-28 0 -53 6.5t-44 18.5t-30 28.5t-11 37.5
q0 27 16.5 40.5t34.5 13.5q22 0 35.5 -14t13.5 -34q0 -8 -4 -17.5t-9 -14.5q17 -10 48 -10q44 0 72.5 26.5t28.5 68.5q0 45 -27 69t-66 24q-14 0 -31.5 -3.5t-32.5 -11.5q0 -20 -7.5 -32.5t-24.5 -12.5q-16 0 -23 9.5t-7 22.5l14 184q1 12 9 20t21 8h199q12 0 21 -8t9 -21
t-9 -21t-21 -8h-173l-6 -84q14 8 34 11t35 3q33 0 61 -10.5t48 -30t31 -46.5t11 -60zM257 4q-12 -14 -28 -14q-13 0 -21 8t-8 19q0 5 1.5 10.5t6.5 10.5l616 660q10 12 25 12q12 0 21 -8.5t9 -19.5t-8 -21z" />
    <glyph glyph-name="sevenninths" horiz-adv-x="1080" 
d="M446 666q0 -10 -13 -31t-32 -49l-40 -61.5t-37 -69.5q-10 -22 -17 -41t-12.5 -38t-9 -38t-6.5 -41q-2 -10 -10.5 -17.5t-22.5 -7.5q-13 0 -22 7.5t-9 21.5q0 24 9 57.5t25 72.5t37.5 79.5t46.5 77.5l33 50h-167v-61q0 -12 -10 -20.5t-22 -8.5t-21.5 8.5t-9.5 20.5v89
q0 13 9.5 21.5t21.5 8.5h249q14 0 22 -9t8 -21zM848 371q-43 0 -68 -25.5t-25 -65.5q0 -39 25.5 -63.5t65.5 -24.5t67 24t27 65q0 39 -25 64.5t-67 25.5zM691 280q0 32 11.5 59t32.5 46.5t50 30.5t63 11q36 0 66 -12t51 -34t32.5 -52.5t11.5 -67.5q0 -56 -21.5 -101.5
t-54.5 -82.5q-39 -44 -89.5 -70t-98.5 -26q-17 0 -26.5 7.5t-9.5 19.5q0 14 8 20.5t19 8.5q23 3 49 12t51 25t47 38.5t38 52.5q-16 -13 -38.5 -21t-45.5 -8q-32 0 -59 10.5t-46.5 30t-30 45.5t-10.5 58zM257 4q-12 -14 -28 -14q-13 0 -21 8t-8 19q0 5 1.5 10.5t6.5 10.5
l616 660q10 12 25 12q12 0 21 -8.5t9 -19.5t-8 -21z" />
    <glyph glyph-name="eightninths" horiz-adv-x="1080" 
d="M235 326q41 0 68.5 23t27.5 57q0 33 -27 57t-69 24t-69 -24t-27 -57q0 -34 27.5 -57t68.5 -23zM235 541q30 0 47.5 17t17.5 39q0 23 -18 38.5t-47 15.5t-47 -15.5t-18 -38.5q0 -22 17.5 -39t47.5 -17zM235 706q27 0 50 -8.5t40.5 -23t27.5 -34.5t10 -43t-11 -43.5
t-34 -34.5q36 -16 56.5 -47.5t20.5 -67.5q0 -27 -11 -51.5t-31.5 -43t-50.5 -29t-67 -10.5q-38 0 -67.5 10.5t-50 29t-31.5 43t-11 51.5q0 36 20.5 67.5t56.5 47.5q-23 14 -34 34.5t-11 43.5t10 43t27.5 34.5t40.5 23t50 8.5zM848 371q-43 0 -68 -25.5t-25 -65.5
q0 -39 25.5 -63.5t65.5 -24.5t67 24t27 65q0 39 -25 64.5t-67 25.5zM691 280q0 32 11.5 59t32.5 46.5t50 30.5t63 11q36 0 66 -12t51 -34t32.5 -52.5t11.5 -67.5q0 -56 -21.5 -101.5t-54.5 -82.5q-39 -44 -89.5 -70t-98.5 -26q-17 0 -26.5 7.5t-9.5 19.5q0 14 8 20.5t19 8.5
q23 3 49 12t51 25t47 38.5t38 52.5q-16 -13 -38.5 -21t-45.5 -8q-32 0 -59 10.5t-46.5 30t-30 45.5t-10.5 58zM257 4q-12 -14 -28 -14q-13 0 -21 8t-8 19q0 5 1.5 10.5t6.5 10.5l616 660q10 12 25 12q12 0 21 -8.5t9 -19.5t-8 -21z" />
    <glyph glyph-name="brokenbar" unicode="&#xa6;" horiz-adv-x="350" 
d="M135 246q0 16 11.5 27.5t28.5 11.5q16 0 28 -11.5t12 -27.5v-432q0 -17 -12 -28t-28 -11q-17 0 -28.5 11t-11.5 28v432zM135 826q0 16 11.5 27.5t28.5 11.5q16 0 28 -11.5t12 -27.5v-417q0 -17 -12 -28t-28 -11q-17 0 -28.5 11t-11.5 28v417z" />
    <glyph glyph-name="f_b" horiz-adv-x="1083" 
d="M957 236q0 35 -9.5 66.5t-28 55.5t-46 38t-62.5 14t-62.5 -14t-46.5 -38t-29 -55.5t-10 -66.5t9.5 -66t28.5 -55t46.5 -38t62.5 -14t62.5 14t46 38t28.5 55t10 66zM663 408q25 35 65.5 55.5t90.5 20.5q52 0 93 -19.5t69.5 -52.5t43.5 -78t15 -96q0 -53 -15.5 -98
t-45 -78.5t-70.5 -52.5t-92 -19t-90.5 19.5t-62.5 55.5v-36q0 -17 -12 -28t-29 -11t-28.5 11t-11.5 28v596h-18q0 -31 -20 -55t-52 -24q-29 0 -50 19t-21 48q0 14 6.5 29.5t23.5 26.5q-14 10 -32 12.5t-32 2.5q-64 0 -103.5 -40.5t-39.5 -129.5v-40h151q17 0 28 -10.5
t11 -27.5q0 -15 -11 -26t-28 -11h-151v-325h146q17 0 28 -10.5t11 -26.5t-11 -26.5t-29 -10.5h-331q-17 0 -27.5 10.5t-10.5 26.5t10.5 26.5t27.5 10.5h106v325h-96q-17 0 -27.5 11t-10.5 26q0 17 10.5 27.5t27.5 10.5h96v44q0 54 15.5 98t44.5 74.5t69 47.5t90 17
q51 0 89.5 -15t61.5 -40h90q16 0 27 -10.5t11 -27.5v-254z" />
    <glyph glyph-name="f_f_b" horiz-adv-x="1433" 
d="M515 399h-270v-325h270v325zM515 518q0 54 15.5 98t44.5 74.5t69 47.5t90 17q51 0 89.5 -15t61.5 -40h90q16 0 27 -10.5t11 -27.5v-254q25 35 65.5 55.5t90.5 20.5q52 0 93 -19.5t69.5 -52.5t43.5 -78t15 -96q0 -53 -15.5 -98t-45 -78.5t-70.5 -52.5t-92 -19t-90.5 19.5
t-62.5 55.5v-36q0 -17 -12 -28t-29 -11t-28.5 11t-11.5 28v596h-18q0 -31 -20 -55t-52 -24q-29 0 -50 19t-21 48q0 14 6.5 29.5t23.5 26.5q-14 10 -32 12.5t-32 2.5q-64 0 -103.5 -40.5t-39.5 -129.5v-40h151q17 0 28 -10.5t11 -27.5q0 -15 -11 -26t-28 -11h-151v-325h146
q17 0 28 -10.5t11 -26.5t-11 -26.5t-28 -10.5h-682q-17 0 -27.5 10.5t-10.5 26.5t10.5 26.5t27.5 10.5h106v325h-96q-17 0 -27.5 11t-10.5 26q0 17 10.5 27.5t27.5 10.5h96v54q0 51 14.5 92.5t41.5 70t65 44t86 15.5q18 0 38 -2.5t39 -10.5q22 -10 22 -32q0 -14 -9 -24
t-28 -10q-11 0 -27.5 3.5t-29.5 3.5q-59 0 -95.5 -37.5t-36.5 -126.5v-40h270v44zM1307 236q0 35 -9.5 66.5t-28 55.5t-46 38t-62.5 14t-62.5 -14t-46.5 -38t-29 -55.5t-10 -66.5t9.5 -66t28.5 -55t46.5 -38t62.5 -14t62.5 14t46 38t28.5 55t10 66z" />
    <glyph glyph-name="f_f" unicode="&#xfb00;" horiz-adv-x="819" 
d="M515 399h-270v-325h270v325zM595 474h151q17 0 28 -10.5t11 -27.5q0 -15 -11 -26t-28 -11h-151v-325h146q17 0 28 -10.5t11 -26.5t-11 -26.5t-28 -10.5h-682q-17 0 -27.5 10.5t-10.5 26.5t10.5 26.5t27.5 10.5h106v325h-96q-17 0 -27.5 11t-10.5 26q0 17 10.5 27.5
t27.5 10.5h96v54q0 51 14.5 92.5t41.5 70t65 44t86 15.5q18 0 38 -2.5t39 -10.5q22 -10 22 -32q0 -14 -9 -24t-28 -10q-11 0 -27.5 3.5t-29.5 3.5q-59 0 -95.5 -37.5t-36.5 -126.5v-40h270v54q0 54 15.5 97t43.5 73t67.5 46t88.5 16q43 0 77.5 -11t58.5 -29t36.5 -42
t12.5 -51q0 -33 -21.5 -54.5t-51.5 -21.5t-51 19.5t-21 46.5q0 16 8 31.5t23 23.5q-14 10 -33 13.5t-37 3.5q-29 0 -54 -9t-43 -29t-28.5 -51t-10.5 -76v-50z" />
    <glyph glyph-name="f_f_f" horiz-adv-x="1169" 
d="M515 399h-270v-325h270v325zM515 528q0 51 14.5 92.5t41.5 70t65 44t86 15.5q18 0 38 -2.5t39 -10.5q22 -10 22 -32q0 -14 -9 -24t-28 -10q-11 0 -27.5 3.5t-29.5 3.5q-59 0 -95.5 -37.5t-36.5 -126.5v-40h270v54q0 54 15.5 97t43.5 73t67.5 46t88.5 16q43 0 77.5 -11
t58.5 -29t36.5 -42t12.5 -51q0 -33 -21.5 -54.5t-51.5 -21.5t-51 19.5t-21 46.5q0 16 8 31.5t23 23.5q-14 10 -33 13.5t-37 3.5q-29 0 -54 -9t-43 -29t-28.5 -51t-10.5 -76v-50h151q17 0 28 -10.5t11 -27.5q0 -15 -11 -26t-28 -11h-151v-325h146q17 0 28 -10.5t11 -26.5
t-11 -26.5t-28 -10.5h-1032q-17 0 -27.5 10.5t-10.5 26.5t10.5 26.5t27.5 10.5h106v325h-96q-17 0 -27.5 11t-10.5 26q0 17 10.5 27.5t27.5 10.5h96v54q0 51 14.5 92.5t41.5 70t65 44t86 15.5q18 0 38 -2.5t39 -10.5q22 -10 22 -32q0 -14 -9 -24t-28 -10q-11 0 -27.5 3.5
t-29.5 3.5q-59 0 -95.5 -37.5t-36.5 -126.5v-40h270v54zM865 399h-270v-325h270v325z" />
    <glyph glyph-name="f_f_h" horiz-adv-x="1460" 
d="M738 684q-64 0 -103.5 -40.5t-39.5 -129.5v-40h151q17 0 28 -10.5t11 -27.5q0 -15 -11 -26t-28 -11h-151v-325h146q17 0 28 -10.5t11 -26.5t-11 -26.5t-28 -10.5h-682q-17 0 -27.5 10.5t-10.5 26.5t10.5 26.5t27.5 10.5h106v325h-96q-17 0 -27.5 11t-10.5 26
q0 17 10.5 27.5t27.5 10.5h96v54q0 51 14.5 92.5t41.5 70t65 44t86 15.5q12 0 29 -1.5t32.5 -6t26.5 -13.5t11 -24q0 -14 -9 -24t-28 -10q-11 0 -27.5 3.5t-29.5 3.5q-59 0 -95.5 -37.5t-36.5 -126.5v-40h270v44q0 54 15.5 98t44.5 74.5t69 47.5t90 17q51 0 89.5 -15
t61.5 -40h89q17 0 28 -10.5t11 -27.5v-269q26 46 70 68.5t92 22.5q37 0 68.5 -10.5t55 -32.5t36.5 -54.5t13 -75.5v-237h65q16 0 27 -11.5t11 -25.5q0 -16 -11 -26.5t-28 -10.5h-197q-17 0 -27.5 10.5t-10.5 26.5t10.5 26.5t27.5 10.5h52v239q0 28 -9 47t-23.5 30.5
t-32 16.5t-34.5 5q-29 0 -57 -12t-49.5 -36t-35 -59.5t-13.5 -81.5v-149h71q16 -1 26.5 -11.5t10.5 -25.5q0 -16 -10.5 -26.5t-27.5 -10.5h-215q-17 0 -28 10.5t-11 26.5t11 26.5t28 10.5h64v551h-17q0 -31 -20 -55t-52 -24q-27 0 -49 19t-22 48q0 14 6.5 29.5t23.5 26.5
q-14 10 -32 12.5t-32 2.5zM515 399h-270v-325h270v325z" />
    <glyph glyph-name="f_f_i" unicode="&#xfb03;" horiz-adv-x="1190" 
d="M536 74v325h-291v-325h291zM456 702q5 -8 5 -16q0 -11 -8.5 -20.5t-22.5 -9.5q-11 0 -24.5 3.5t-25.5 3.5q-30 0 -54.5 -8.5t-42.5 -28t-28 -50t-10 -75.5v-27h291v54q0 54 16 97t44.5 73t68.5 46t89 16q43 0 76.5 -11t57 -29t36 -42t12.5 -51q0 -15 -6 -29t-16 -24.5
t-23 -16.5t-28 -6q-29 0 -48.5 18.5t-19.5 45.5q0 14 6.5 30t21.5 27q-14 10 -32.5 13.5t-36.5 3.5q-30 0 -55 -9t-43 -29t-28.5 -51t-10.5 -76v-50h384q17 0 28 -10.5t11 -27.5v-362h105q16 0 27 -10.5t11 -26.5t-11 -26.5t-27 -10.5h-282q-16 0 -26.5 10.5t-10.5 26.5
t10.5 26.5t26.5 10.5h96v325h-342v-325h116q17 0 27.5 -10.5t10.5 -26.5t-10.5 -26.5t-27.5 -10.5h-674q-17 0 -27.5 10.5t-10.5 26.5t10.5 26.5t27.5 10.5h106v325h-96q-17 0 -27.5 11t-10.5 26q0 17 10.5 27.5t27.5 10.5h96v32q0 109 55 169t155 60q26 0 48 -6.5t33 -26.5
z" />
    <glyph glyph-name="f_f_j" horiz-adv-x="1024" 
d="M515 399h-270v-325h270v325zM741 74q17 0 28 -10.5t11 -26.5t-11 -26.5t-28 -10.5h-682q-17 0 -27.5 10.5t-10.5 26.5t10.5 26.5t27.5 10.5h106v325h-96q-17 0 -27.5 11t-10.5 26q0 17 10.5 27.5t27.5 10.5h96v54q0 51 14.5 92.5t41.5 70t65 44t86 15.5q18 0 38 -2.5
t39 -10.5q22 -10 22 -32q0 -14 -9 -24t-28 -10q-11 0 -27.5 3.5t-29.5 3.5q-59 0 -95.5 -37.5t-36.5 -126.5v-40h270v54q0 54 15.5 97t44 73t68.5 46t89 16q43 0 77 -11t57.5 -29t36 -42t12.5 -51q0 -33 -21.5 -54.5t-51.5 -21.5t-51 19.5t-21 46.5q0 16 8 31.5t23 23.5
q-14 10 -32.5 13.5t-36.5 3.5q-29 0 -54 -9t-43.5 -29t-29 -51t-10.5 -76v-50h340q16 0 27 -10.5t11 -27.5v-500q0 -44 -14 -78.5t-39.5 -58.5t-60.5 -36.5t-77 -12.5q-30 0 -58.5 7.5t-50 21.5t-35 35.5t-13.5 49.5q0 36 21.5 57.5t52.5 21.5t50.5 -20t19.5 -52
q0 -12 -6 -24t-18 -18q7 -5 19 -7.5t22 -2.5q20 0 39 6.5t34 20.5t24.5 37t9.5 56v460h-298v-325h146z" />
    <glyph glyph-name="f_f_k" horiz-adv-x="1471" 
d="M515 399h-270v-325h270v325zM515 518q0 54 15.5 98t44.5 74.5t69 47.5t90 17q51 0 89.5 -15t61.5 -40h89q17 0 28 -10.5t11 -27.5v-428l193 165h-77q-16 0 -27 11t-11 26q0 17 11 27.5t27 10.5h271q17 0 27.5 -10.5t10.5 -27.5q0 -15 -10.5 -26t-27.5 -11h-88l-141 -119
l151 -206h93q16 0 27 -10.5t11 -26.5t-11 -26.5t-27 -10.5h-101q-23 0 -35 5.5t-20 16.5l-150 211l-96 -83v-76h71q16 0 26.5 -11t10.5 -26q0 -16 -10.5 -26.5t-27.5 -10.5h-220q-17 0 -28 10.5t-11 26.5t11 26.5t28 10.5h69v551h-17q0 -31 -20 -55t-52 -24q-29 0 -50 19
t-21 48q0 14 6.5 29.5t23.5 26.5q-14 10 -32 12.5t-32 2.5q-64 0 -103.5 -40.5t-39.5 -129.5v-40h151q17 0 28 -10.5t11 -27.5q0 -15 -11 -26t-28 -11h-151v-325h146q17 0 28 -10.5t11 -26.5t-11 -26.5t-28 -10.5h-682q-17 0 -27.5 10.5t-10.5 26.5t10.5 26.5t27.5 10.5h106
v325h-96q-17 0 -27.5 11t-10.5 26q0 17 10.5 27.5t27.5 10.5h96v54q0 51 14.5 92.5t41.5 70t65 44t86 15.5q18 0 38 -2.5t39 -10.5q22 -10 22 -32q0 -14 -9 -24t-28 -10q-11 0 -27.5 3.5t-29.5 3.5q-59 0 -95.5 -37.5t-36.5 -126.5v-40h270v44z" />
    </font>
</defs>
</svg>
